<svg width="74" height="29" viewBox="0 0 74 29" fill="none" xmlns="http://www.w3.org/2000/svg">
<g clip-path="url(#clip0_34_1814)">
<path d="M15.2347 18.6611C13.8876 18.6629 12.7786 19.7344 12.7786 21.0751C12.7786 22.4158 13.8876 23.4764 15.2347 23.48C16.5944 23.4746 17.6945 22.4031 17.6945 21.0751C17.6945 19.7471 16.5944 18.6629 15.2347 18.6611ZM15.201 22.3796C14.4972 22.3796 13.964 21.7942 13.964 21.0769C13.964 20.3596 14.5327 19.7615 15.233 19.7615C15.9332 19.7615 16.4824 20.3451 16.4824 21.0769C16.4824 21.8087 15.9066 22.3796 15.1992 22.3796H15.201Z" fill="#1D1D1D"/>
<path d="M3.95992 16.9986C4.3367 17.3762 4.7668 17.7051 5.18801 17.9183L5.23245 17.9418L5.95757 17.0691L5.88826 17.0293C5.19868 16.6499 4.65839 16.1711 4.30649 15.5658C3.95637 14.9713 3.77687 14.2775 3.77687 13.4518V12.6748H2.47946V13.3686C2.47946 14.2648 2.27863 14.9695 1.9054 15.5875C1.48597 16.2704 0.865704 16.8215 0.0712665 17.3311L0.00195312 17.3744L0.791059 18.2038L0.833713 18.1785C1.30113 17.9183 1.79877 17.519 2.23242 17.0745C2.60742 16.686 2.93266 16.2668 3.12816 15.8711C3.31833 16.2578 3.61158 16.6535 3.9617 16.9932L3.95992 16.9986Z" fill="#1D1D1D"/>
<path d="M2.55762 22.9103H7.9925V19.1357H2.55762V22.9103ZM3.77682 20.2018H6.76796V21.846H3.77682V20.2018Z" fill="#1D1D1D"/>
<path d="M8.01194 12.4521H6.80518V18.7039H8.01194V15.9376H9.42842V14.8264H8.01194V12.4521Z" fill="#1D1D1D"/>
<path d="M38.8333 17.3179C39.2297 17.6684 39.6847 17.963 40.1112 18.1527L40.1556 18.1744L40.8079 17.2763L40.7386 17.242C40.1165 16.9168 39.5602 16.5157 39.1621 16.0278C38.7551 15.5273 38.5134 14.9256 38.5134 14.1993V13.9861H40.3103V12.9092H35.4281V13.9861H37.2249V14.2444C37.2249 14.9039 37.0081 15.5201 36.6526 16.0531C36.2332 16.6927 35.62 17.2095 35.0264 17.542L34.9482 17.5853L35.7498 18.4291L35.7942 18.4074C36.2279 18.1581 36.7042 17.7805 37.113 17.3577C37.44 17.0089 37.7332 16.6403 37.9127 16.2735C38.1295 16.6295 38.4619 16.9872 38.8333 17.3197V17.3179Z" fill="#1D1D1D"/>
<path d="M47.574 20.227H51.9674V22.9102H53.1884V19.1592H47.574V20.227Z" fill="#1D1D1D"/>
<path d="M50.606 15.9288C50.606 15.3379 50.3466 14.7941 49.9591 14.3785H51.1659V13.3143H48.8625V12.1416H47.5545V13.3143H45.196V14.3785H46.4277C46.0527 14.7941 45.7897 15.3325 45.7897 15.9288C45.7897 17.246 46.8578 18.3174 48.1943 18.321C49.5308 18.3174 50.606 17.246 50.6078 15.9288H50.606ZM46.9538 15.88C46.9538 15.15 47.5598 14.5321 48.1925 14.5321C48.8252 14.5321 49.4295 15.1536 49.4313 15.88C49.4313 16.5973 48.8252 17.2171 48.1925 17.2189C47.558 17.2171 46.9538 16.5973 46.9538 15.88Z" fill="#1D1D1D"/>
<path d="M53.1884 12.4521H51.9817V18.7255H53.1884V16.3315H54.6067V15.2221H53.1884V12.4521Z" fill="#1D1D1D"/>
<path d="M42.9512 12.4521H41.7427V18.7255H42.9512V15.9376H44.3677V14.8264H42.9512V12.4521Z" fill="#1D1D1D"/>
<path d="M70.4153 17.1822H66.3312V14.0202H69.4432V12.9072H65.1084V18.2627H70.4153V17.1822Z" fill="#1D1D1D"/>
<path d="M16.7117 14.3132H14.8118V15.4136H16.7117V18.9225H17.9202V12.4521H16.7117V14.3132Z" fill="#1D1D1D"/>
<path d="M13.6407 17.1614C14.0175 17.539 14.4565 17.8678 14.8795 18.0901L14.9257 18.1172L15.6526 17.2445L15.5815 17.2029C14.8919 16.8379 14.3623 16.3591 14.0086 15.7629C13.6478 15.172 13.4683 14.4529 13.4683 13.6254V12.6768H12.1674V13.5477C12.1674 14.4439 11.9701 15.1467 11.604 15.7538C11.1846 16.4495 10.5554 17.0024 9.75919 17.5101L9.69165 17.5535L10.4825 18.3864L10.5216 18.3611C10.9908 18.1009 11.476 17.7233 11.9079 17.2915C12.2971 16.8958 12.6241 16.4675 12.8196 16.052C13.0063 16.4278 13.2924 16.8145 13.6372 17.1614H13.6407Z" fill="#1D1D1D"/>
<path d="M40.3583 18.6611C39.0112 18.6629 37.9022 19.7344 37.9004 21.0751C37.9022 22.4031 39.0112 23.4764 40.3583 23.48C41.7162 23.4746 42.8181 22.4031 42.8181 21.0751C42.8181 19.7471 41.7162 18.6629 40.3583 18.6611ZM40.3228 22.3796C39.6208 22.3796 39.0858 21.7942 39.0858 21.0769C39.0858 20.3596 39.6528 19.7615 40.3583 19.7615C41.0639 19.7615 41.606 20.3451 41.6078 21.0769C41.606 21.7942 41.0302 22.3796 40.3228 22.3796Z" fill="#1D1D1D"/>
<path d="M68.1068 19.5781H66.884V22.91H72.5997V21.8114H68.1068V19.5781Z" fill="#1D1D1D"/>
<path d="M72.5713 15.3503V12.4521H71.3645V20.1656H72.5713V16.4579H74.0002V15.3503H72.5713Z" fill="#1D1D1D"/>
<path d="M62.3483 15.2781H61.3317V12.6292H60.1907V22.641H61.3317V16.4832H62.3483V22.9102H63.5337V12.4521H62.3483V15.2781Z" fill="#1D1D1D"/>
<path d="M58.5129 16.6658C58.241 16.0605 58.129 15.3866 58.129 14.5554V14.1597H59.4993V13.0322H55.5147V14.1597H56.9294V14.5753C56.9294 15.3613 56.8281 16.0027 56.5828 16.599C56.3002 17.2819 55.8239 17.8999 55.065 18.5576L55.0117 18.6082L55.7617 19.3634L55.8079 19.3273C56.1847 19.0436 56.5793 18.6335 56.9098 18.2107C57.1871 17.8529 57.4217 17.4843 57.571 17.1591C57.722 17.4753 57.9584 17.8385 58.2339 18.1781C58.5556 18.5757 58.9164 18.9533 59.2629 19.1773L59.3109 19.2099L59.9419 18.4419L59.8921 18.395C59.2132 17.7933 58.792 17.2567 58.5147 16.664L58.5129 16.6658Z" fill="#1D1D1D"/>
<path d="M3.43359 26.5196C2.85421 26.31 2.74579 26.1691 2.74579 25.9269C2.74579 25.6848 2.91286 25.4933 3.30919 25.4933C3.59888 25.4933 3.79438 25.5891 4.0041 25.7661L4.21026 25.5078C3.96677 25.3108 3.71796 25.1934 3.33051 25.1934C2.78845 25.1934 2.42233 25.4734 2.42233 25.9468C2.42233 26.3714 2.6356 26.5756 3.25942 26.8051C3.78905 26.9984 3.95078 27.1556 3.95078 27.4266C3.95078 27.7392 3.71085 27.9307 3.32518 27.9307C3.0266 27.9307 2.77423 27.7916 2.55563 27.5784L2.34058 27.8223C2.56807 28.0554 2.92174 28.2289 3.31452 28.2289C3.91879 28.2289 4.27424 27.8711 4.27424 27.4104C4.27424 26.9496 4.07696 26.7527 3.43537 26.516L3.43359 26.5196Z" fill="#1D1D1D"/>
<path d="M5.58775 25.9326C5.30517 25.9326 5.04746 26.0031 4.8573 26.1079L4.9746 26.3645C5.15232 26.2597 5.33894 26.1946 5.56643 26.1946C5.88278 26.1946 6.03918 26.3536 6.03918 26.6843V26.9463C5.91121 26.874 5.71572 26.818 5.49533 26.818C5.06524 26.818 4.66357 27.0294 4.66357 27.5263C4.66357 28.0593 5.0208 28.2309 5.35848 28.2309C5.66951 28.2309 5.88278 28.0846 6.0374 27.9165V28.1858H6.34664V26.6463C6.34664 26.1332 6.0534 25.9326 5.58775 25.9326ZM6.0374 27.6437C5.90588 27.828 5.69261 27.9762 5.4118 27.9762C5.14699 27.9762 4.96749 27.8316 4.96749 27.5028C4.96749 27.2263 5.15943 27.0673 5.47756 27.0673C5.74237 27.0673 5.89522 27.1161 6.03562 27.1956V27.6419L6.0374 27.6437Z" fill="#1D1D1D"/>
<path d="M9.46568 26.8939V28.1858H9.7767V26.8397C9.7767 26.1946 9.50123 25.9326 9.05691 25.9326C8.70501 25.9326 8.52728 26.0988 8.39932 26.3102C8.29624 26.0988 8.10963 25.9326 7.80394 25.9326C7.54623 25.9326 7.36318 26.0573 7.25298 26.2488V25.9796H6.94019V28.1876H7.25298V26.8957C7.25298 26.406 7.4396 26.2055 7.73818 26.2055C8.03676 26.2055 8.2056 26.3898 8.2056 26.8957V28.1876H8.51662V26.8957C8.51662 26.406 8.70501 26.2055 9.00004 26.2055C9.31461 26.2055 9.46746 26.3898 9.46746 26.8957L9.46568 26.8939Z" fill="#1D1D1D"/>
<path d="M11.0208 26.9047C10.6529 26.7349 10.5428 26.6608 10.5428 26.4747C10.5428 26.3157 10.6743 26.2 10.9035 26.2C11.1328 26.2 11.275 26.2633 11.4438 26.3988L11.618 26.1657C11.4527 26.0266 11.2217 25.9326 10.9213 25.9326C10.5285 25.9326 10.2442 26.1585 10.2442 26.4945C10.2442 26.8487 10.4255 26.9824 10.8609 27.1721C11.2448 27.3402 11.3745 27.4413 11.3745 27.622C11.3745 27.837 11.2341 27.9635 10.9355 27.9635C10.7205 27.9635 10.5179 27.8732 10.3437 27.7196L10.1606 27.9509C10.3686 28.1207 10.6281 28.2327 10.9266 28.2327C11.3034 28.2327 11.6713 28.0448 11.6713 27.6112C11.6713 27.2155 11.4314 27.0944 11.0208 26.9065V26.9047Z" fill="#1D1D1D"/>
<path d="M13.4859 27.2675C13.4859 27.7517 13.2477 27.9559 12.9492 27.9559C12.599 27.9559 12.4338 27.7427 12.4338 27.2675V25.9774H12.1245V27.3217C12.1245 27.9559 12.4249 28.2287 12.8834 28.2287C13.1589 28.2287 13.3597 28.0986 13.4841 27.9143V28.1836H13.7951V25.9756H13.4841V27.2657L13.4859 27.2675Z" fill="#1D1D1D"/>
<path d="M15.99 28.1858V26.8397C15.99 26.2036 15.6879 25.9326 15.2276 25.9326C14.9557 25.9326 14.7531 26.0609 14.6304 26.2488V25.9796H14.3176V28.1876H14.6304V26.8957C14.6304 26.4132 14.8632 26.2055 15.1672 26.2055C15.5137 26.2055 15.6808 26.4205 15.6808 26.8957V28.1876H15.9918L15.99 28.1858Z" fill="#1D1D1D"/>
<path d="M16.9674 28.7585L17.0669 28.9988C17.8738 28.9717 18.167 28.6537 18.167 27.9888V25.9778H17.8578V26.2253C17.7049 26.0483 17.5201 25.9326 17.2464 25.9326C16.7896 25.9326 16.4253 26.3337 16.4253 27.1179C16.4253 27.9021 16.7701 28.2309 17.2055 28.2309C17.4988 28.2309 17.7067 28.0846 17.8595 27.9165V28.0304C17.8595 28.5435 17.6943 28.7369 16.9691 28.7585H16.9674ZM17.2819 27.9581C16.9389 27.9581 16.731 27.669 16.731 27.1143C16.731 26.5198 16.9087 26.2055 17.2695 26.2055C17.5272 26.2055 17.7369 26.3536 17.856 26.5361V27.6401C17.7031 27.8352 17.513 27.9581 17.2802 27.9581H17.2819Z" fill="#1D1D1D"/>
<path d="M21.5919 26.6929C21.5919 25.6829 21.032 25.2402 20.2714 25.2402H19.5054V28.1854H20.2127C20.9876 28.1854 21.5919 27.7608 21.5919 26.6911V26.6929ZM19.8288 25.5384H20.2465C20.913 25.5384 21.2684 25.9521 21.2684 26.7038C21.2684 27.5512 20.8792 27.8873 20.2536 27.8873H19.8271V25.5384H19.8288Z" fill="#1D1D1D"/>
<path d="M22.4202 26.2517V25.9789H22.1091V28.1869H22.4202V26.8914C22.4202 26.4686 22.589 26.2246 22.8929 26.2246C23.0369 26.2246 23.1328 26.2572 23.2181 26.3078L23.2963 25.9898C23.2235 25.9554 23.1186 25.9355 22.9587 25.9355C22.7258 25.9355 22.5179 26.0765 22.4219 26.2554L22.4202 26.2517Z" fill="#1D1D1D"/>
<path d="M25.1536 27.9762L25.0097 27.7485C24.8106 27.884 24.6613 27.9581 24.4072 27.9581C24.0535 27.9581 23.8331 27.66 23.8029 27.1902H25.2514C25.262 27.1378 25.2656 27.0926 25.2656 27.0167C25.2656 26.3861 24.9581 25.9326 24.3912 25.9326C23.874 25.9326 23.4937 26.3681 23.4937 27.0691C23.4937 27.9382 23.9771 28.2309 24.3752 28.2309C24.7022 28.2309 24.8941 28.1424 25.1554 27.9762H25.1536ZM24.3876 26.2036C24.768 26.2036 24.951 26.5018 24.9759 26.9318H23.8029C23.8384 26.4385 24.0642 26.2036 24.3876 26.2036Z" fill="#1D1D1D"/>
<path d="M26.2982 28.2309C26.6092 28.2309 26.8243 28.0846 26.9771 27.9165V28.1858H27.2881V26.6463C27.2881 26.1332 26.9949 25.9326 26.5257 25.9326C26.2431 25.9326 25.9872 26.0031 25.797 26.1079L25.9143 26.3645C26.092 26.2597 26.2786 26.1946 26.5061 26.1946C26.8243 26.1946 26.9771 26.3536 26.9771 26.6843V26.9463C26.8509 26.874 26.6554 26.818 26.4386 26.818C26.0067 26.818 25.6033 27.0294 25.6033 27.5263C25.6033 28.0593 25.9605 28.2309 26.2982 28.2309ZM26.419 27.0691C26.6821 27.0691 26.8367 27.1179 26.9771 27.1974V27.6437C26.8456 27.828 26.6341 27.9762 26.3551 27.9762C26.076 27.9762 25.9107 27.8316 25.9107 27.5028C25.9107 27.2263 26.1027 27.0673 26.4208 27.0673L26.419 27.0691Z" fill="#1D1D1D"/>
<path d="M30.4053 26.8939V28.1858H30.7146V26.8397C30.7146 26.1946 30.4391 25.9326 29.9948 25.9326C29.6429 25.9326 29.4651 26.0988 29.3372 26.3102C29.2341 26.0988 29.0493 25.9326 28.7418 25.9326C28.4841 25.9326 28.3028 26.0573 28.1908 26.2488V25.9796H27.8816V28.1876H28.1908V26.8957C28.1908 26.406 28.3774 26.2055 28.676 26.2055C28.9746 26.2055 29.1434 26.3898 29.1434 26.8957V28.1876H29.4527V26.8957C29.4527 26.406 29.6429 26.2055 29.9379 26.2055C30.2507 26.2055 30.4053 26.3898 30.4053 26.8957V26.8939Z" fill="#1D1D1D"/>
<path d="M33.0376 26.5197C32.4582 26.3101 32.3516 26.171 32.3516 25.9271C32.3516 25.6832 32.5169 25.4934 32.9132 25.4934C33.2047 25.4934 33.3984 25.5892 33.6081 25.7663L33.8143 25.5097C33.5708 25.3128 33.322 25.1953 32.9345 25.1953C32.3924 25.1953 32.0281 25.4736 32.0281 25.947C32.0281 26.3716 32.2378 26.5776 32.8652 26.8034C33.3948 26.9986 33.5566 27.1539 33.5566 27.4268C33.5566 27.7376 33.3166 27.9309 32.931 27.9309C32.6324 27.9309 32.38 27.79 32.1596 27.5767L31.9446 27.8189C32.1721 28.0556 32.5257 28.2272 32.9167 28.2272C33.5192 28.2272 33.8765 27.8695 33.8765 27.4087C33.8765 26.948 33.6792 26.751 33.0376 26.5143V26.5197Z" fill="#1D1D1D"/>
<path d="M35.1951 26.2055C35.4137 26.2055 35.5594 26.285 35.7158 26.4295L35.9024 26.1928C35.7318 26.041 35.5079 25.9326 35.2146 25.9326C34.7596 25.9326 34.2798 26.2759 34.2798 27.0944C34.2798 27.8641 34.7152 28.2327 35.1951 28.2327C35.499 28.2327 35.7105 28.1153 35.8935 27.9256L35.7069 27.725C35.5594 27.8714 35.4172 27.9599 35.2075 27.9599C34.8219 27.9599 34.5944 27.6112 34.5944 27.0673C34.5944 26.5235 34.8574 26.2055 35.1969 26.2055H35.1951Z" fill="#1D1D1D"/>
<path d="M37.2317 25.9327C36.9598 25.9327 36.7554 26.061 36.631 26.2489V25.21H36.3218V28.1877H36.631V26.8958C36.631 26.4115 36.8692 26.2055 37.1695 26.2055C37.5179 26.2055 37.6814 26.4187 37.6814 26.8958V28.1877H37.9924V26.8397C37.9924 26.2055 37.6903 25.9327 37.23 25.9327H37.2317Z" fill="#1D1D1D"/>
<path d="M39.3788 25.9326C38.851 25.9326 38.428 26.3337 38.428 27.0854C38.428 27.837 38.8332 28.2327 39.3628 28.2327C39.8924 28.2327 40.3154 27.8172 40.3154 27.0673C40.3154 26.3175 39.9067 25.9326 39.3788 25.9326ZM39.3735 27.9599C38.9967 27.9599 38.7426 27.6582 38.7426 27.0764C38.7426 26.4945 38.9967 26.2055 39.3735 26.2055C39.7503 26.2055 40.0044 26.4964 40.0044 27.0764C40.0044 27.6564 39.7485 27.9599 39.3735 27.9599Z" fill="#1D1D1D"/>
<path d="M41.0957 25.21H40.7847V28.1877H41.0957V25.21Z" fill="#1D1D1D"/>
<path d="M42.514 25.9326C42.2331 25.9326 41.9754 26.0049 41.7871 26.1097L41.9026 26.3681C42.0803 26.2615 42.2669 26.1982 42.4944 26.1982C42.8125 26.1982 42.9654 26.359 42.9654 26.6843V26.9481C42.8374 26.874 42.6419 26.8198 42.4251 26.8198C41.9932 26.8198 41.5916 27.0312 41.5916 27.5281C41.5916 28.0629 41.947 28.2327 42.2865 28.2327C42.5975 28.2327 42.8125 28.0882 42.9654 27.9183V28.1876H43.2764V26.6481C43.2764 26.1332 42.9832 25.9326 42.514 25.9326ZM42.9654 27.6437C42.8339 27.828 42.6206 27.9762 42.3416 27.9762C42.0785 27.9762 41.899 27.8316 41.899 27.5046C41.899 27.2263 42.091 27.0709 42.4091 27.0709C42.6739 27.0709 42.8268 27.1179 42.9672 27.1974V27.6437H42.9654Z" fill="#1D1D1D"/>
<path d="M44.1792 26.2524V25.9778H43.8682V28.1876H44.1792V26.8921C44.1792 26.4711 44.348 26.2235 44.6502 26.2235C44.7959 26.2235 44.8901 26.256 44.9772 26.3066L45.0554 25.9868C44.9825 25.9543 44.8777 25.9326 44.7177 25.9326C44.4849 25.9326 44.2769 26.0735 44.1792 26.2524Z" fill="#1D1D1D"/>
<path d="M46.248 26.9046C45.8783 26.7347 45.7681 26.6588 45.7681 26.4727C45.7681 26.3137 45.9014 26.1981 46.1289 26.1981C46.3564 26.1981 46.5022 26.2631 46.671 26.3968L46.8452 26.1656C46.6781 26.0264 46.4488 25.9307 46.1503 25.9307C45.7557 25.9307 45.4713 26.1565 45.4713 26.4944C45.4713 26.8485 45.6544 26.9823 46.0898 27.1702C46.4737 27.3382 46.6035 27.4394 46.6035 27.6201C46.6035 27.8369 46.4613 27.9616 46.1662 27.9616C45.9494 27.9616 45.7468 27.8712 45.5726 27.7176L45.3914 27.9489C45.5975 28.1188 45.8588 28.2308 46.1574 28.2308C46.5324 28.2308 46.902 28.0429 46.902 27.6092C46.902 27.2117 46.6621 27.0925 46.2516 26.9028L46.248 26.9046Z" fill="#1D1D1D"/>
<path d="M48.315 25.9327C48.0413 25.9327 47.8387 26.061 47.7143 26.2489V25.21H47.405V28.1877H47.7143V26.8958C47.7143 26.4115 47.9506 26.2055 48.2528 26.2055C48.5993 26.2055 48.7646 26.4187 48.7646 26.8958V28.1877H49.0757V26.8397C49.0757 26.2055 48.7735 25.9327 48.315 25.9327Z" fill="#1D1D1D"/>
<path d="M49.998 25.9775H49.6887V28.1873H49.998V25.9775Z" fill="#1D1D1D"/>
<path d="M49.8505 25.1318C49.7226 25.1318 49.623 25.233 49.623 25.3613C49.623 25.4824 49.7226 25.5835 49.8505 25.5835C49.9643 25.5835 50.0656 25.4824 50.0656 25.3613C50.0656 25.233 49.9643 25.1318 49.8505 25.1318Z" fill="#1D1D1D"/>
<path d="M51.5885 25.9326C51.2953 25.9326 51.0873 26.079 50.9345 26.2488V25.9796H50.6252V29.0007H50.9345V27.94C51.0873 28.1153 51.2739 28.2327 51.5476 28.2327C52.0026 28.2327 52.367 27.828 52.367 27.0474C52.367 26.2669 52.0222 25.9326 51.5885 25.9326ZM51.5228 27.9599C51.2668 27.9599 51.0553 27.8117 50.9345 27.6274V26.5253C51.0873 26.3337 51.2793 26.2055 51.5103 26.2055C51.8551 26.2055 52.0631 26.4964 52.0631 27.0511C52.0631 27.6437 51.8853 27.9599 51.5228 27.9599Z" fill="#1D1D1D"/>
<path d="M54.011 25.5403H55.3901V25.2422H53.6875V28.1874H54.011V26.8141H54.8054V26.5178H54.011V25.5403Z" fill="#1D1D1D"/>
<path d="M56.334 25.9326C55.8061 25.9326 55.3813 26.3337 55.3813 27.0854C55.3813 27.837 55.7883 28.2327 56.3162 28.2327C56.844 28.2327 57.2688 27.8172 57.2688 27.0673C57.2688 26.3175 56.8636 25.9326 56.334 25.9326ZM56.3251 27.9599C55.9483 27.9599 55.6959 27.6582 55.6959 27.0764C55.6959 26.4945 55.9483 26.2055 56.3251 26.2055C56.7019 26.2055 56.9596 26.4964 56.9596 27.0764C56.9596 27.6564 56.7036 27.9599 56.3251 27.9599Z" fill="#1D1D1D"/>
<path d="M58.9837 27.2676C58.9837 27.7519 58.7491 27.9578 58.447 27.9578C58.0986 27.9578 57.9333 27.7446 57.9333 27.2676V25.9775H57.6223V27.3236C57.6223 27.9597 57.9245 28.2325 58.3848 28.2325C58.6549 28.2325 58.8575 28.1042 58.9819 27.9181V28.1873H59.2929V25.9775H58.9819V27.2676H58.9837Z" fill="#1D1D1D"/>
<path d="M60.7255 25.9326C60.4535 25.9326 60.2509 26.0609 60.1247 26.2488V25.9796H59.8137V28.1894H60.1247V26.8975C60.1247 26.4132 60.3611 26.2073 60.6633 26.2073C61.0116 26.2073 61.1769 26.4205 61.1769 26.8975V28.1894H61.4861V26.8415C61.4861 26.2073 61.184 25.9344 60.7237 25.9344L60.7255 25.9326Z" fill="#1D1D1D"/>
<path d="M63.3558 26.2272C63.203 26.0501 63.0164 25.9327 62.7427 25.9327C62.2877 25.9327 61.9233 26.3338 61.9233 27.1198C61.9233 27.9058 62.2663 28.2328 62.7018 28.2328C62.995 28.2328 63.2012 28.0883 63.3558 27.9184V28.1877H63.6668V25.21H63.3558V26.229V26.2272ZM63.3558 27.6402C63.203 27.8335 63.011 27.96 62.78 27.96C62.437 27.96 62.229 27.6709 62.229 27.1144C62.229 26.5199 62.4068 26.2055 62.7675 26.2055C63.0252 26.2055 63.2332 26.3519 63.3558 26.538V27.6402Z" fill="#1D1D1D"/>
<path d="M64.9838 25.9326C64.7012 25.9326 64.4452 26.0049 64.2551 26.1097L64.3706 26.3681C64.5501 26.2615 64.7367 26.1982 64.9624 26.1982C65.2805 26.1982 65.4334 26.359 65.4334 26.6843V26.9481C65.3054 26.874 65.1099 26.8198 64.8913 26.8198C64.463 26.8198 64.0596 27.0312 64.0596 27.5281C64.0596 28.0629 64.4168 28.2327 64.7563 28.2327C65.0673 28.2327 65.2806 28.0882 65.4334 27.9183V28.1876H65.7444V26.6481C65.7444 26.1332 65.4512 25.9326 64.9838 25.9326ZM65.4334 27.6437C65.3019 27.828 65.0904 27.9762 64.8078 27.9762C64.5448 27.9762 64.367 27.8316 64.367 27.5046C64.367 27.2263 64.5572 27.0709 64.8753 27.0709C65.1401 27.0709 65.293 27.1179 65.4334 27.1974V27.6437Z" fill="#1D1D1D"/>
<path d="M66.7344 25.21H66.4234V25.9797H66.155V26.2453H66.4234V27.7359C66.4234 28.1009 66.5691 28.2346 66.8393 28.2346C67.0028 28.2346 67.1183 28.2111 67.2392 28.1587L67.2605 27.8859C67.161 27.9275 67.0792 27.9491 66.953 27.9491C66.7877 27.9491 66.7344 27.8823 66.7344 27.6835V26.2453H67.2729V25.9797H66.7344V25.21Z" fill="#1D1D1D"/>
<path d="M67.9768 25.1318C67.8489 25.1318 67.7476 25.233 67.7476 25.3613C67.7476 25.4824 67.8489 25.5835 67.9768 25.5835C68.0941 25.5835 68.1937 25.4824 68.1937 25.3613C68.1937 25.233 68.0941 25.1318 67.9768 25.1318Z" fill="#1D1D1D"/>
<path d="M68.1242 25.9775H67.8149V28.1873H68.1242V25.9775Z" fill="#1D1D1D"/>
<path d="M69.5461 25.9326C69.0182 25.9326 68.5952 26.3337 68.5952 27.0854C68.5952 27.837 69.0004 28.2327 69.5301 28.2327C70.0597 28.2327 70.4809 27.8172 70.4809 27.0673C70.4809 26.3175 70.0757 25.9326 69.5461 25.9326ZM69.5354 27.9599C69.1604 27.9599 68.908 27.6582 68.908 27.0764C68.908 26.4945 69.1604 26.2055 69.5354 26.2055C69.9104 26.2055 70.1699 26.4964 70.1699 27.0764C70.1699 27.6564 69.9139 27.9599 69.5354 27.9599Z" fill="#1D1D1D"/>
<path d="M71.8387 25.9326C71.565 25.9326 71.3624 26.0609 71.238 26.2488V25.9796H70.927V28.1894H71.238V26.8975C71.238 26.4132 71.4744 26.2073 71.7765 26.2073C72.1267 26.2073 72.2902 26.4205 72.2902 26.8975V28.1894H72.5994V26.8415C72.5994 26.2073 72.2973 25.9344 71.8387 25.9344V25.9326Z" fill="#1D1D1D"/>
<path d="M39.7697 4.90199L37.3828 3.89738L39.7697 2.89277L39.3449 1.85202L36.958 2.85664L37.948 0.430031L36.9243 0L35.9361 2.4266L34.9462 0L33.9242 0.430031L34.9124 2.85664L32.5255 1.85202L32.1025 2.89277L34.4876 3.89738L32.1025 4.90199L32.5255 5.94274L34.9124 4.93632L33.9242 7.36293L34.9479 7.79477L35.9361 5.36816L36.9243 7.79477L37.948 7.36293L36.958 4.93632L39.3449 5.94274L39.7697 4.90199Z" fill="#009FE3"/>
<path d="M24.3199 11.6762H25.9088V7.36328H20.4792V8.81599H24.3199V11.6762Z" fill="#009FE3"/>
<path d="M30.5155 11.6762H32.1026V7.36328H26.6731V8.81599H30.5155V11.6762Z" fill="#009FE3"/>
<path d="M20.2234 13.9058H30.5155V16.1265H32.1026V12.4531H20.2234V13.9058Z" fill="#009FE3"/>
<path d="M24.064 22.9117H32.1008V16.875H24.064V22.9117ZM25.6528 18.3277H30.5154V21.459H25.6528V18.3277Z" fill="#009FE3"/>
</g>
<defs>
<clipPath id="clip0_34_1814">
<rect width="74" height="29" fill="white"/>
</clipPath>
</defs>
</svg>
