<svg width="300" height="103" viewBox="0 0 300 103" fill="none" xmlns="http://www.w3.org/2000/svg">
<path d="M87.758 78.3186C85.7081 77.5605 85.3197 77.0552 85.3197 76.1856C85.3197 75.3161 85.9095 74.6249 87.312 74.6249C88.3406 74.6249 89.0239 74.9742 89.7719 75.6133L90.5056 74.6843C89.6425 73.9709 88.765 73.5547 87.384 73.5547C85.4707 73.5547 84.176 74.5654 84.176 76.2599C84.176 77.7909 84.9241 78.5341 87.1394 79.3516C89.0167 80.0502 89.5849 80.6076 89.5849 81.5887C89.5849 82.7109 88.7362 83.4095 87.3768 83.4095C86.3194 83.4095 85.4276 82.9041 84.6507 82.1386L83.8955 83.0156C84.7011 83.8629 85.9454 84.4871 87.3408 84.4871C89.477 84.4871 90.7358 83.194 90.7358 81.5366C90.7358 79.8793 90.0381 79.1733 87.7652 78.326L87.758 78.3186Z" fill="#004289"/>
<path d="M95.3822 76.2082C94.3824 76.2082 93.4761 76.4609 92.8 76.8399L93.2172 77.7615C93.8429 77.3825 94.5047 77.1521 95.3102 77.1521C96.4323 77.1521 96.979 77.7244 96.979 78.9135V79.8499C96.5258 79.5898 95.8281 79.3891 95.0585 79.3891C93.5408 79.3891 92.1167 80.1472 92.1167 81.9309C92.1167 83.8483 93.3754 84.4726 94.5694 84.4726C95.6771 84.4726 96.4323 83.9375 96.979 83.3355V84.3091H98.0722V78.7648C98.0722 76.9217 97.0365 76.1934 95.3822 76.1934V76.2082ZM96.9718 82.3694C96.5042 83.0308 95.7562 83.5585 94.7636 83.5585C93.8214 83.5585 93.1884 83.0457 93.1884 81.864C93.1884 80.8681 93.8645 80.3033 94.9938 80.3033C95.9288 80.3033 96.4683 80.4816 96.9718 80.764V82.3768V82.3694Z" fill="#004289"/>
<path d="M109.106 79.6639V84.3163H110.199V79.4781C110.199 77.1593 109.221 76.208 107.653 76.208C106.401 76.208 105.776 76.81 105.323 77.5681C104.956 76.81 104.301 76.208 103.215 76.208C102.309 76.208 101.661 76.6614 101.266 77.3451V76.3789H100.158V84.3237H101.266V79.6713C101.266 77.9099 101.92 77.189 102.978 77.189C104.035 77.189 104.632 77.8505 104.632 79.6713V84.3237H105.733V79.6713C105.733 77.9099 106.401 77.189 107.444 77.189C108.552 77.189 109.099 77.8505 109.099 79.6713L109.106 79.6639Z" fill="#004289"/>
<path d="M114.608 79.6932C113.307 79.0838 112.918 78.8237 112.918 78.1474C112.918 77.5677 113.378 77.1664 114.191 77.1664C115.004 77.1664 115.508 77.3893 116.105 77.8798L116.716 77.04C116.133 76.5421 115.313 76.2002 114.263 76.2002C112.861 76.2002 111.861 77.0177 111.861 78.2217C111.861 79.4926 112.501 79.9756 114.047 80.6594C115.407 81.2614 115.86 81.6256 115.86 82.2796C115.86 83.0525 115.364 83.5058 114.306 83.5058C113.544 83.5058 112.825 83.1863 112.213 82.6289L111.566 83.4538C112.3 84.0632 113.22 84.472 114.278 84.472C115.608 84.472 116.91 83.7957 116.91 82.2275C116.91 80.808 116.061 80.3695 114.601 79.6858L114.608 79.6932Z" fill="#004289"/>
<path d="M123.326 81.0161C123.326 82.7552 122.484 83.4909 121.427 83.4909C120.19 83.4909 119.607 82.7254 119.607 81.0161V76.3711H118.514V81.2093C118.514 83.4909 119.586 84.4794 121.204 84.4794C122.175 84.4794 122.887 84.0112 123.326 83.3423V84.3159H124.426V76.3711H123.326V81.0161Z" fill="#004289"/>
<path d="M132.194 84.3163V79.4781C132.194 77.189 131.123 76.208 129.497 76.208C128.533 76.208 127.814 76.6762 127.383 77.3451V76.3789H126.275V84.3237H127.383V79.6713C127.383 77.9322 128.21 77.189 129.274 77.189C130.504 77.189 131.094 77.962 131.094 79.6713V84.3237H132.194V84.3163Z" fill="#004289"/>
<path d="M135.654 86.3672L136.007 87.2293C138.862 87.1401 139.898 85.9881 139.898 83.595V76.3637H138.797V77.2555C138.258 76.6164 137.596 76.2002 136.632 76.2002C135.021 76.2002 133.727 77.6494 133.727 80.4662C133.727 83.2829 134.949 84.472 136.481 84.472C137.524 84.472 138.258 83.9369 138.797 83.3349V83.7437C138.797 85.5942 138.215 86.2928 135.647 86.3597L135.654 86.3672ZM136.769 83.491C135.554 83.491 134.82 82.4505 134.82 80.4513C134.82 78.3183 135.446 77.1812 136.726 77.1812C137.639 77.1812 138.38 77.7089 138.805 78.3703V82.3465C138.265 83.0451 137.589 83.491 136.769 83.491Z" fill="#004289"/>
<path d="M152.025 78.9425C152.025 75.3082 150.039 73.7178 147.349 73.7178H144.638V84.3158H147.148C149.888 84.3158 152.025 82.7848 152.025 78.9425ZM145.781 74.788H147.263C149.622 74.788 150.881 76.2744 150.881 78.9796C150.881 82.0267 149.5 83.2382 147.292 83.2382H145.781V74.788Z" fill="#004289"/>
<path d="M154.952 77.3529V76.3719H153.852V84.3167H154.952V79.6494C154.952 78.1333 155.556 77.2489 156.628 77.2489C157.139 77.2489 157.469 77.3678 157.779 77.5536L158.052 76.409C157.793 76.2901 157.426 76.2158 156.851 76.2158C156.024 76.2158 155.297 76.7286 154.952 77.3603V77.3529Z" fill="#004289"/>
<path d="M164.626 83.5586L164.108 82.7411C163.404 83.2242 162.878 83.4992 161.979 83.4992C160.728 83.4992 159.944 82.4215 159.843 80.7345H164.964C165 80.5487 165.015 80.3852 165.015 80.1176C165.015 77.8509 163.921 76.2158 161.915 76.2158C160.088 76.2158 158.743 77.784 158.743 80.3034C158.743 83.4323 160.455 84.4876 161.864 84.4876C163.022 84.4876 163.698 84.1681 164.626 83.5661V83.5586ZM161.915 77.1894C163.26 77.1894 163.907 78.267 163.993 79.8055H159.843C159.973 78.0292 160.771 77.1894 161.915 77.1894Z" fill="#004289"/>
<path d="M168.683 84.4794C169.784 84.4794 170.539 83.9443 171.078 83.3423V84.3159H172.179V78.7717C172.179 76.9285 171.143 76.2002 169.489 76.2002C168.489 76.2002 167.583 76.4529 166.906 76.8319L167.316 77.7535C167.949 77.3745 168.604 77.1441 169.409 77.1441C170.539 77.1441 171.078 77.7163 171.078 78.9054V79.8419C170.625 79.5818 169.935 79.3811 169.165 79.3811C167.64 79.3811 166.209 80.1392 166.209 81.9228C166.209 83.8403 167.475 84.4646 168.676 84.4646L168.683 84.4794ZM169.107 80.2952C170.042 80.2952 170.589 80.4736 171.085 80.756V82.3688C170.618 83.0302 169.87 83.5579 168.877 83.5579C167.942 83.5579 167.302 83.0451 167.302 81.8634C167.302 80.8675 167.985 80.3027 169.107 80.3027V80.2952Z" fill="#004289"/>
<path d="M183.212 79.6639V84.3163H184.313V79.4781C184.313 77.1593 183.334 76.208 181.766 76.208C180.522 76.208 179.889 76.81 179.443 77.5681C179.076 76.81 178.422 76.208 177.336 76.208C176.422 76.208 175.782 76.6614 175.386 77.3451V76.3789H174.293V84.3237H175.386V79.6713C175.386 77.9099 176.048 77.189 177.106 77.189C178.163 77.189 178.767 77.8505 178.767 79.6713V84.3237H179.86V79.6713C179.86 77.9099 180.529 77.189 181.579 77.189C182.687 77.189 183.234 77.8505 183.234 79.6713L183.212 79.6639Z" fill="#004289"/>
<path d="M87.758 94.0817C85.7009 93.3236 85.3269 92.8257 85.3269 91.9487C85.3269 91.0717 85.9167 90.3954 87.3192 90.3954C88.3478 90.3954 89.0383 90.7373 89.7791 91.3764L90.5128 90.4549C89.6497 89.7488 88.765 89.3252 87.3912 89.3252C85.4707 89.3252 84.1832 90.3211 84.1832 92.0304C84.1832 93.5614 84.9313 94.2972 87.1466 95.1147C89.0239 95.8208 89.5921 96.3707 89.5921 97.3592C89.5921 98.474 88.7434 99.1726 87.3768 99.1726C86.3194 99.1726 85.4276 98.6672 84.6507 97.9017L83.8955 98.7787C84.7011 99.6259 85.9454 100.243 87.3408 100.243C89.477 100.243 90.7286 98.9571 90.7286 97.2923C90.7286 95.6275 90.0309 94.9289 87.7652 94.0817H87.758Z" fill="#004289"/>
<path d="M95.3967 92.9523C96.1736 92.9523 96.6842 93.2347 97.2381 93.755L97.8998 92.9077C97.2956 92.3578 96.4972 91.9639 95.4687 91.9639C93.8575 91.9639 92.1528 93.205 92.1528 96.1406C92.1528 98.9128 93.6993 100.236 95.3895 100.236C96.4684 100.236 97.2165 99.8121 97.8638 99.1283L97.2021 98.4074C96.677 98.9351 96.1807 99.2472 95.4327 99.2472C94.0733 99.2472 93.2605 97.9912 93.2605 96.0366C93.2605 94.082 94.1884 92.9375 95.3895 92.9375L95.3967 92.9523Z" fill="#004289"/>
<path d="M102.597 91.9707C101.633 91.9707 100.906 92.4389 100.468 93.1078V89.377H99.3743V100.094H100.468V95.4415C100.468 93.7024 101.309 92.9592 102.374 92.9592C103.611 92.9592 104.193 93.7247 104.193 95.4415V100.094H105.294V95.2408C105.294 92.9592 104.222 91.9707 102.597 91.9707Z" fill="#004289"/>
<path d="M110.199 91.9707C108.329 91.9707 106.84 93.4199 106.84 96.1178C106.84 98.8156 108.271 100.25 110.142 100.25C112.012 100.25 113.515 98.7561 113.515 96.0583C113.515 93.3605 112.069 91.9707 110.199 91.9707ZM110.177 99.2615C108.84 99.2615 107.941 98.1764 107.941 96.088C107.941 93.9996 108.84 92.9592 110.177 92.9592C111.515 92.9592 112.414 93.9996 112.414 96.088C112.414 98.1764 111.508 99.2615 110.177 99.2615Z" fill="#004289"/>
<path d="M116.27 89.3701H115.169V100.087H116.27V89.3701Z" fill="#004289"/>
<path d="M121.298 91.9707C120.298 91.9707 119.392 92.2308 118.723 92.6099L119.133 93.5389C119.766 93.1598 120.427 92.9294 121.233 92.9294C122.355 92.9294 122.902 93.5091 122.902 94.6834V95.6272C122.448 95.3671 121.758 95.1665 120.988 95.1665C119.463 95.1665 118.039 95.9245 118.039 97.7156C118.039 99.6331 119.298 100.25 120.499 100.25C121.6 100.25 122.355 99.7223 122.902 99.1203V100.094H124.002V94.557C124.002 92.699 122.959 91.9781 121.305 91.9781L121.298 91.9707ZM122.894 98.1318C122.434 98.7858 121.672 99.3209 120.686 99.3209C119.751 99.3209 119.118 98.8081 119.118 97.6265C119.118 96.6231 119.794 96.0732 120.924 96.0732C121.859 96.0732 122.398 96.2367 122.894 96.5265V98.1318Z" fill="#004289"/>
<path d="M127.188 93.1229V92.127H126.088V100.079H127.188V95.4119C127.188 93.9032 127.778 93.004 128.857 93.004C129.375 93.004 129.706 93.1229 130.015 93.3087L130.296 92.1567C130.029 92.0378 129.67 91.9561 129.094 91.9561C128.274 91.9561 127.534 92.4689 127.196 93.1154L127.188 93.1229Z" fill="#004289"/>
<path d="M134.51 95.4637C133.209 94.8543 132.813 94.5793 132.813 93.9179C132.813 93.3456 133.28 92.9369 134.086 92.9369C134.892 92.9369 135.409 93.1673 136.006 93.6503L136.618 92.8179C136.028 92.32 135.215 91.9707 134.158 91.9707C132.763 91.9707 131.748 92.7882 131.748 93.9996C131.748 95.2111 132.396 95.7536 133.935 96.4299C135.294 97.0319 135.748 97.4035 135.748 98.0501C135.748 98.8304 135.251 99.2764 134.201 99.2764C133.431 99.2764 132.719 98.9568 132.101 98.3994L131.461 99.2318C132.194 99.8412 133.115 100.243 134.172 100.243C135.503 100.243 136.805 99.5588 136.805 98.0055C136.805 96.5785 135.956 96.1475 134.503 95.4637H134.51Z" fill="#004289"/>
<path d="M141.825 91.9707C140.847 91.9707 140.135 92.4389 139.696 93.1078V89.377H138.596V100.094H139.696V95.4415C139.696 93.7024 140.531 92.9592 141.602 92.9592C142.832 92.9592 143.415 93.7247 143.415 95.4415V100.094H144.516V95.2408C144.516 92.9592 143.451 91.9707 141.825 91.9707Z" fill="#004289"/>
<path d="M147.781 92.127H146.688V100.079H147.781V92.127Z" fill="#004289"/>
<path d="M147.256 89.0947C146.81 89.0947 146.458 89.4589 146.458 89.9197C146.458 90.3805 146.81 90.7223 147.256 90.7223C147.666 90.7223 148.018 90.3507 148.018 89.9197C148.018 89.4589 147.666 89.0947 147.256 89.0947Z" fill="#004289"/>
<path d="M153.413 91.9707C152.377 91.9707 151.643 92.5058 151.097 93.1078V92.1342H149.996V103.007H151.097V99.1946C151.636 99.8263 152.298 100.25 153.269 100.25C154.873 100.25 156.168 98.7933 156.168 95.984C156.168 93.1747 154.945 91.9707 153.413 91.9707ZM153.176 99.2615C152.269 99.2615 151.521 98.7338 151.097 98.0649V94.0963C151.636 93.4051 152.312 92.9517 153.132 92.9517C154.355 92.9517 155.089 93.9922 155.089 95.9914C155.089 98.1244 154.456 99.2541 153.183 99.2541L153.176 99.2615Z" fill="#004289"/>
<path d="M161.987 90.5585H166.863V89.4883H160.843V100.086H161.987V95.144H164.799V94.0738H161.987V90.5585Z" fill="#004289"/>
<path d="M170.201 91.9707C168.331 91.9707 166.834 93.4199 166.834 96.1178C166.834 98.8156 168.273 100.25 170.143 100.25C172.013 100.25 173.516 98.7561 173.516 96.0583C173.516 93.3605 172.085 91.9707 170.201 91.9707ZM170.179 99.2615C168.841 99.2615 167.957 98.1764 167.957 96.088C167.957 93.9996 168.848 92.9592 170.179 92.9592C171.51 92.9592 172.423 93.9996 172.423 96.088C172.423 98.1764 171.517 99.2615 170.179 99.2615Z" fill="#004289"/>
<path d="M179.58 96.7794C179.58 98.5185 178.753 99.2617 177.681 99.2617C176.451 99.2617 175.861 98.4962 175.861 96.7794V92.127H174.768V96.9726C174.768 99.2542 175.84 100.243 177.465 100.243C178.422 100.243 179.141 99.7819 179.58 99.113V100.087H180.688V92.1344H179.58V96.7868V96.7794Z" fill="#004289"/>
<path d="M185.751 91.9713C184.787 91.9713 184.068 92.4395 183.629 93.1084V92.1348H182.529V100.087H183.629V95.4346C183.629 93.6955 184.464 92.9523 185.535 92.9523C186.765 92.9523 187.348 93.7178 187.348 95.4346V100.087H188.448V95.2339C188.448 92.9523 187.377 91.9639 185.751 91.9639V91.9713Z" fill="#004289"/>
<path d="M195.059 93.0341C194.512 92.3949 193.857 91.9639 192.886 91.9639C191.275 91.9639 189.988 93.4131 189.988 96.2373C189.988 99.0614 191.203 100.243 192.743 100.243C193.786 100.243 194.512 99.7155 195.051 99.1135V100.087H196.152V89.3701H195.051V93.0341H195.059ZM195.059 98.1176C194.512 98.8088 193.843 99.2621 193.023 99.2621C191.808 99.2621 191.074 98.2216 191.074 96.2224C191.074 94.082 191.7 92.9523 192.98 92.9523C193.886 92.9523 194.627 93.48 195.059 94.1489V98.1101V98.1176Z" fill="#004289"/>
<path d="M200.813 91.9707C199.82 91.9707 198.914 92.2308 198.238 92.6099L198.641 93.5389C199.273 93.1598 199.935 92.9294 200.741 92.9294C201.863 92.9294 202.402 93.5091 202.402 94.6834V95.6272C201.949 95.3671 201.259 95.1665 200.482 95.1665C198.964 95.1665 197.54 95.9245 197.54 97.7156C197.54 99.6331 198.806 100.25 200.007 100.25C201.108 100.25 201.863 99.7223 202.402 99.1203V100.094H203.503V94.557C203.503 92.699 202.467 91.9781 200.806 91.9781L200.813 91.9707ZM202.409 98.1318C201.942 98.7858 201.201 99.3209 200.194 99.3209C199.266 99.3209 198.641 98.8081 198.641 97.6265C198.641 96.6231 199.309 96.0732 200.439 96.0732C201.374 96.0732 201.92 96.2367 202.409 96.5265V98.1318Z" fill="#004289"/>
<path d="M207.013 89.3701H205.905V92.1274H204.956V93.0861H205.905V98.4446C205.905 99.76 206.423 100.236 207.38 100.236C207.955 100.236 208.365 100.147 208.789 99.9681L208.868 98.9871C208.516 99.1358 208.228 99.2101 207.782 99.2101C207.2 99.2101 207.013 98.9648 207.013 98.2588V93.0861H208.919V92.1274H207.013V89.3701Z" fill="#004289"/>
<path d="M211.415 89.0947C210.962 89.0947 210.602 89.4589 210.602 89.9197C210.602 90.3805 210.962 90.7223 211.415 90.7223C211.825 90.7223 212.17 90.3507 212.17 89.9197C212.17 89.4589 211.818 89.0947 211.415 89.0947Z" fill="#004289"/>
<path d="M211.94 92.127H210.839V100.079H211.94V92.127Z" fill="#004289"/>
<path d="M216.96 91.9707C215.09 91.9707 213.594 93.4199 213.594 96.1178C213.594 98.8156 215.026 100.25 216.903 100.25C218.78 100.25 220.269 98.7561 220.269 96.0583C220.269 93.3605 218.831 91.9707 216.96 91.9707ZM216.932 99.2615C215.601 99.2615 214.702 98.1764 214.702 96.088C214.702 93.9996 215.601 92.9592 216.932 92.9592C218.262 92.9592 219.176 93.9996 219.176 96.088C219.176 98.1764 218.269 99.2615 216.932 99.2615Z" fill="#004289"/>
<path d="M225.081 91.9713C224.117 91.9713 223.398 92.4395 222.952 93.1084V92.1348H221.852V100.087H222.952V95.4346C222.952 93.6955 223.786 92.9523 224.858 92.9523C226.088 92.9523 226.678 93.7178 226.678 95.4346V100.087H227.771V95.2339C227.771 92.9523 226.699 91.9639 225.081 91.9639V91.9713Z" fill="#004289"/>
<path d="M126.21 52.8555C121.794 52.8629 118.154 56.4303 118.154 60.9043C118.154 65.3784 121.794 68.9086 126.21 68.9234C130.67 68.9086 134.273 65.3338 134.273 60.9043C134.273 56.4748 130.67 52.8629 126.21 52.8555ZM126.102 65.252C123.793 65.252 122.053 63.3048 122.053 60.9043C122.053 58.5038 123.916 56.5194 126.217 56.5194C128.519 56.5194 130.317 58.4666 130.317 60.9043C130.317 63.342 128.433 65.252 126.109 65.252H126.102Z" fill="#004289"/>
<path d="M89.2468 47.3192C90.4768 48.5752 91.8866 49.6752 93.2747 50.3812L93.4186 50.463L95.7994 47.557L95.5692 47.4233C93.3107 46.1598 91.5413 44.5619 90.3833 42.5479C89.2325 40.5635 88.6427 38.2596 88.6427 35.5023V32.916H84.3846V35.2274C84.3846 38.215 83.73 40.5635 82.5001 42.6222C81.1263 44.9038 79.0908 46.7395 76.487 48.4414L76.2568 48.5901L78.839 51.3548L78.9829 51.273C80.5221 50.4109 82.1548 49.0806 83.5718 47.5942C84.8018 46.2936 85.8663 44.9038 86.5136 43.5884C87.1394 44.8815 88.096 46.197 89.2468 47.3267V47.3192Z" fill="#004289"/>
<path d="M84.6362 67.0208H102.46V54.4385H84.6362V67.0208ZM88.6426 57.991H98.4534V63.4684H88.6426V57.991Z" fill="#004289"/>
<path d="M144.062 67.0208H164.216V54.4385H144.062V67.0208ZM148.025 57.991H160.26V63.4684H148.025V57.991Z" fill="#004289"/>
<path d="M102.532 32.1729H98.5686V52.9973H102.532V43.7816H107.171V40.0805H102.532V32.1729Z" fill="#004289"/>
<path d="M184.701 48.3815C186.003 49.5483 187.492 50.5294 188.894 51.1611L189.038 51.228L191.182 48.2329L190.951 48.114C188.909 47.0363 187.089 45.6986 185.78 44.0635C184.449 42.3988 183.658 40.3921 183.658 37.9767V37.2707H189.556V33.6885H173.545V37.2707H179.436V38.1328C179.436 40.3327 178.731 42.3839 177.559 44.1602C176.185 46.2931 174.178 48.0099 172.229 49.1247L171.97 49.2659L174.602 52.0827L174.746 52.0083C176.163 51.176 177.731 49.9199 179.069 48.5079C180.141 47.3485 181.105 46.1222 181.694 44.8959C182.407 46.085 183.5 47.2742 184.708 48.3815H184.701Z" fill="#004289"/>
<path d="M213.364 58.073H227.771V67.0137H231.77V54.5205H213.364V58.073Z" fill="#004289"/>
<path d="M223.304 43.7517C223.304 41.7823 222.449 39.9689 221.183 38.5865H225.139V35.0414H217.586V31.1396H213.292V35.0414H205.56V38.5865H209.602C208.365 39.9689 207.509 41.7674 207.509 43.7517C207.509 48.1441 211.012 51.7114 215.392 51.7263C219.773 51.7114 223.297 48.1441 223.304 43.7517ZM211.329 43.5882C211.329 41.158 213.314 39.0993 215.392 39.0993C217.471 39.0993 219.449 41.1654 219.456 43.5882C219.456 45.9813 217.471 48.0474 215.392 48.0549C213.307 48.0474 211.336 45.9813 211.329 43.5882Z" fill="#004289"/>
<path d="M231.77 32.1729H227.814V53.0716H231.77V45.0971H236.424V41.396H231.77V32.1729Z" fill="#004289"/>
<path d="M198.202 32.1729H194.246V53.0716H198.202V43.7816H202.848V40.0805H198.202V32.1729Z" fill="#004289"/>
<path d="M131.051 38.3711H124.822V42.0351H131.051V53.7331H135.014V32.1729H131.051V38.3711Z" fill="#004289"/>
<path d="M120.988 47.8618C122.225 49.1103 123.671 50.2103 125.052 50.9535L125.203 51.0426L127.584 48.1367L127.354 48.003C125.095 46.7767 123.362 45.1862 122.196 43.2019C121.017 41.2324 120.427 38.8393 120.427 36.082V32.916H116.162V35.8145C116.162 38.8022 115.514 41.1432 114.313 43.1647C112.947 45.4835 110.868 47.3341 108.264 49.0211L108.041 49.1698L110.638 51.9419L110.767 51.8527C112.299 50.9832 113.896 49.7272 115.313 48.2928C116.593 46.9774 117.658 45.543 118.305 44.1681C118.917 45.4241 119.852 46.7024 120.988 47.8692V47.8618Z" fill="#004289"/>
<path d="M189.707 52.8555C185.291 52.8629 181.651 56.4303 181.644 60.9043C181.651 65.3338 185.284 68.9086 189.707 68.9234C194.159 68.9086 197.77 65.3338 197.77 60.9043C197.77 56.4748 194.159 52.8629 189.707 52.8555ZM189.592 65.252C187.29 65.252 185.535 63.3048 185.535 60.9043C185.535 58.5038 187.391 56.5194 189.707 56.5194C192.023 56.5194 193.8 58.4666 193.807 60.9043C193.807 63.2974 191.915 65.252 189.592 65.252Z" fill="#004289"/>
<path d="M148.889 44.1157H152.852V33.4805H142.156V37.0181H148.889V44.1157Z" fill="#004289"/>
<path d="M160.785 44.1157H164.756V33.4805H154.06V37.0181H160.785V44.1157Z" fill="#004289"/>
<path d="M261.807 41.5892H258.476V32.7525H254.729V66.1222H258.476V45.6025H261.807V67.014H265.691V32.1729H261.807V41.5892Z" fill="#004289"/>
<path d="M249.234 46.2048C248.342 44.1907 247.975 41.9388 247.975 39.1741V37.8586H252.47V34.1055H239.408V37.8586H244.048V39.2484C244.048 41.8645 243.717 44.0049 242.919 45.9892C241.991 48.2709 240.43 50.3221 237.941 52.5219L237.769 52.6855L240.228 55.2049L240.38 55.086C241.617 54.1421 242.911 52.7746 243.99 51.3626C244.904 50.1734 245.673 48.9397 246.155 47.8547C246.652 48.91 247.428 50.1214 248.335 51.2511C249.385 52.574 250.572 53.83 251.708 54.5806L251.859 54.6847L253.931 52.1281L253.765 51.972C251.535 49.9653 250.154 48.1742 249.248 46.1973L249.234 46.2048Z" fill="#004289"/>
<path d="M138.841 49.0658H151.996V53.0345H156.29V49.0658H169.654V45.5059H138.841V49.0658Z" fill="#004289"/>
<path d="M288.254 47.9282H274.862V37.397H285.061V33.6885H270.848V51.5253H288.254V47.9282Z" fill="#004289"/>
<path d="M280.68 55.9102H276.674V67.0136H295.411V63.357H280.68V55.9102Z" fill="#004289"/>
<path d="M295.317 41.8192V32.165H291.361V57.8723H295.317V45.5203H300V41.8192H295.317Z" fill="#004289"/>
<path d="M84.018 21.419L73.754 17.0267L84.018 12.6344L82.191 8.09344L71.9342 12.4858L76.1851 1.88029L71.7832 0L67.5395 10.6055L63.2886 0L58.8867 1.88029L63.1376 12.4858L52.8808 8.09344L51.061 12.6344L61.3178 17.0267L51.061 21.419L52.8808 25.96L63.1376 21.5676L58.8867 32.1731L63.2886 34.0534L67.5395 23.4554L71.7832 34.0534L76.1851 32.1657L71.9342 21.5676L82.191 25.96L84.018 21.419Z" fill="#009FE3"/>
<path d="M17.6077 51.0055H24.4335V32.1729H1.09326V38.5198H17.6077V51.0055Z" fill="#009FE3"/>
<path d="M44.2351 51.0055H51.061V32.1729H27.7207V38.5198H44.2351V51.0055Z" fill="#009FE3"/>
<path d="M0 60.7493H44.2351V70.448H51.0609V54.4023H0V60.7493Z" fill="#009FE3"/>
<path d="M16.5144 100.086H51.0609V73.71H16.5144V100.086ZM23.3331 80.0643H44.235V93.7466H23.3331V80.0643Z" fill="#009FE3"/>
</svg>
