<svg width="148" height="58" viewBox="0 0 148 58" fill="none" xmlns="http://www.w3.org/2000/svg">
<g clip-path="url(#clip0_24_1240)">
<path d="M30.4694 37.3223C27.7751 37.3259 25.5571 39.4688 25.5571 42.1502C25.5571 44.8315 27.7751 46.9528 30.4694 46.96C33.1887 46.9492 35.3889 44.8063 35.3889 42.1502C35.3889 39.4941 33.1887 37.3259 30.4694 37.3223ZM30.4019 44.7593C28.9943 44.7593 27.9279 43.5884 27.9279 42.1538C27.9279 40.7192 29.0654 39.523 30.4659 39.523C31.8664 39.523 32.9647 40.6902 32.9647 42.1538C32.9647 43.6173 31.813 44.7593 30.3983 44.7593H30.4019Z" fill="white"/>
<path d="M7.91963 33.9982C8.67319 34.7535 9.53338 35.4111 10.3758 35.8376L10.4647 35.8845L11.9149 34.1391L11.7763 34.0596C10.3971 33.3007 9.31656 32.3431 8.61276 31.1325C7.91252 29.9436 7.55351 28.5559 7.55351 26.9045V25.3506H4.9587V26.7382C4.9587 28.5306 4.55704 29.94 3.81059 31.1759C2.97172 32.5419 1.73119 33.644 0.142312 34.6631L0.003685 34.7498L1.5819 36.4085L1.66721 36.3579C2.60205 35.8376 3.59732 35.0389 4.46462 34.15C5.21463 33.373 5.86511 32.5346 6.2561 31.7432C6.63644 32.5166 7.22294 33.308 7.92318 33.9873L7.91963 33.9982Z" fill="white"/>
<path d="M5.11497 45.8215H15.9847V38.2725H5.11497V45.8215ZM7.55338 40.4045H13.5357V43.693H7.55338V40.4045Z" fill="white"/>
<path d="M16.0238 24.9053H13.6103V37.4087H16.0238V31.8761H18.8568V29.6537H16.0238V24.9053Z" fill="white"/>
<path d="M77.6665 34.6378C78.4592 35.3388 79.3691 35.9279 80.2222 36.3073L80.3111 36.3507L81.6156 34.5546L81.477 34.486C80.2329 33.8355 79.1203 33.0333 78.3241 32.0576C77.5101 31.0566 77.0267 29.8532 77.0267 28.4005V27.9741H80.6203V25.8203H70.856V27.9741H74.4497V28.4908C74.4497 29.8098 74.016 31.0421 73.3051 32.1082C72.4662 33.3874 71.2399 34.4209 70.0527 35.0859L69.8963 35.1726L71.4994 36.8602L71.5883 36.8168C72.4556 36.3181 73.4082 35.5629 74.2257 34.7173C74.8798 34.0198 75.4663 33.2826 75.8253 32.549C76.2589 33.2609 76.9236 33.9765 77.6665 34.6414V34.6378Z" fill="white"/>
<path d="M95.1477 40.455H103.934V45.8214H106.376V38.3193H95.1477V40.455Z" fill="white"/>
<path d="M101.212 31.8585C101.212 30.6768 100.693 29.5891 99.9179 28.758H102.331V26.6295H97.7247V24.2842H95.1086V26.6295H90.3917V28.758H92.855C92.105 29.5891 91.5789 30.666 91.5789 31.8585C91.5789 34.4929 93.7152 36.6358 96.3882 36.6431C99.0612 36.6358 101.212 34.4929 101.215 31.8585H101.212ZM93.9072 31.7609C93.9072 30.301 95.1193 29.0651 96.3847 29.0651C97.6501 29.0651 98.8586 30.3082 98.8622 31.7609C98.8622 33.1956 97.6501 34.4351 96.3847 34.4387C95.1157 34.4351 93.9072 33.1956 93.9072 31.7609Z" fill="white"/>
<path d="M106.376 24.9053H103.963V37.4521H106.376V32.6639H109.213V30.4451H106.376V24.9053Z" fill="white"/>
<path d="M85.9023 24.9053H83.4853V37.4521H85.9023V31.8761H88.7353V29.6537H85.9023V24.9053Z" fill="white"/>
<path d="M140.831 34.3664H132.662V28.0424H138.886V25.8164H130.217V36.5274H140.831V34.3664Z" fill="white"/>
<path d="M33.4233 28.6274H29.6235V30.8281H33.4233V37.846H35.8403V24.9053H33.4233V28.6274Z" fill="white"/>
<path d="M27.281 34.3227C28.0346 35.078 28.9126 35.7357 29.7585 36.1802L29.851 36.2344L31.3048 34.489L31.1626 34.4059C29.7834 33.6759 28.7242 32.7182 28.0168 31.5257C27.2952 30.344 26.9362 28.9058 26.9362 27.2507V25.3535H24.3343V27.0953C24.3343 28.8877 23.9398 30.2935 23.2075 31.5077C22.3687 32.8989 21.1104 34.0047 19.5179 35.0202L19.3829 35.1069L20.9646 36.7728L21.0428 36.7222C21.9812 36.2019 22.9516 35.4466 23.8154 34.5829C24.5938 33.7915 25.2478 32.9351 25.6388 32.1039C26.0121 32.8556 26.5843 33.6289 27.2739 34.3227H27.281Z" fill="white"/>
<path d="M80.7163 37.3223C78.022 37.3259 75.8039 39.4688 75.8004 42.1502C75.8039 44.8063 78.022 46.9528 80.7163 46.96C83.432 46.9492 85.6358 44.8063 85.6358 42.1502C85.6358 39.4941 83.432 37.3259 80.7163 37.3223ZM80.6452 44.7593C79.2412 44.7593 78.1712 43.5884 78.1712 42.1538C78.1712 40.7192 79.3051 39.523 80.7163 39.523C82.1274 39.523 83.2116 40.6902 83.2151 42.1538C83.2116 43.5884 82.0599 44.7593 80.6452 44.7593Z" fill="white"/>
<path d="M136.213 39.1582H133.768V45.8219H145.199V43.6247H136.213V39.1582Z" fill="white"/>
<path d="M145.142 30.7017V24.9053H142.729V40.3322H145.142V32.9169H148V30.7017H145.142Z" fill="white"/>
<path d="M124.696 30.5571H122.663V25.2594H120.381V45.283H122.663V32.9675H124.696V45.8214H127.067V24.9053H124.696V30.5571Z" fill="white"/>
<path d="M117.026 33.3326C116.482 32.122 116.258 30.7741 116.258 29.1118V28.3204H118.999V26.0654H111.029V28.3204H113.859V29.1515C113.859 30.7235 113.656 32.0064 113.166 33.1989C112.6 34.5649 111.648 35.8008 110.13 37.1161L110.023 37.2173L111.523 38.7279L111.616 38.6556C112.369 38.0882 113.158 37.2679 113.82 36.4223C114.374 35.7068 114.843 34.9696 115.142 34.3191C115.444 34.9515 115.917 35.6779 116.468 36.3573C117.111 37.1523 117.833 37.9075 118.526 38.3556L118.622 38.4207L119.884 36.8849L119.784 36.7909C118.426 35.5875 117.584 34.5143 117.029 33.329L117.026 33.3326Z" fill="white"/>
<path d="M6.86735 53.0382C5.70858 52.619 5.49175 52.3371 5.49175 51.8529C5.49175 51.3687 5.82588 50.9856 6.61854 50.9856C7.19792 50.9856 7.58892 51.1771 8.00836 51.5313L8.42068 51.0145C7.93371 50.6206 7.43608 50.3857 6.66119 50.3857C5.57706 50.3857 4.84482 50.9459 4.84482 51.8927C4.84482 52.7419 5.27137 53.1502 6.51901 53.6092C7.57826 53.9958 7.90172 54.3102 7.90172 54.8523C7.90172 55.4775 7.42186 55.8605 6.65053 55.8605C6.05336 55.8605 5.54862 55.5823 5.11141 55.1558L4.68132 55.6437C5.1363 56.1099 5.84365 56.4568 6.6292 56.4568C7.83774 56.4568 8.54865 55.7413 8.54865 54.8198C8.54865 53.8983 8.15409 53.5044 6.87091 53.031L6.86735 53.0382Z" fill="white"/>
<path d="M11.1754 51.8633C10.6103 51.8633 10.0949 52.0042 9.71453 52.2138L9.94913 52.727C10.3046 52.5174 10.6778 52.3873 11.1328 52.3873C11.7655 52.3873 12.0783 52.7053 12.0783 53.3666V53.8906C11.8224 53.746 11.4314 53.634 10.9906 53.634C10.1304 53.634 9.32709 54.0568 9.32709 55.0506C9.32709 56.1166 10.0415 56.4599 10.7169 56.4599C11.339 56.4599 11.7655 56.1672 12.0747 55.8311V56.3696H12.6932V53.2907C12.6932 52.2644 12.1067 51.8633 11.1754 51.8633ZM12.0747 55.2855C11.8117 55.6541 11.3852 55.9504 10.8235 55.9504C10.2939 55.9504 9.93491 55.6613 9.93491 55.0036C9.93491 54.4507 10.3188 54.1327 10.9551 54.1327C11.4847 54.1327 11.7904 54.2303 12.0712 54.3893V55.2818L12.0747 55.2855Z" fill="white"/>
<path d="M18.9314 53.7858V56.3696H19.5535V53.6774C19.5535 52.3873 19.0025 51.8633 18.1139 51.8633C17.4101 51.8633 17.0546 52.1957 16.7987 52.6185C16.5925 52.1957 16.2193 51.8633 15.6079 51.8633C15.0925 51.8633 14.7264 52.1126 14.506 52.4957V51.9572H13.8804V56.3732H14.506V53.7894C14.506 52.8101 14.8793 52.4089 15.4764 52.4089C16.0736 52.4089 16.4113 52.7775 16.4113 53.7894V56.3732H17.0333V53.7894C17.0333 52.8101 17.4101 52.4089 18.0001 52.4089C18.6293 52.4089 18.935 52.7775 18.935 53.7894L18.9314 53.7858Z" fill="white"/>
<path d="M22.0416 53.8075C21.3059 53.4678 21.0855 53.3196 21.0855 52.9474C21.0855 52.6294 21.3485 52.3981 21.807 52.3981C22.2656 52.3981 22.5499 52.5246 22.8876 52.7956L23.236 52.3294C22.9054 52.0512 22.4433 51.8633 21.8426 51.8633C21.057 51.8633 20.4883 52.315 20.4883 52.9871C20.4883 53.6954 20.8509 53.9628 21.7217 54.3423C22.4895 54.6784 22.749 54.8807 22.749 55.2421C22.749 55.6721 22.4682 55.9251 21.871 55.9251C21.4409 55.9251 21.0357 55.7444 20.6874 55.4372L20.3213 55.8998C20.7371 56.2395 21.2561 56.4635 21.8533 56.4635C22.6068 56.4635 23.3426 56.0877 23.3426 55.2204C23.3426 54.429 22.8627 54.1869 22.0416 53.8111V53.8075Z" fill="white"/>
<path d="M26.9718 54.534C26.9718 55.5025 26.4955 55.9108 25.8983 55.9108C25.1981 55.9108 24.8675 55.4844 24.8675 54.534V51.9538H24.249V54.6424C24.249 55.9108 24.8497 56.4565 25.7668 56.4565C26.3177 56.4565 26.7194 56.1963 26.9682 55.8277V56.3661H27.5903V51.9502H26.9682V54.5304L26.9718 54.534Z" fill="white"/>
<path d="M31.9801 56.3696V53.6774C31.9801 52.4053 31.3758 51.8633 30.4552 51.8633C29.9114 51.8633 29.5062 52.1199 29.2609 52.4957V51.9572H28.6353V56.3732H29.2609V53.7894C29.2609 52.8245 29.7265 52.4089 30.3344 52.4089C31.0275 52.4089 31.3616 52.839 31.3616 53.7894V56.3732H31.9837L31.9801 56.3696Z" fill="white"/>
<path d="M33.9351 57.5151L34.1342 57.9957C35.7479 57.9415 36.3344 57.3055 36.3344 55.9757V51.9536H35.7159V52.4487C35.4102 52.0946 35.0406 51.8633 34.4932 51.8633C33.5797 51.8633 32.851 52.6655 32.851 54.2339C32.851 55.8022 33.5406 56.4599 34.4114 56.4599C34.9979 56.4599 35.4138 56.1672 35.7195 55.8311V56.0588C35.7195 57.0851 35.3889 57.4718 33.9387 57.5151H33.9351ZM34.5643 55.9142C33.8782 55.9142 33.4624 55.3361 33.4624 54.2266C33.4624 53.0377 33.8178 52.4089 34.5394 52.4089C35.0548 52.4089 35.4742 52.7053 35.7124 53.0703V55.2782C35.4067 55.6685 35.0263 55.9142 34.5607 55.9142H34.5643Z" fill="white"/>
<path d="M43.184 53.3849C43.184 51.3648 42.0643 50.4795 40.543 50.4795H39.011V56.3698H40.4257C41.9755 56.3698 43.184 55.5206 43.184 53.3813V53.3849ZM39.6579 51.0758H40.4932C41.8262 51.0758 42.5371 51.9033 42.5371 53.4066C42.5371 55.1014 41.7586 55.7736 40.5074 55.7736H39.6543V51.0758H39.6579Z" fill="white"/>
<path d="M44.8404 52.5035V51.9578H44.2184V56.3738H44.8404V53.7827C44.8404 52.9371 45.1781 52.4493 45.7859 52.4493C46.0738 52.4493 46.2658 52.5143 46.4364 52.6155L46.5928 51.9795C46.4471 51.9108 46.2373 51.8711 45.9174 51.8711C45.4518 51.8711 45.0359 52.153 44.844 52.5107L44.8404 52.5035Z" fill="white"/>
<path d="M50.3073 55.9504L50.0194 55.4951C49.6212 55.7661 49.3227 55.9142 48.8144 55.9142C48.107 55.9142 47.6663 55.318 47.6058 54.3784H50.5028C50.5241 54.2736 50.5312 54.1833 50.5312 54.0315C50.5312 52.7703 49.9163 51.8633 48.7824 51.8633C47.748 51.8633 46.9873 52.7342 46.9873 54.1363C46.9873 55.8745 47.9542 56.4599 48.7504 56.4599C49.4044 56.4599 49.7883 56.2828 50.3108 55.9504H50.3073ZM48.7753 52.4053C49.5359 52.4053 49.9021 53.0016 49.9518 53.8617H47.6058C47.6769 52.8751 48.1283 52.4053 48.7753 52.4053Z" fill="white"/>
<path d="M52.5964 56.4599C53.2184 56.4599 53.6485 56.1672 53.9542 55.8311V56.3696H54.5763V53.2907C54.5763 52.2644 53.9898 51.8633 53.0514 51.8633C52.4862 51.8633 51.9744 52.0042 51.594 52.2138L51.8286 52.727C52.1841 52.5174 52.5573 52.3873 53.0123 52.3873C53.6485 52.3873 53.9542 52.7053 53.9542 53.3666V53.8906C53.7019 53.746 53.3109 53.634 52.8772 53.634C52.0135 53.634 51.2066 54.0568 51.2066 55.0506C51.2066 56.1166 51.921 56.4599 52.5964 56.4599ZM52.8381 54.1363C53.3642 54.1363 53.6734 54.2339 53.9542 54.3929V55.2855C53.6912 55.6541 53.2682 55.9504 52.7101 55.9504C52.1521 55.9504 51.8215 55.6613 51.8215 55.0036C51.8215 54.4507 52.2054 54.1327 52.8417 54.1327L52.8381 54.1363Z" fill="white"/>
<path d="M60.8109 53.7858V56.3696H61.4294V53.6774C61.4294 52.3873 60.8785 51.8633 59.9898 51.8633C59.286 51.8633 58.9306 52.1957 58.6746 52.6185C58.4685 52.1957 58.0988 51.8633 57.4839 51.8633C56.9685 51.8633 56.6059 52.1126 56.382 52.4957V51.9572H55.7635V56.3732H56.382V53.7894C56.382 52.8101 56.7552 52.4089 57.3524 52.4089C57.9495 52.4089 58.2872 52.7775 58.2872 53.7894V56.3732H58.9057V53.7894C58.9057 52.8101 59.286 52.4089 59.8761 52.4089C60.5017 52.4089 60.8109 52.7775 60.8109 53.7894V53.7858Z" fill="white"/>
<path d="M66.0752 53.0385C64.9164 52.6193 64.7031 52.3411 64.7031 51.8532C64.7031 51.3654 65.0337 50.9859 65.8264 50.9859C66.4093 50.9859 66.7967 51.1774 67.2162 51.5316L67.6285 51.0184C67.1415 50.6245 66.6439 50.3896 65.869 50.3896C64.7849 50.3896 64.0562 50.9462 64.0562 51.893C64.0562 52.7422 64.4756 53.1541 65.7304 53.6058C66.7896 53.9961 67.1131 54.3069 67.1131 54.8526C67.1131 55.4741 66.6332 55.8608 65.8619 55.8608C65.2647 55.8608 64.76 55.5789 64.3192 55.1525L63.8891 55.6368C64.3441 56.1101 65.0515 56.4534 65.8335 56.4534C67.0385 56.4534 67.7529 55.7379 67.7529 54.8164C67.7529 53.8949 67.3584 53.5011 66.0752 53.0277V53.0385Z" fill="white"/>
<path d="M70.3904 52.4089C70.8276 52.4089 71.1191 52.568 71.4319 52.8571L71.8051 52.3837C71.4638 52.0801 71.016 51.8633 70.4295 51.8633C69.5195 51.8633 68.5598 52.5499 68.5598 54.1869C68.5598 55.7263 69.4306 56.4635 70.3904 56.4635C70.9982 56.4635 71.4212 56.2286 71.7873 55.8492L71.4141 55.4481C71.1191 55.7408 70.8347 55.9179 70.4153 55.9179C69.6439 55.9179 69.1889 55.2204 69.1889 54.1327C69.1889 53.045 69.715 52.4089 70.3939 52.4089H70.3904Z" fill="white"/>
<path d="M74.4639 51.8635C73.92 51.8635 73.5113 52.12 73.2624 52.4959V50.418H72.6439V56.3734H73.2624V53.7896C73.2624 52.8211 73.7387 52.4091 74.3395 52.4091C75.0361 52.4091 75.3632 52.8355 75.3632 53.7896V56.3734H75.9852V53.6775C75.9852 52.4091 75.3809 51.8635 74.4603 51.8635H74.4639Z" fill="white"/>
<path d="M78.7577 51.8633C77.702 51.8633 76.8561 52.6655 76.8561 54.1688C76.8561 55.6721 77.6665 56.4635 78.7257 56.4635C79.785 56.4635 80.631 55.6324 80.631 54.1327C80.631 52.633 79.8134 51.8633 78.7577 51.8633ZM78.7471 55.9179C77.9935 55.9179 77.4852 55.3144 77.4852 54.1508C77.4852 52.9871 77.9935 52.4089 78.7471 52.4089C79.5006 52.4089 80.0089 52.9908 80.0089 54.1508C80.0089 55.3108 79.4971 55.9179 78.7471 55.9179Z" fill="white"/>
<path d="M82.1914 50.418H81.5694V56.3734H82.1914V50.418Z" fill="white"/>
<path d="M85.0279 51.8633C84.4663 51.8633 83.9509 52.0078 83.5741 52.2174L83.8052 52.7342C84.1606 52.521 84.5339 52.3945 84.9888 52.3945C85.6251 52.3945 85.9308 52.7161 85.9308 53.3666V53.8942C85.6749 53.746 85.2839 53.6376 84.8502 53.6376C83.9865 53.6376 83.1831 54.0604 83.1831 55.0542C83.1831 56.1238 83.894 56.4635 84.5729 56.4635C85.195 56.4635 85.6251 56.1744 85.9308 55.8347V56.3732H86.5528V53.2943C86.5528 52.2644 85.9663 51.8633 85.0279 51.8633ZM85.9308 55.2855C85.6677 55.6541 85.2412 55.9504 84.6831 55.9504C84.1571 55.9504 83.7981 55.6613 83.7981 55.0072C83.7981 54.4507 84.182 54.1399 84.8182 54.1399C85.3478 54.1399 85.6535 54.2339 85.9343 54.3929V55.2855H85.9308Z" fill="white"/>
<path d="M88.3585 52.5029V51.9536H87.7365V56.3732H88.3585V53.7822C88.3585 52.9402 88.6962 52.4451 89.3005 52.4451C89.5919 52.4451 89.7803 52.5101 89.9545 52.6113L90.1109 51.9717C89.9652 51.9066 89.7555 51.8633 89.4355 51.8633C88.9699 51.8633 88.554 52.1451 88.3585 52.5029Z" fill="white"/>
<path d="M92.496 53.8081C91.7567 53.4685 91.5363 53.3167 91.5363 52.9445C91.5363 52.6265 91.8029 52.3952 92.2578 52.3952C92.7128 52.3952 93.0043 52.5253 93.342 52.7927L93.6903 52.3301C93.3562 52.0519 92.8977 51.8604 92.3005 51.8604C91.5114 51.8604 90.9427 52.3121 90.9427 52.9878C90.9427 53.6961 91.3088 53.9635 92.1796 54.3394C92.9474 54.6754 93.2069 54.8778 93.2069 55.2392C93.2069 55.6728 92.9225 55.9222 92.3325 55.9222C91.8988 55.9222 91.4936 55.7415 91.1453 55.4343L90.7827 55.8969C91.195 56.2366 91.7176 56.4606 92.3147 56.4606C93.0647 56.4606 93.8041 56.0848 93.8041 55.2175C93.8041 54.4225 93.3242 54.184 92.5031 53.8045L92.496 53.8081Z" fill="white"/>
<path d="M96.6299 51.8635C96.0825 51.8635 95.6773 52.12 95.4285 52.4959V50.418H94.81V56.3734H95.4285V53.7896C95.4285 52.8211 95.9012 52.4091 96.5055 52.4091C97.1986 52.4091 97.5292 52.8355 97.5292 53.7896V56.3734H98.1513V53.6775C98.1513 52.4091 97.547 51.8635 96.6299 51.8635Z" fill="white"/>
<path d="M99.9961 51.9541H99.3776V56.3737H99.9961V51.9541Z" fill="white"/>
<path d="M99.701 50.2627C99.4451 50.2627 99.2461 50.4651 99.2461 50.7216C99.2461 50.9638 99.4451 51.1661 99.701 51.1661C99.9285 51.1661 100.131 50.9638 100.131 50.7216C100.131 50.4651 99.9285 50.2627 99.701 50.2627Z" fill="white"/>
<path d="M103.177 51.8633C102.591 51.8633 102.175 52.156 101.869 52.4957V51.9572H101.251V57.9994H101.869V55.8781C102.175 56.2286 102.548 56.4635 103.096 56.4635C104.006 56.4635 104.734 55.6541 104.734 54.0929C104.734 52.5318 104.045 51.8633 103.177 51.8633ZM103.046 55.9179C102.534 55.9179 102.111 55.6215 101.869 55.2529V53.0486C102.175 52.6655 102.559 52.4089 103.021 52.4089C103.711 52.4089 104.126 52.9908 104.126 54.1002C104.126 55.2855 103.771 55.9179 103.046 55.9179Z" fill="white"/>
<path d="M108.022 51.0797H110.781V50.4834H107.375V56.3737H108.022V53.6273H109.611V53.0347H108.022V51.0797Z" fill="white"/>
<path d="M112.668 51.8633C111.612 51.8633 110.763 52.6655 110.763 54.1688C110.763 55.6721 111.577 56.4635 112.632 56.4635C113.688 56.4635 114.538 55.6324 114.538 54.1327C114.538 52.633 113.727 51.8633 112.668 51.8633ZM112.65 55.9179C111.897 55.9179 111.392 55.3144 111.392 54.1508C111.392 52.9871 111.897 52.4089 112.65 52.4089C113.404 52.4089 113.919 52.9908 113.919 54.1508C113.919 55.3108 113.407 55.9179 112.65 55.9179Z" fill="white"/>
<path d="M117.968 54.5343C117.968 55.5028 117.499 55.9147 116.894 55.9147C116.198 55.9147 115.867 55.4883 115.867 54.5343V51.9541H115.245V54.6463C115.245 55.9183 115.849 56.464 116.77 56.464C117.31 56.464 117.715 56.2074 117.964 55.8352V56.3737H118.586V51.9541H117.964V54.5343H117.968Z" fill="white"/>
<path d="M121.451 51.8633C120.907 51.8633 120.502 52.1199 120.25 52.4957V51.9572H119.628V56.3768H120.25V53.793C120.25 52.8245 120.723 52.4126 121.327 52.4126C122.023 52.4126 122.354 52.839 122.354 53.793V56.3768H122.973V53.681C122.973 52.4126 122.368 51.8669 121.448 51.8669L121.451 51.8633Z" fill="white"/>
<path d="M126.712 52.4525C126.406 52.0983 126.033 51.8635 125.486 51.8635C124.576 51.8635 123.847 52.6657 123.847 54.2377C123.847 55.8096 124.533 56.4637 125.404 56.4637C125.99 56.4637 126.403 56.1746 126.712 55.8349V56.3734H127.334V50.418H126.712V52.4561V52.4525ZM126.712 55.2784C126.406 55.6651 126.022 55.918 125.56 55.918C124.874 55.918 124.458 55.3398 124.458 54.2268C124.458 53.0379 124.814 52.4091 125.535 52.4091C126.051 52.4091 126.467 52.7018 126.712 53.074V55.2784Z" fill="white"/>
<path d="M129.968 51.8633C129.403 51.8633 128.891 52.0078 128.511 52.2174L128.742 52.7342C129.101 52.521 129.474 52.3945 129.925 52.3945C130.561 52.3945 130.867 52.7161 130.867 53.3666V53.8942C130.611 53.746 130.22 53.6376 129.783 53.6376C128.926 53.6376 128.12 54.0604 128.12 55.0542C128.12 56.1238 128.834 56.4635 129.513 56.4635C130.135 56.4635 130.561 56.1744 130.867 55.8347V56.3732H131.489V53.2943C131.489 52.2644 130.903 51.8633 129.968 51.8633ZM130.867 55.2855C130.604 55.6541 130.181 55.9504 129.616 55.9504C129.09 55.9504 128.734 55.6613 128.734 55.0072C128.734 54.4507 129.115 54.1399 129.751 54.1399C130.281 54.1399 130.586 54.2339 130.867 54.3929V55.2855Z" fill="white"/>
<path d="M133.469 50.418H132.847V51.9574H132.31V52.4886H132.847V55.4699C132.847 56.1999 133.138 56.4673 133.679 56.4673C134.006 56.4673 134.237 56.4203 134.479 56.3155L134.521 55.7699C134.322 55.853 134.159 55.8963 133.906 55.8963C133.576 55.8963 133.469 55.7626 133.469 55.3651V52.4886H134.546V51.9574H133.469V50.418Z" fill="white"/>
<path d="M135.954 50.2627C135.698 50.2627 135.495 50.4651 135.495 50.7216C135.495 50.9638 135.698 51.1661 135.954 51.1661C136.188 51.1661 136.387 50.9638 136.387 50.7216C136.387 50.4651 136.188 50.2627 135.954 50.2627Z" fill="white"/>
<path d="M136.249 51.9541H135.63V56.3737H136.249V51.9541Z" fill="white"/>
<path d="M139.092 51.8633C138.037 51.8633 137.191 52.6655 137.191 54.1688C137.191 55.6721 138.001 56.4635 139.06 56.4635C140.12 56.4635 140.962 55.6324 140.962 54.1327C140.962 52.633 140.152 51.8633 139.092 51.8633ZM139.071 55.9179C138.321 55.9179 137.816 55.3144 137.816 54.1508C137.816 52.9871 138.321 52.4089 139.071 52.4089C139.821 52.4089 140.34 52.9908 140.34 54.1508C140.34 55.3108 139.828 55.9179 139.071 55.9179Z" fill="white"/>
<path d="M143.678 51.8633C143.13 51.8633 142.725 52.1199 142.476 52.4957V51.9572H141.854V56.3768H142.476V53.793C142.476 52.8245 142.949 52.4126 143.553 52.4126C144.254 52.4126 144.581 52.839 144.581 53.793V56.3768H145.199V53.681C145.199 52.4126 144.595 51.8669 143.678 51.8669V51.8633Z" fill="white"/>
<path d="M79.5397 9.80399L74.766 7.79477L79.5397 5.78555L78.6902 3.70405L73.9165 5.71327L75.8963 0.860062L73.8489 0L71.8726 4.85321L69.8927 0L67.8489 0.860062L69.8252 5.71327L65.0515 3.70405L64.2055 5.78555L68.9757 7.79477L64.2055 9.80399L65.0515 11.8855L69.8252 9.87265L67.8489 14.7259L69.8963 15.5895L71.8726 10.7363L73.8489 15.5895L75.8963 14.7259L73.9165 9.87265L78.6902 11.8855L79.5397 9.80399Z" fill="#009FE3"/>
<path d="M48.6402 23.3515H51.818V14.7256H40.9589V17.631H48.6402V23.3515Z" fill="#009FE3"/>
<path d="M61.0313 23.3515H64.2055V14.7256H53.3464V17.631H61.0313V23.3515Z" fill="#009FE3"/>
<path d="M40.447 27.8107H61.0313V32.2519H64.2055V24.9053H40.447V27.8107Z" fill="#009FE3"/>
<path d="M48.1283 45.8214H64.2019V33.748H48.1283V45.8214ZM51.3061 36.6535H61.0313V42.916H51.3061V36.6535Z" fill="#009FE3"/>
</g>
<defs>
<clipPath id="clip0_24_1240">
<rect width="148" height="58" fill="white"/>
</clipPath>
</defs>
</svg>
