<svg width="295" height="64" viewBox="0 0 295 64" fill="none" xmlns="http://www.w3.org/2000/svg">
<path d="M7.728 3.44H11.6V4.512H7.728V3.44ZM7.6 6.448H11.504V7.536H7.6V6.448ZM11.376 0.783999H12.704V9.44H11.376V0.783999ZM6.848 1.856H8.256C8.256 3.09333 7.984 4.208 7.44 5.2C6.90667 6.192 6.13333 7.04533 5.12 7.76C4.11733 8.464 2.92267 9.024 1.536 9.44L0.992 8.384C2.21867 8.02133 3.26933 7.552 4.144 6.976C5.01867 6.38933 5.68533 5.71733 6.144 4.96C6.61333 4.192 6.848 3.34933 6.848 2.432V1.856ZM1.728 1.856H7.744V2.944H1.728V1.856ZM8 9.6C8.98133 9.6 9.824 9.712 10.528 9.936C11.2427 10.16 11.7973 10.48 12.192 10.896C12.5867 11.312 12.784 11.808 12.784 12.384C12.784 12.9707 12.5867 13.472 12.192 13.888C11.7973 14.2933 11.2427 14.608 10.528 14.832C9.824 15.0667 8.98133 15.184 8 15.184C7.02933 15.184 6.18133 15.0667 5.456 14.832C4.74133 14.608 4.18667 14.2933 3.792 13.888C3.39733 13.472 3.2 12.9707 3.2 12.384C3.2 11.808 3.39733 11.312 3.792 10.896C4.18667 10.48 4.74133 10.16 5.456 9.936C6.18133 9.712 7.02933 9.6 8 9.6ZM8 10.656C7.296 10.656 6.68267 10.7253 6.16 10.864C5.63733 11.0027 5.232 11.2 4.944 11.456C4.656 11.712 4.512 12.0213 4.512 12.384C4.512 12.7467 4.656 13.056 4.944 13.312C5.232 13.568 5.63733 13.7653 6.16 13.904C6.68267 14.0427 7.296 14.112 8 14.112C8.71467 14.112 9.328 14.0427 9.84 13.904C10.352 13.7653 10.752 13.568 11.04 13.312C11.328 13.056 11.472 12.7467 11.472 12.384C11.472 12.0213 11.328 11.712 11.04 11.456C10.752 11.2 10.352 11.0027 9.84 10.864C9.328 10.7253 8.71467 10.656 8 10.656ZM26.5268 0.768H27.7908V15.248H26.5268V0.768ZM21.2468 5.968H24.0308V7.056H21.2468V5.968ZM23.6308 1.104H24.8788V14.496H23.6308V1.104ZM18.4788 3.024H19.5028V4.864C19.5028 5.65333 19.4281 6.42667 19.2788 7.184C19.1294 7.93067 18.9108 8.63467 18.6228 9.296C18.3348 9.94667 17.9828 10.5387 17.5668 11.072C17.1508 11.5947 16.6814 12.0213 16.1588 12.352L15.3428 11.36C16.0148 10.9547 16.5801 10.4107 17.0388 9.728C17.5081 9.04533 17.8654 8.28267 18.1108 7.44C18.3561 6.59733 18.4788 5.73867 18.4788 4.864V3.024ZM18.7508 3.024H19.7588V4.864C19.7588 5.696 19.8761 6.512 20.1108 7.312C20.3561 8.112 20.7028 8.83733 21.1508 9.488C21.6094 10.128 22.1694 10.64 22.8308 11.024L22.0308 12.016C21.3268 11.5787 20.7294 10.9973 20.2388 10.272C19.7588 9.536 19.3908 8.704 19.1348 7.776C18.8788 6.83733 18.7508 5.86667 18.7508 4.864V3.024ZM15.7428 2.464H22.3508V3.552H15.7428V2.464ZM33.9175 2.24H35.0055V3.424C35.0055 4.29867 34.8348 5.12 34.4935 5.888C34.1628 6.656 33.6935 7.328 33.0855 7.904C32.4775 8.46933 31.7735 8.90133 30.9735 9.2L30.2855 8.144C30.8188 7.952 31.3042 7.696 31.7415 7.376C32.1895 7.056 32.5788 6.688 32.9095 6.272C33.2402 5.84533 33.4908 5.392 33.6615 4.912C33.8322 4.42133 33.9175 3.92533 33.9175 3.424V2.24ZM34.1735 2.24H35.2615V3.408C35.2615 4.02667 35.4055 4.62933 35.6935 5.216C35.9815 5.792 36.3922 6.30933 36.9255 6.768C37.4588 7.216 38.0722 7.568 38.7655 7.824L38.0935 8.864C37.3042 8.576 36.6162 8.16 36.0295 7.616C35.4428 7.072 34.9842 6.43733 34.6535 5.712C34.3335 4.98667 34.1735 4.21867 34.1735 3.408V2.24ZM37.9815 4.544H41.1975V5.648H37.9815V4.544ZM30.7015 1.76H38.4295V2.848H30.7015V1.76ZM32.4775 10.208H42.1415V15.248H40.8135V11.296H32.4775V10.208ZM40.8135 0.768H42.1415V9.424H40.8135V0.768ZM59.0464 0.768H60.3744V15.264H59.0464V0.768ZM52.7424 1.888C53.457 1.888 54.0864 2.096 54.6304 2.512C55.185 2.91733 55.617 3.49867 55.9264 4.256C56.2464 5.01333 56.4064 5.904 56.4064 6.928C56.4064 7.952 56.2464 8.84267 55.9264 9.6C55.617 10.3573 55.185 10.944 54.6304 11.36C54.0864 11.776 53.457 11.984 52.7424 11.984C52.0277 11.984 51.393 11.776 50.8384 11.36C50.2837 10.944 49.8464 10.3573 49.5264 9.6C49.217 8.84267 49.0624 7.952 49.0624 6.928C49.0624 5.904 49.217 5.01333 49.5264 4.256C49.8464 3.49867 50.2837 2.91733 50.8384 2.512C51.393 2.096 52.0277 1.888 52.7424 1.888ZM52.7424 3.072C52.2624 3.072 51.841 3.232 51.4784 3.552C51.1264 3.86133 50.849 4.30933 50.6464 4.896C50.4437 5.472 50.3424 6.14933 50.3424 6.928C50.3424 7.70667 50.4437 8.38933 50.6464 8.976C50.849 9.552 51.1264 10 51.4784 10.32C51.841 10.64 52.2624 10.8 52.7424 10.8C53.2117 10.8 53.6224 10.64 53.9744 10.32C54.337 10 54.6197 9.552 54.8224 8.976C55.025 8.38933 55.1264 7.70667 55.1264 6.928C55.1264 6.14933 55.025 5.472 54.8224 4.896C54.6197 4.30933 54.337 3.86133 53.9744 3.552C53.6224 3.232 53.2117 3.072 52.7424 3.072ZM66.6131 9.728H67.9731V15.248H66.6131V9.728ZM71.5891 9.728H72.9331V15.248H71.5891V9.728ZM63.2371 9.008H76.3571V10.096H63.2371V9.008ZM69.7651 1.344C70.7785 1.344 71.6638 1.47733 72.4211 1.744C73.1785 2 73.7705 2.36267 74.1971 2.832C74.6238 3.30133 74.8371 3.86133 74.8371 4.512C74.8371 5.14133 74.6238 5.696 74.1971 6.176C73.7705 6.64533 73.1785 7.008 72.4211 7.264C71.6638 7.52 70.7785 7.648 69.7651 7.648C68.7731 7.648 67.8931 7.52 67.1251 7.264C66.3678 7.008 65.7758 6.64533 65.3491 6.176C64.9225 5.696 64.7091 5.14133 64.7091 4.512C64.7091 3.86133 64.9225 3.30133 65.3491 2.832C65.7758 2.36267 66.3678 2 67.1251 1.744C67.8931 1.47733 68.7731 1.344 69.7651 1.344ZM69.7651 2.416C69.0398 2.416 68.3945 2.50133 67.8291 2.672C67.2745 2.84267 66.8425 3.088 66.5331 3.408C66.2238 3.71733 66.0691 4.08533 66.0691 4.512C66.0691 4.928 66.2238 5.296 66.5331 5.616C66.8425 5.92533 67.2745 6.16533 67.8291 6.336C68.3945 6.496 69.0398 6.576 69.7651 6.576C70.5118 6.576 71.1625 6.496 71.7171 6.336C72.2718 6.16533 72.7038 5.92533 73.0131 5.616C73.3225 5.296 73.4771 4.928 73.4771 4.512C73.4771 4.08533 73.3225 3.71733 73.0131 3.408C72.7038 3.088 72.2718 2.84267 71.7171 2.672C71.1625 2.50133 70.5118 2.416 69.7651 2.416ZM77.9719 12.352H91.0919V13.456H77.9719V12.352ZM83.8439 9.264H85.1559V12.816H83.8439V9.264ZM79.5719 1.84H89.4599V6.224H80.9159V9.12H79.6039V5.168H88.1479V2.928H79.5719V1.84ZM79.6039 8.56H89.7959V9.648H79.6039V8.56ZM106.781 0.768H108.125V15.248H106.781V0.768ZM100.285 4.208H101.357V5.456C101.357 6.224 101.255 6.97067 101.053 7.696C100.85 8.41067 100.562 9.07733 100.189 9.696C99.8261 10.3147 99.3941 10.8587 98.8928 11.328C98.4021 11.7973 97.8634 12.1707 97.2768 12.448L96.5408 11.424C97.0741 11.1787 97.5648 10.848 98.0128 10.432C98.4714 10.016 98.8661 9.54667 99.1968 9.024C99.5381 8.49067 99.8048 7.92 99.9968 7.312C100.189 6.704 100.285 6.08533 100.285 5.456V4.208ZM100.525 4.208H101.597V5.456C101.597 6.05333 101.693 6.64533 101.885 7.232C102.077 7.808 102.343 8.352 102.685 8.864C103.026 9.36533 103.426 9.81333 103.885 10.208C104.343 10.6027 104.845 10.9227 105.389 11.168L104.653 12.192C104.066 11.9253 103.522 11.568 103.021 11.12C102.519 10.6613 102.082 10.1387 101.709 9.552C101.335 8.95467 101.042 8.30933 100.829 7.616C100.626 6.92267 100.525 6.20267 100.525 5.456V4.208ZM96.9248 3.28H104.893V4.352H96.9248V3.28ZM100.269 1.04H101.597V3.872H100.269V1.04ZM114.828 1.888C115.542 1.888 116.172 2.096 116.716 2.512C117.26 2.91733 117.686 3.49867 117.996 4.256C118.305 5.01333 118.46 5.904 118.46 6.928C118.46 7.952 118.305 8.84267 117.996 9.6C117.686 10.3573 117.26 10.944 116.716 11.36C116.172 11.776 115.542 11.984 114.828 11.984C114.124 11.984 113.494 11.776 112.94 11.36C112.396 10.944 111.969 10.3573 111.66 9.6C111.35 8.84267 111.196 7.952 111.196 6.928C111.196 5.904 111.35 5.01333 111.66 4.256C111.969 3.49867 112.396 2.91733 112.94 2.512C113.494 2.096 114.124 1.888 114.828 1.888ZM114.828 3.072C114.369 3.072 113.958 3.232 113.596 3.552C113.244 3.86133 112.966 4.30933 112.764 4.896C112.561 5.472 112.46 6.14933 112.46 6.928C112.46 7.70667 112.561 8.38933 112.764 8.976C112.966 9.552 113.244 10 113.596 10.32C113.958 10.64 114.374 10.8 114.844 10.8C115.302 10.8 115.708 10.64 116.06 10.32C116.422 10 116.7 9.552 116.892 8.976C117.094 8.38933 117.196 7.70667 117.196 6.928C117.196 6.14933 117.094 5.472 116.892 4.896C116.7 4.30933 116.422 3.86133 116.06 3.552C115.708 3.232 115.297 3.072 114.828 3.072ZM120.78 0.768H122.108V15.248H120.78V0.768ZM121.804 6.544H124.476V7.664H121.804V6.544ZM127.066 2.224H136.362V3.312H127.066V2.224ZM125.706 12.112H138.778V13.216H125.706V12.112ZM128.906 7.344H130.234V12.512H128.906V7.344ZM135.93 2.224H137.258V3.808C137.258 4.416 137.248 5.04533 137.226 5.696C137.216 6.34667 137.173 7.04533 137.098 7.792C137.034 8.528 136.917 9.344 136.746 10.24L135.434 10.096C135.68 8.80533 135.824 7.664 135.866 6.672C135.909 5.66933 135.93 4.71467 135.93 3.808V2.224ZM132.49 7.344H133.802V12.512H132.49V7.344ZM148.153 4.528H151.401V5.632H148.153V4.528ZM151.001 0.768H152.329V9.392H151.001V0.768ZM147.561 9.84C148.564 9.84 149.422 9.94667 150.137 10.16C150.862 10.3733 151.417 10.6827 151.801 11.088C152.185 11.4827 152.377 11.968 152.377 12.544C152.377 13.3973 151.945 14.0587 151.081 14.528C150.228 14.9973 149.054 15.232 147.561 15.232C146.068 15.232 144.889 14.9973 144.025 14.528C143.172 14.0587 142.745 13.3973 142.745 12.544C142.745 11.968 142.937 11.4827 143.321 11.088C143.716 10.6827 144.27 10.3733 144.985 10.16C145.71 9.94667 146.569 9.84 147.561 9.84ZM147.561 10.88C146.836 10.88 146.212 10.944 145.689 11.072C145.166 11.2 144.761 11.3867 144.473 11.632C144.196 11.8773 144.057 12.1813 144.057 12.544C144.057 12.8853 144.196 13.1787 144.473 13.424C144.761 13.6693 145.166 13.8613 145.689 14C146.212 14.128 146.836 14.192 147.561 14.192C148.297 14.192 148.921 14.128 149.433 14C149.956 13.8613 150.356 13.6693 150.633 13.424C150.921 13.1787 151.065 12.8853 151.065 12.544C151.065 12.1813 150.921 11.8773 150.633 11.632C150.356 11.3867 149.956 11.2 149.433 11.072C148.921 10.944 148.297 10.88 147.561 10.88ZM144.105 2.24H145.193V3.408C145.193 4.29333 145.022 5.12533 144.681 5.904C144.35 6.672 143.881 7.34933 143.273 7.936C142.665 8.512 141.961 8.95467 141.161 9.264L140.473 8.208C141.017 8.016 141.508 7.75467 141.945 7.424C142.393 7.09333 142.777 6.71467 143.097 6.288C143.428 5.86133 143.678 5.40267 143.849 4.912C144.02 4.42133 144.105 3.92 144.105 3.408V2.24ZM144.361 2.24H145.449V3.392C145.449 4.01067 145.593 4.61333 145.881 5.2C146.169 5.78667 146.58 6.304 147.113 6.752C147.646 7.2 148.26 7.552 148.953 7.808L148.281 8.864C147.492 8.576 146.804 8.16 146.217 7.616C145.63 7.06133 145.172 6.42133 144.841 5.696C144.521 4.97067 144.361 4.20267 144.361 3.392V2.24ZM140.889 1.824H148.617V2.912H140.889V1.824ZM165.656 0.768H166.984V15.264H165.656V0.768ZM159.352 1.888C160.066 1.888 160.696 2.096 161.24 2.512C161.794 2.91733 162.226 3.49867 162.536 4.256C162.856 5.01333 163.016 5.904 163.016 6.928C163.016 7.952 162.856 8.84267 162.536 9.6C162.226 10.3573 161.794 10.944 161.24 11.36C160.696 11.776 160.066 11.984 159.352 11.984C158.637 11.984 158.002 11.776 157.448 11.36C156.893 10.944 156.456 10.3573 156.136 9.6C155.826 8.84267 155.672 7.952 155.672 6.928C155.672 5.904 155.826 5.01333 156.136 4.256C156.456 3.49867 156.893 2.91733 157.448 2.512C158.002 2.096 158.637 1.888 159.352 1.888ZM159.352 3.072C158.872 3.072 158.45 3.232 158.088 3.552C157.736 3.86133 157.458 4.30933 157.256 4.896C157.053 5.472 156.952 6.14933 156.952 6.928C156.952 7.70667 157.053 8.38933 157.256 8.976C157.458 9.552 157.736 10 158.088 10.32C158.45 10.64 158.872 10.8 159.352 10.8C159.821 10.8 160.232 10.64 160.584 10.32C160.946 10 161.229 9.552 161.432 8.976C161.634 8.38933 161.736 7.70667 161.736 6.928C161.736 6.14933 161.634 5.472 161.432 4.896C161.229 4.30933 160.946 3.86133 160.584 3.552C160.232 3.232 159.821 3.072 159.352 3.072ZM177.297 1.888C178.001 1.888 178.625 2.096 179.169 2.512C179.713 2.91733 180.134 3.49867 180.433 4.256C180.742 5.01333 180.897 5.904 180.897 6.928C180.897 7.952 180.742 8.84267 180.433 9.6C180.134 10.3573 179.713 10.944 179.169 11.36C178.625 11.776 178.001 11.984 177.297 11.984C176.603 11.984 175.979 11.776 175.425 11.36C174.881 10.944 174.454 10.3573 174.145 9.6C173.846 8.84267 173.697 7.952 173.697 6.928C173.697 5.904 173.846 5.01333 174.145 4.256C174.454 3.49867 174.881 2.91733 175.425 2.512C175.979 2.096 176.603 1.888 177.297 1.888ZM177.297 3.072C176.838 3.072 176.433 3.232 176.081 3.552C175.729 3.86133 175.451 4.30933 175.249 4.896C175.057 5.472 174.961 6.14933 174.961 6.928C174.961 7.70667 175.057 8.38933 175.249 8.976C175.451 9.552 175.729 10 176.081 10.32C176.433 10.64 176.838 10.8 177.297 10.8C177.766 10.8 178.177 10.64 178.529 10.32C178.881 10 179.153 9.552 179.345 8.976C179.547 8.38933 179.649 7.70667 179.649 6.928C179.649 6.14933 179.547 5.472 179.345 4.896C179.153 4.30933 178.881 3.86133 178.529 3.552C178.177 3.232 177.766 3.072 177.297 3.072ZM184.033 0.768H185.345V15.264H184.033V0.768ZM180.465 6.288H184.625V7.36H180.465V6.288ZM198.735 0.768H200.047V15.264H198.735V0.768ZM195.887 4.064H199.087V5.168H195.887V4.064ZM188.703 10.784H189.775C190.533 10.784 191.247 10.7733 191.919 10.752C192.591 10.72 193.263 10.6773 193.935 10.624C194.618 10.56 195.327 10.4693 196.063 10.352L196.175 11.456C195.418 11.5733 194.693 11.664 193.999 11.728C193.317 11.792 192.634 11.8347 191.951 11.856C191.269 11.8773 190.543 11.888 189.775 11.888H188.703V10.784ZM188.655 2.08H194.975V7.264H190.015V11.04H188.703V6.176H193.679V3.168H188.655V2.08ZM195.791 8.016H198.991V9.12H195.791V8.016ZM202.862 8.112H215.982V9.2H202.862V8.112ZM208.862 8.8H210.206V12.128H208.862V8.8ZM204.542 13.824H214.526V14.928H204.542V13.824ZM204.542 10.704H205.87V14.128H204.542V10.704ZM209.406 1.136C210.43 1.136 211.321 1.25333 212.078 1.488C212.835 1.72267 213.422 2.05867 213.838 2.496C214.265 2.92267 214.478 3.44 214.478 4.048C214.478 4.63467 214.265 5.14667 213.838 5.584C213.422 6.02133 212.835 6.35733 212.078 6.592C211.321 6.82667 210.43 6.944 209.406 6.944C208.393 6.944 207.502 6.82667 206.734 6.592C205.977 6.35733 205.385 6.02133 204.958 5.584C204.542 5.14667 204.334 4.63467 204.334 4.048C204.334 3.44 204.542 2.92267 204.958 2.496C205.385 2.05867 205.977 1.72267 206.734 1.488C207.502 1.25333 208.393 1.136 209.406 1.136ZM209.406 2.208C208.681 2.208 208.041 2.28267 207.486 2.432C206.931 2.58133 206.499 2.79467 206.19 3.072C205.891 3.33867 205.742 3.664 205.742 4.048C205.742 4.42133 205.891 4.74667 206.19 5.024C206.499 5.29067 206.931 5.49867 207.486 5.648C208.041 5.78667 208.681 5.856 209.406 5.856C210.153 5.856 210.798 5.78667 211.342 5.648C211.886 5.49867 212.307 5.29067 212.606 5.024C212.915 4.74667 213.07 4.42133 213.07 4.048C213.07 3.664 212.915 3.33867 212.606 3.072C212.307 2.79467 211.886 2.58133 211.342 2.432C210.798 2.28267 210.153 2.208 209.406 2.208ZM224.791 3.248H225.863V3.856C225.863 4.69867 225.698 5.48267 225.367 6.208C225.036 6.92267 224.567 7.552 223.959 8.096C223.362 8.62933 222.658 9.03467 221.847 9.312L221.207 8.272C221.922 8.03733 222.546 7.70133 223.079 7.264C223.612 6.816 224.028 6.29867 224.327 5.712C224.636 5.12533 224.791 4.50667 224.791 3.856V3.248ZM225.015 3.248H226.103V3.856C226.103 4.304 226.188 4.736 226.359 5.152C226.54 5.568 226.791 5.95733 227.111 6.32C227.431 6.672 227.815 6.98133 228.263 7.248C228.711 7.51467 229.202 7.728 229.735 7.888L229.111 8.928C228.3 8.68267 227.586 8.31467 226.967 7.824C226.359 7.32267 225.879 6.736 225.527 6.064C225.186 5.38133 225.015 4.64533 225.015 3.856V3.248ZM221.575 2.512H229.303V3.584H221.575V2.512ZM224.791 0.704H226.119V2.896H224.791V0.704ZM228.855 4.896H232.119V5.984H228.855V4.896ZM231.751 0.768H233.079V9.536H231.751V0.768ZM228.311 9.92C229.815 9.92 230.994 10.1547 231.847 10.624C232.7 11.0827 233.127 11.728 233.127 12.56C233.127 13.392 232.7 14.0427 231.847 14.512C230.994 14.9813 229.815 15.216 228.311 15.216C226.818 15.216 225.639 14.9813 224.775 14.512C223.922 14.0427 223.495 13.392 223.495 12.56C223.495 11.728 223.922 11.0827 224.775 10.624C225.639 10.1547 226.818 9.92 228.311 9.92ZM228.311 10.96C227.586 10.96 226.962 11.024 226.439 11.152C225.916 11.2693 225.511 11.4507 225.223 11.696C224.946 11.9307 224.807 12.2187 224.807 12.56C224.807 12.9013 224.946 13.1947 225.223 13.44C225.511 13.6747 225.916 13.856 226.439 13.984C226.962 14.112 227.586 14.176 228.311 14.176C229.047 14.176 229.671 14.112 230.183 13.984C230.706 13.856 231.106 13.6747 231.383 13.44C231.671 13.1947 231.815 12.9013 231.815 12.56C231.815 12.2187 231.671 11.9307 231.383 11.696C231.106 11.4507 230.706 11.2693 230.183 11.152C229.671 11.024 229.047 10.96 228.311 10.96ZM235.894 12.256H249.014V13.376H235.894V12.256ZM241.734 8.752H243.046V12.624H241.734V8.752ZM241.686 1.728H242.854V2.848C242.854 3.47733 242.742 4.06933 242.518 4.624C242.304 5.168 242.006 5.68 241.622 6.16C241.238 6.62933 240.795 7.05067 240.294 7.424C239.803 7.79733 239.275 8.112 238.71 8.368C238.144 8.624 237.568 8.81067 236.982 8.928L236.406 7.824C236.918 7.73867 237.424 7.58933 237.926 7.376C238.438 7.152 238.918 6.88533 239.366 6.576C239.814 6.256 240.214 5.904 240.566 5.52C240.918 5.12533 241.19 4.704 241.382 4.256C241.584 3.79733 241.686 3.328 241.686 2.848V1.728ZM241.926 1.728H243.078V2.848C243.078 3.33867 243.179 3.808 243.382 4.256C243.584 4.704 243.862 5.12533 244.214 5.52C244.566 5.904 244.966 6.256 245.414 6.576C245.872 6.896 246.352 7.16267 246.854 7.376C247.366 7.58933 247.878 7.73867 248.39 7.824L247.814 8.928C247.227 8.81067 246.651 8.624 246.086 8.368C245.52 8.112 244.987 7.79733 244.486 7.424C243.984 7.05067 243.542 6.62933 243.158 6.16C242.774 5.68 242.47 5.16267 242.246 4.608C242.032 4.05333 241.926 3.46667 241.926 2.848V1.728ZM261.189 0.783999H262.517V11.504H261.189V0.783999ZM257.093 2.656H261.685V3.728H257.093V2.656ZM253.253 13.84H262.901V14.928H253.253V13.84ZM253.253 10.576H254.581V14.32H253.253V10.576ZM251.461 1.824H252.773V8.656H251.461V1.824ZM251.461 8.24H252.549C253.573 8.24 254.586 8.20267 255.589 8.128C256.602 8.05333 257.669 7.91467 258.789 7.712L258.933 8.816C257.781 9.02933 256.693 9.17333 255.669 9.248C254.645 9.312 253.605 9.344 252.549 9.344H251.461V8.24ZM257.093 5.424H261.685V6.496H257.093V5.424ZM271.203 6.4H273.923V7.488H271.203V6.4ZM276.355 0.768H277.635V15.248H276.355V0.768ZM273.475 1.072H274.739V14.512H273.475V1.072ZM268.579 1.984C269.209 1.984 269.753 2.18667 270.211 2.592C270.681 2.99733 271.043 3.57867 271.299 4.336C271.555 5.09333 271.683 5.984 271.683 7.008C271.683 8.04267 271.555 8.93867 271.299 9.696C271.043 10.4533 270.681 11.04 270.211 11.456C269.753 11.8613 269.209 12.064 268.579 12.064C267.971 12.064 267.433 11.8613 266.963 11.456C266.505 11.04 266.147 10.4533 265.891 9.696C265.635 8.93867 265.507 8.04267 265.507 7.008C265.507 5.984 265.635 5.09333 265.891 4.336C266.147 3.57867 266.505 2.99733 266.963 2.592C267.433 2.18667 267.971 1.984 268.579 1.984ZM268.579 3.216C268.206 3.216 267.881 3.37067 267.603 3.68C267.326 3.98933 267.113 4.42667 266.963 4.992C266.814 5.55733 266.739 6.22933 266.739 7.008C266.739 7.78667 266.814 8.464 266.963 9.04C267.113 9.60533 267.326 10.0427 267.603 10.352C267.881 10.6613 268.206 10.816 268.579 10.816C268.963 10.816 269.294 10.6613 269.571 10.352C269.859 10.0427 270.078 9.60533 270.227 9.04C270.377 8.464 270.451 7.78667 270.451 7.008C270.451 6.22933 270.377 5.55733 270.227 4.992C270.078 4.42667 269.859 3.98933 269.571 3.68C269.294 3.37067 268.963 3.216 268.579 3.216ZM291.074 0.768H292.354V15.248H291.074V0.768ZM284.786 6.688H288.434V7.76H284.786V6.688ZM288.066 1.152H289.314V14.512H288.066V1.152ZM284.962 2.608H286.242C286.242 3.86667 286.061 5.07733 285.698 6.24C285.346 7.392 284.77 8.46933 283.97 9.472C283.17 10.464 282.119 11.3493 280.818 12.128L280.05 11.168C281.181 10.4853 282.109 9.71733 282.834 8.864C283.559 8 284.093 7.06667 284.434 6.064C284.786 5.05067 284.962 3.97867 284.962 2.848V2.608ZM280.674 2.608H285.458V3.696H280.674V2.608ZM11.808 24.768H13.072V39.248H11.808V24.768ZM9.36 30.576H12.144V31.664H9.36V30.576ZM8.528 25.088H9.76V38.496H8.528V25.088ZM1.312 34.56H2.256C2.97067 34.56 3.616 34.5547 4.192 34.544C4.77867 34.5227 5.33333 34.48 5.856 34.416C6.38933 34.352 6.93333 34.2613 7.488 34.144L7.616 35.248C7.04 35.3653 6.48 35.456 5.936 35.52C5.40267 35.584 4.83733 35.6267 4.24 35.648C3.65333 35.6693 2.992 35.68 2.256 35.68H1.312V34.56ZM1.312 26.528H6.688V27.616H2.64V35.072H1.312V26.528ZM25.4228 24.784H26.7508V35.632H25.4228V24.784ZM26.3348 29.536H28.8788V30.64H26.3348V29.536ZM15.5508 26.544H24.0948V27.616H15.5508V26.544ZM19.8228 28.4C20.5054 28.4 21.1081 28.5173 21.6308 28.752C22.1534 28.976 22.5588 29.2907 22.8468 29.696C23.1348 30.0907 23.2788 30.56 23.2788 31.104C23.2788 31.648 23.1348 32.1227 22.8468 32.528C22.5588 32.9227 22.1534 33.232 21.6308 33.456C21.1081 33.68 20.5054 33.792 19.8228 33.792C19.1401 33.792 18.5374 33.68 18.0148 33.456C17.4921 33.232 17.0814 32.9227 16.7828 32.528C16.4948 32.1227 16.3508 31.648 16.3508 31.104C16.3508 30.56 16.4948 30.0907 16.7828 29.696C17.0814 29.2907 17.4921 28.976 18.0148 28.752C18.5374 28.5173 19.1401 28.4 19.8228 28.4ZM19.8228 29.44C19.1721 29.44 18.6441 29.5947 18.2388 29.904C17.8334 30.2027 17.6308 30.6027 17.6308 31.104C17.6308 31.6053 17.8334 32.0053 18.2388 32.304C18.6441 32.6027 19.1721 32.752 19.8228 32.752C20.4841 32.752 21.0121 32.6027 21.4068 32.304C21.8121 32.0053 22.0148 31.6053 22.0148 31.104C22.0148 30.6027 21.8121 30.2027 21.4068 29.904C21.0121 29.5947 20.4841 29.44 19.8228 29.44ZM19.1668 24.784H20.4948V27.088H19.1668V24.784ZM17.7428 37.84H27.3908V38.928H17.7428V37.84ZM17.7428 34.768H19.0548V38.288H17.7428V34.768ZM40.7495 24.768H42.0935V39.248H40.7495V24.768ZM34.2535 28.208H35.3255V29.456C35.3255 30.224 35.2242 30.9707 35.0215 31.696C34.8188 32.4107 34.5308 33.0773 34.1575 33.696C33.7948 34.3147 33.3628 34.8587 32.8615 35.328C32.3708 35.7973 31.8322 36.1707 31.2455 36.448L30.5095 35.424C31.0428 35.1787 31.5335 34.848 31.9815 34.432C32.4402 34.016 32.8348 33.5467 33.1655 33.024C33.5068 32.4907 33.7735 31.92 33.9655 31.312C34.1575 30.704 34.2535 30.0853 34.2535 29.456V28.208ZM34.4935 28.208H35.5655V29.456C35.5655 30.0533 35.6615 30.6453 35.8535 31.232C36.0455 31.808 36.3122 32.352 36.6535 32.864C36.9948 33.3653 37.3948 33.8133 37.8535 34.208C38.3122 34.6027 38.8135 34.9227 39.3575 35.168L38.6215 36.192C38.0348 35.9253 37.4908 35.568 36.9895 35.12C36.4882 34.6613 36.0508 34.1387 35.6775 33.552C35.3042 32.9547 35.0108 32.3093 34.7975 31.616C34.5948 30.9227 34.4935 30.2027 34.4935 29.456V28.208ZM30.8935 27.28H38.8615V28.352H30.8935V27.28ZM34.2375 25.04H35.5655V27.872H34.2375V25.04ZM45.6123 26.352H52.1403V27.44H45.6123V26.352ZM47.8683 30.496H49.1803V35.392H47.8683V30.496ZM51.5963 26.352H52.9083V27.136C52.9083 27.7227 52.8869 28.4907 52.8443 29.44C52.8123 30.3893 52.6949 31.536 52.4923 32.88L51.1803 32.768C51.3936 31.456 51.5163 30.336 51.5483 29.408C51.5803 28.48 51.5963 27.7227 51.5963 27.136V26.352ZM54.7163 24.768H56.0443V39.248H54.7163V24.768ZM55.6763 30.816H58.3483V31.952H55.6763V30.816ZM44.9723 36.08L44.8123 34.976C45.6763 34.9653 46.6203 34.9547 47.6443 34.944C48.6789 34.9227 49.7243 34.88 50.7803 34.816C51.8469 34.752 52.8656 34.6613 53.8363 34.544L53.9163 35.536C52.9136 35.696 51.8843 35.8133 50.8283 35.888C49.7829 35.9627 48.7589 36.016 47.7563 36.048C46.7536 36.0693 45.8256 36.08 44.9723 36.08ZM61.035 26.224H70.331V27.312H61.035V26.224ZM59.675 36.112H72.747V37.216H59.675V36.112ZM62.875 31.344H64.203V36.512H62.875V31.344ZM69.899 26.224H71.227V27.808C71.227 28.416 71.2163 29.0453 71.195 29.696C71.1843 30.3467 71.1417 31.0453 71.067 31.792C71.003 32.528 70.8857 33.344 70.715 34.24L69.403 34.096C69.6483 32.8053 69.7923 31.664 69.835 30.672C69.8777 29.6693 69.899 28.7147 69.899 27.808V26.224ZM66.459 31.344H67.771V36.512H66.459V31.344ZM82.1218 28.528H85.3698V29.632H82.1218V28.528ZM84.9698 24.768H86.2978V33.392H84.9698V24.768ZM81.5298 33.84C82.5324 33.84 83.3911 33.9467 84.1058 34.16C84.8311 34.3733 85.3858 34.6827 85.7698 35.088C86.1538 35.4827 86.3458 35.968 86.3458 36.544C86.3458 37.3973 85.9138 38.0587 85.0498 38.528C84.1964 38.9973 83.0231 39.232 81.5298 39.232C80.0364 39.232 78.8578 38.9973 77.9938 38.528C77.1404 38.0587 76.7138 37.3973 76.7138 36.544C76.7138 35.968 76.9058 35.4827 77.2898 35.088C77.6844 34.6827 78.2391 34.3733 78.9538 34.16C79.6791 33.9467 80.5378 33.84 81.5298 33.84ZM81.5298 34.88C80.8044 34.88 80.1804 34.944 79.6578 35.072C79.1351 35.2 78.7298 35.3867 78.4418 35.632C78.1644 35.8773 78.0258 36.1813 78.0258 36.544C78.0258 36.8853 78.1644 37.1787 78.4418 37.424C78.7298 37.6693 79.1351 37.8613 79.6578 38C80.1804 38.128 80.8044 38.192 81.5298 38.192C82.2658 38.192 82.8898 38.128 83.4018 38C83.9244 37.8613 84.3244 37.6693 84.6018 37.424C84.8898 37.1787 85.0338 36.8853 85.0338 36.544C85.0338 36.1813 84.8898 35.8773 84.6018 35.632C84.3244 35.3867 83.9244 35.2 83.4018 35.072C82.8898 34.944 82.2658 34.88 81.5298 34.88ZM78.0738 26.24H79.1618V27.408C79.1618 28.2933 78.9911 29.1253 78.6498 29.904C78.3191 30.672 77.8498 31.3493 77.2418 31.936C76.6338 32.512 75.9298 32.9547 75.1298 33.264L74.4418 32.208C74.9858 32.016 75.4764 31.7547 75.9138 31.424C76.3618 31.0933 76.7458 30.7147 77.0658 30.288C77.3964 29.8613 77.6471 29.4027 77.8177 28.912C77.9884 28.4213 78.0738 27.92 78.0738 27.408V26.24ZM78.3298 26.24H79.4178V27.392C79.4178 28.0107 79.5618 28.6133 79.8498 29.2C80.1378 29.7867 80.5484 30.304 81.0818 30.752C81.6151 31.2 82.2284 31.552 82.9218 31.808L82.2498 32.864C81.4604 32.576 80.7724 32.16 80.1858 31.616C79.5991 31.0613 79.1404 30.4213 78.8098 29.696C78.4898 28.9707 78.3298 28.2027 78.3298 27.392V26.24ZM74.8578 25.824H82.5858V26.912H74.8578V25.824ZM89.1445 26.304H97.6885V27.376H89.1445V26.304ZM93.4165 28.128C94.0992 28.128 94.7018 28.2347 95.2245 28.448C95.7472 28.6613 96.1525 28.9653 96.4405 29.36C96.7285 29.744 96.8725 30.2027 96.8725 30.736C96.8725 31.2693 96.7285 31.728 96.4405 32.112C96.1525 32.496 95.7472 32.8 95.2245 33.024C94.7018 33.2373 94.0992 33.344 93.4165 33.344C92.7338 33.344 92.1312 33.2373 91.6085 33.024C91.0858 32.8 90.6752 32.496 90.3765 32.112C90.0885 31.728 89.9445 31.2693 89.9445 30.736C89.9445 30.2027 90.0885 29.744 90.3765 29.36C90.6752 28.9653 91.0858 28.6613 91.6085 28.448C92.1312 28.2347 92.7338 28.128 93.4165 28.128ZM93.4165 29.152C92.7552 29.152 92.2218 29.296 91.8165 29.584C91.4218 29.8613 91.2245 30.2453 91.2245 30.736C91.2245 31.216 91.4218 31.6 91.8165 31.888C92.2218 32.1653 92.7552 32.304 93.4165 32.304C94.0672 32.304 94.5952 32.1653 95.0005 31.888C95.4058 31.6 95.6085 31.216 95.6085 30.736C95.6085 30.2453 95.4058 29.8613 95.0005 29.584C94.6058 29.296 94.0778 29.152 93.4165 29.152ZM99.0165 24.768H100.345V33.824H99.0165V24.768ZM99.9765 28.768H102.473V29.872H99.9765V28.768ZM90.9365 34.608H100.345V39.248H99.0165V35.696H90.9365V34.608ZM92.7605 24.704H94.0885V26.896H92.7605V24.704ZM107.959 33.456H109.287V35.84H107.959V33.456ZM114.295 24.768H115.623V39.248H114.295V24.768ZM104.103 36.496L103.911 35.376C104.829 35.3653 105.821 35.3547 106.887 35.344C107.954 35.3333 109.042 35.296 110.151 35.232C111.261 35.168 112.333 35.0667 113.367 34.928L113.463 35.92C112.397 36.0907 111.314 36.2187 110.215 36.304C109.117 36.3787 108.045 36.432 106.999 36.464C105.954 36.4853 104.989 36.496 104.103 36.496ZM104.215 26.544H112.999V27.616H104.215V26.544ZM108.599 28.432C109.293 28.432 109.901 28.544 110.423 28.768C110.946 28.992 111.351 29.3067 111.639 29.712C111.938 30.1067 112.087 30.576 112.087 31.12C112.087 31.6533 111.938 32.1227 111.639 32.528C111.351 32.9333 110.946 33.248 110.423 33.472C109.901 33.6853 109.293 33.792 108.599 33.792C107.917 33.792 107.314 33.6853 106.791 33.472C106.269 33.248 105.863 32.9333 105.575 32.528C105.287 32.1227 105.143 31.6533 105.143 31.12C105.143 30.576 105.287 30.1067 105.575 29.712C105.863 29.3067 106.269 28.992 106.791 28.768C107.314 28.544 107.917 28.432 108.599 28.432ZM108.599 29.472C107.959 29.472 107.431 29.6213 107.015 29.92C106.599 30.2187 106.391 30.6187 106.391 31.12C106.391 31.6107 106.599 32.0053 107.015 32.304C107.431 32.6027 107.959 32.752 108.599 32.752C109.261 32.752 109.794 32.6027 110.199 32.304C110.615 32.0053 110.823 31.6107 110.823 31.12C110.823 30.6187 110.615 30.2187 110.199 29.92C109.794 29.6213 109.261 29.472 108.599 29.472ZM107.959 24.784H109.287V27.12H107.959V24.784ZM122.166 33.312C121.878 33.312 121.633 33.2053 121.43 32.992C121.227 32.7787 121.126 32.512 121.126 32.192C121.126 31.8507 121.227 31.5787 121.43 31.376C121.633 31.1627 121.878 31.056 122.166 31.056C122.454 31.056 122.705 31.1627 122.918 31.376C123.131 31.5787 123.238 31.8507 123.238 32.192C123.238 32.512 123.131 32.7787 122.918 32.992C122.705 33.2053 122.454 33.312 122.166 33.312ZM137.311 24.768H138.639V39.248H137.311V24.768ZM138.335 30.464H141.007V31.6H138.335V30.464ZM128.095 26H129.407V29.808H133.519V26H134.831V35.776H128.095V26ZM129.407 30.864V34.672H133.519V30.864H129.407ZM142.222 32.784H155.342V33.872H142.222V32.784ZM143.95 37.84H153.982V38.928H143.95V37.84ZM143.95 35.008H145.278V38.24H143.95V35.008ZM143.886 25.248H153.662V28.848H145.23V30.784H143.918V27.856H152.35V26.304H143.886V25.248ZM143.918 30.432H153.966V31.472H143.918V30.432ZM167.468 24.768H168.796V39.264H167.468V24.768ZM161.164 25.888C161.879 25.888 162.508 26.096 163.052 26.512C163.607 26.9173 164.039 27.4987 164.348 28.256C164.668 29.0133 164.828 29.904 164.828 30.928C164.828 31.952 164.668 32.8427 164.348 33.6C164.039 34.3573 163.607 34.944 163.052 35.36C162.508 35.776 161.879 35.984 161.164 35.984C160.45 35.984 159.815 35.776 159.26 35.36C158.706 34.944 158.268 34.3573 157.948 33.6C157.639 32.8427 157.484 31.952 157.484 30.928C157.484 29.904 157.639 29.0133 157.948 28.256C158.268 27.4987 158.706 26.9173 159.26 26.512C159.815 26.096 160.45 25.888 161.164 25.888ZM161.164 27.072C160.684 27.072 160.263 27.232 159.9 27.552C159.548 27.8613 159.271 28.3093 159.068 28.896C158.866 29.472 158.764 30.1493 158.764 30.928C158.764 31.7067 158.866 32.3893 159.068 32.976C159.271 33.552 159.548 34 159.9 34.32C160.263 34.64 160.684 34.8 161.164 34.8C161.634 34.8 162.044 34.64 162.396 34.32C162.759 34 163.042 33.552 163.244 32.976C163.447 32.3893 163.548 31.7067 163.548 30.928C163.548 30.1493 163.447 29.472 163.244 28.896C163.042 28.3093 162.759 27.8613 162.396 27.552C162.044 27.232 161.634 27.072 161.164 27.072ZM171.675 32.016H184.747V33.104H171.675V32.016ZM177.547 30.016H178.875V32.368H177.547V30.016ZM178.187 34.16C179.744 34.16 180.96 34.3787 181.835 34.816C182.71 35.2533 183.147 35.8773 183.147 36.688C183.147 37.4987 182.71 38.1227 181.835 38.56C180.96 38.9973 179.744 39.216 178.187 39.216C176.651 39.216 175.446 38.9973 174.571 38.56C173.696 38.1227 173.259 37.4987 173.259 36.688C173.259 35.8773 173.696 35.2533 174.571 34.816C175.446 34.3787 176.651 34.16 178.187 34.16ZM178.203 35.2C177.446 35.2 176.795 35.2587 176.251 35.376C175.718 35.4933 175.307 35.664 175.019 35.888C174.731 36.1013 174.587 36.368 174.587 36.688C174.587 37.008 174.731 37.28 175.019 37.504C175.307 37.728 175.718 37.8987 176.251 38.016C176.795 38.1333 177.446 38.192 178.203 38.192C178.96 38.192 179.606 38.1333 180.139 38.016C180.672 37.8987 181.083 37.728 181.371 37.504C181.659 37.28 181.803 37.008 181.803 36.688C181.803 36.368 181.659 36.1013 181.371 35.888C181.083 35.664 180.672 35.4933 180.139 35.376C179.606 35.2587 178.96 35.2 178.203 35.2ZM173.403 25.152H174.715V26.752H181.723V25.152H183.035V30.48H173.403V25.152ZM174.715 27.792V29.424H181.723V27.792H174.715ZM189.93 26.016H191.018V28.608C191.018 29.408 190.916 30.192 190.714 30.96C190.522 31.728 190.244 32.448 189.882 33.12C189.519 33.792 189.092 34.3893 188.602 34.912C188.111 35.4347 187.578 35.8507 187.002 36.16L186.186 35.088C186.719 34.8213 187.21 34.464 187.658 34.016C188.116 33.5573 188.516 33.0347 188.858 32.448C189.199 31.8613 189.46 31.2427 189.642 30.592C189.834 29.9307 189.93 29.2693 189.93 28.608V26.016ZM190.17 26.016H191.242V28.608C191.242 29.248 191.332 29.8827 191.514 30.512C191.706 31.1413 191.972 31.7333 192.314 32.288C192.655 32.8427 193.044 33.3387 193.482 33.776C193.93 34.2133 194.41 34.56 194.922 34.816L194.106 35.872C193.54 35.584 193.018 35.1893 192.538 34.688C192.068 34.1867 191.652 33.616 191.29 32.976C190.938 32.3253 190.66 31.632 190.458 30.896C190.266 30.1493 190.17 29.3867 190.17 28.608V26.016ZM196.186 24.768H197.514V39.248H196.186V24.768ZM197.21 30.624H199.882V31.76H197.21V30.624ZM205.241 33.456H206.569V35.84H205.241V33.456ZM211.577 24.768H212.905V39.248H211.577V24.768ZM201.385 36.496L201.193 35.376C202.11 35.3653 203.102 35.3547 204.169 35.344C205.235 35.3333 206.323 35.296 207.433 35.232C208.542 35.168 209.614 35.0667 210.649 34.928L210.745 35.92C209.678 36.0907 208.595 36.2187 207.497 36.304C206.398 36.3787 205.326 36.432 204.281 36.464C203.235 36.4853 202.27 36.496 201.385 36.496ZM201.497 26.544H210.281V27.616H201.497V26.544ZM205.881 28.432C206.574 28.432 207.182 28.544 207.705 28.768C208.227 28.992 208.633 29.3067 208.921 29.712C209.219 30.1067 209.369 30.576 209.369 31.12C209.369 31.6533 209.219 32.1227 208.921 32.528C208.633 32.9333 208.227 33.248 207.705 33.472C207.182 33.6853 206.574 33.792 205.881 33.792C205.198 33.792 204.595 33.6853 204.073 33.472C203.55 33.248 203.145 32.9333 202.857 32.528C202.569 32.1227 202.424 31.6533 202.424 31.12C202.424 30.576 202.569 30.1067 202.857 29.712C203.145 29.3067 203.55 28.992 204.073 28.768C204.595 28.544 205.198 28.432 205.881 28.432ZM205.881 29.472C205.241 29.472 204.713 29.6213 204.297 29.92C203.881 30.2187 203.673 30.6187 203.673 31.12C203.673 31.6107 203.881 32.0053 204.297 32.304C204.713 32.6027 205.241 32.752 205.881 32.752C206.542 32.752 207.075 32.6027 207.481 32.304C207.897 32.0053 208.105 31.6107 208.105 31.12C208.105 30.6187 207.897 30.2187 207.481 29.92C207.075 29.6213 206.542 29.472 205.881 29.472ZM205.241 24.784H206.569V27.12H205.241V24.784ZM220.097 26.416H231.729V27.504H220.097V26.416ZM219.409 34.16H232.529V35.248H219.409V34.16ZM225.281 35.04H226.593V39.264H225.281V35.04ZM225.937 28.336C227.409 28.336 228.561 28.544 229.393 28.96C230.225 29.376 230.641 29.9733 230.641 30.752C230.641 31.5093 230.225 32.1013 229.393 32.528C228.561 32.944 227.409 33.152 225.937 33.152C224.465 33.152 223.313 32.944 222.481 32.528C221.649 32.1013 221.233 31.5093 221.233 30.752C221.233 29.9733 221.649 29.376 222.481 28.96C223.313 28.544 224.465 28.336 225.937 28.336ZM225.937 29.344C224.881 29.344 224.06 29.4667 223.473 29.712C222.897 29.9467 222.609 30.2933 222.609 30.752C222.609 31.1893 222.897 31.5307 223.473 31.776C224.06 32.0213 224.881 32.144 225.937 32.144C226.993 32.144 227.809 32.0213 228.385 31.776C228.972 31.5307 229.265 31.1893 229.265 30.752C229.265 30.2933 228.972 29.9467 228.385 29.712C227.809 29.4667 226.993 29.344 225.937 29.344ZM225.281 24.688H226.593V27.136H225.281V24.688ZM238.224 32.064H239.552V35.28H238.224V32.064ZM244.64 24.784H245.968V35.776H244.64V24.784ZM236.096 37.84H246.32V38.928H236.096V37.84ZM236.096 34.704H237.424V38.128H236.096V34.704ZM234.224 32.56L234.048 31.456C234.944 31.456 235.915 31.4507 236.96 31.44C238.016 31.4187 239.093 31.3813 240.192 31.328C241.291 31.264 242.352 31.168 243.376 31.04L243.472 32C242.437 32.1707 241.371 32.2987 240.272 32.384C239.184 32.4587 238.123 32.5067 237.088 32.528C236.053 32.5493 235.099 32.56 234.224 32.56ZM241.696 33.328H244.992V34.288H241.696V33.328ZM238.752 25.36C239.467 25.36 240.091 25.4667 240.624 25.68C241.157 25.8827 241.568 26.176 241.856 26.56C242.155 26.9333 242.304 27.376 242.304 27.888C242.304 28.3893 242.155 28.832 241.856 29.216C241.568 29.6 241.157 29.8933 240.624 30.096C240.091 30.2987 239.467 30.4 238.752 30.4C238.048 30.4 237.424 30.2987 236.88 30.096C236.347 29.8933 235.931 29.6 235.632 29.216C235.344 28.832 235.2 28.3893 235.2 27.888C235.2 27.376 235.344 26.9333 235.632 26.56C235.931 26.176 236.347 25.8827 236.88 25.68C237.424 25.4667 238.048 25.36 238.752 25.36ZM238.752 26.352C238.069 26.352 237.515 26.4907 237.088 26.768C236.661 27.0453 236.448 27.4187 236.448 27.888C236.448 28.3467 236.661 28.7147 237.088 28.992C237.515 29.2693 238.069 29.408 238.752 29.408C239.424 29.408 239.973 29.2693 240.4 28.992C240.827 28.7147 241.04 28.3467 241.04 27.888C241.04 27.568 240.944 27.296 240.752 27.072C240.56 26.848 240.293 26.672 239.952 26.544C239.611 26.416 239.211 26.352 238.752 26.352ZM255.375 25.696C256.388 25.696 257.29 25.8613 258.079 26.192C258.868 26.5227 259.492 26.9867 259.951 27.584C260.41 28.1813 260.639 28.88 260.639 29.68C260.639 30.4907 260.41 31.1947 259.951 31.792C259.492 32.3893 258.868 32.8533 258.079 33.184C257.29 33.5147 256.388 33.68 255.375 33.68C254.383 33.68 253.487 33.5147 252.687 33.184C251.898 32.8533 251.274 32.3893 250.815 31.792C250.356 31.1947 250.127 30.4907 250.127 29.68C250.127 28.88 250.356 28.1813 250.815 27.584C251.274 26.9867 251.898 26.5227 252.687 26.192C253.487 25.8613 254.383 25.696 255.375 25.696ZM255.375 26.768C254.618 26.768 253.94 26.8907 253.343 27.136C252.746 27.3813 252.271 27.7227 251.919 28.16C251.567 28.5867 251.391 29.0933 251.391 29.68C251.391 30.256 251.567 30.7627 251.919 31.2C252.271 31.6373 252.746 31.9787 253.343 32.224C253.94 32.4693 254.618 32.592 255.375 32.592C256.143 32.592 256.826 32.4693 257.423 32.224C258.02 31.9787 258.49 31.6373 258.831 31.2C259.183 30.7627 259.359 30.256 259.359 29.68C259.359 29.0933 259.183 28.5867 258.831 28.16C258.49 27.7227 258.02 27.3813 257.423 27.136C256.826 26.8907 256.143 26.768 255.375 26.768ZM248.847 36.224H261.967V37.328H248.847V36.224ZM263.566 36.352H276.686V37.456H263.566V36.352ZM269.438 33.264H270.75V36.816H269.438V33.264ZM265.166 25.84H275.054V30.224H266.51V33.12H265.198V29.168H273.742V26.928H265.166V25.84ZM265.198 32.56H275.39V33.648H265.198V32.56ZM283.223 26.224H292.519V27.312H283.223V26.224ZM281.863 36.112H294.935V37.216H281.863V36.112ZM285.062 31.344H286.391V36.512H285.062V31.344ZM292.087 26.224H293.415V27.808C293.415 28.416 293.404 29.0453 293.383 29.696C293.372 30.3467 293.329 31.0453 293.255 31.792C293.191 32.528 293.073 33.344 292.903 34.24L291.591 34.096C291.836 32.8053 291.98 31.664 292.023 30.672C292.065 29.6693 292.087 28.7147 292.087 27.808V26.224ZM288.647 31.344H289.959V36.512H288.647V31.344ZM8.528 52.528H11.776V53.632H8.528V52.528ZM11.376 48.768H12.704V57.392H11.376V48.768ZM7.936 57.84C8.93867 57.84 9.79733 57.9467 10.512 58.16C11.2373 58.3733 11.792 58.6827 12.176 59.088C12.56 59.4827 12.752 59.968 12.752 60.544C12.752 61.3973 12.32 62.0587 11.456 62.528C10.6027 62.9973 9.42933 63.232 7.936 63.232C6.44267 63.232 5.264 62.9973 4.4 62.528C3.54667 62.0587 3.12 61.3973 3.12 60.544C3.12 59.968 3.312 59.4827 3.696 59.088C4.09067 58.6827 4.64533 58.3733 5.36 58.16C6.08533 57.9467 6.944 57.84 7.936 57.84ZM7.936 58.88C7.21067 58.88 6.58667 58.944 6.064 59.072C5.54133 59.2 5.136 59.3867 4.848 59.632C4.57067 59.8773 4.432 60.1813 4.432 60.544C4.432 60.8853 4.57067 61.1787 4.848 61.424C5.136 61.6693 5.54133 61.8613 6.064 62C6.58667 62.128 7.21067 62.192 7.936 62.192C8.672 62.192 9.296 62.128 9.808 62C10.3307 61.8613 10.7307 61.6693 11.008 61.424C11.296 61.1787 11.44 60.8853 11.44 60.544C11.44 60.1813 11.296 59.8773 11.008 59.632C10.7307 59.3867 10.3307 59.2 9.808 59.072C9.296 58.944 8.672 58.88 7.936 58.88ZM4.48 50.24H5.568V51.408C5.568 52.2933 5.39733 53.1253 5.056 53.904C4.72533 54.672 4.256 55.3493 3.648 55.936C3.04 56.512 2.336 56.9547 1.536 57.264L0.848 56.208C1.392 56.016 1.88267 55.7547 2.32 55.424C2.768 55.0933 3.152 54.7147 3.472 54.288C3.80267 53.8613 4.05333 53.4027 4.224 52.912C4.39467 52.4213 4.48 51.92 4.48 51.408V50.24ZM4.736 50.24H5.824V51.392C5.824 52.0107 5.968 52.6133 6.256 53.2C6.544 53.7867 6.95467 54.304 7.488 54.752C8.02133 55.2 8.63467 55.552 9.328 55.808L8.656 56.864C7.86667 56.576 7.17867 56.16 6.592 55.616C6.00533 55.0613 5.54667 54.4213 5.216 53.696C4.896 52.9707 4.736 52.2027 4.736 51.392V50.24ZM1.264 49.824H8.992V50.912H1.264V49.824ZM22.9209 50.848H24.0089V53.184C24.0089 53.952 23.9022 54.7093 23.6889 55.456C23.4755 56.192 23.1769 56.8907 22.7929 57.552C22.4195 58.2027 21.9822 58.7787 21.4809 59.28C20.9795 59.7813 20.4409 60.176 19.8649 60.464L19.0969 59.408C19.6195 59.152 20.1102 58.8053 20.5689 58.368C21.0382 57.9307 21.4489 57.4293 21.8009 56.864C22.1529 56.2987 22.4249 55.7013 22.6169 55.072C22.8195 54.4427 22.9209 53.8133 22.9209 53.184V50.848ZM23.1929 50.848H24.2649V53.184C24.2649 53.792 24.3609 54.4 24.5529 55.008C24.7555 55.6053 25.0329 56.1707 25.3849 56.704C25.7475 57.2267 26.1582 57.6907 26.6169 58.096C27.0862 58.5013 27.5875 58.8213 28.1209 59.056L27.3849 60.112C26.7982 59.8347 26.2489 59.4613 25.7369 58.992C25.2249 58.5227 24.7769 57.984 24.3929 57.376C24.0195 56.7573 23.7262 56.096 23.5129 55.392C23.2995 54.6773 23.1929 53.9413 23.1929 53.184V50.848ZM19.5609 50.256H27.6409V51.36H19.5609V50.256ZM29.6089 48.768H30.9369V63.248H29.6089V48.768ZM37.9116 56.064H39.2396V59.28H37.9116V56.064ZM44.3276 48.784H45.6556V59.776H44.3276V48.784ZM35.7836 61.84H46.0076V62.928H35.7836V61.84ZM35.7836 58.704H37.1116V62.128H35.7836V58.704ZM33.9116 56.56L33.7356 55.456C34.6316 55.456 35.6023 55.4507 36.6476 55.44C37.7036 55.4187 38.781 55.3813 39.8796 55.328C40.9783 55.264 42.0396 55.168 43.0636 55.04L43.1596 56C42.125 56.1707 41.0583 56.2987 39.9596 56.384C38.8716 56.4587 37.8103 56.5067 36.7756 56.528C35.741 56.5493 34.7863 56.56 33.9116 56.56ZM41.3836 57.328H44.6796V58.288H41.3836V57.328ZM38.4396 49.36C39.1543 49.36 39.7783 49.4667 40.3116 49.68C40.845 49.8827 41.2556 50.176 41.5436 50.56C41.8423 50.9333 41.9916 51.376 41.9916 51.888C41.9916 52.3893 41.8423 52.832 41.5436 53.216C41.2556 53.6 40.845 53.8933 40.3116 54.096C39.7783 54.2987 39.1543 54.4 38.4396 54.4C37.7356 54.4 37.1116 54.2987 36.5676 54.096C36.0343 53.8933 35.6183 53.6 35.3196 53.216C35.0316 52.832 34.8876 52.3893 34.8876 51.888C34.8876 51.376 35.0316 50.9333 35.3196 50.56C35.6183 50.176 36.0343 49.8827 36.5676 49.68C37.1116 49.4667 37.7356 49.36 38.4396 49.36ZM38.4396 50.352C37.757 50.352 37.2023 50.4907 36.7756 50.768C36.349 51.0453 36.1356 51.4187 36.1356 51.888C36.1356 52.3467 36.349 52.7147 36.7756 52.992C37.2023 53.2693 37.757 53.408 38.4396 53.408C39.1116 53.408 39.661 53.2693 40.0876 52.992C40.5143 52.7147 40.7276 52.3467 40.7276 51.888C40.7276 51.568 40.6316 51.296 40.4396 51.072C40.2476 50.848 39.981 50.672 39.6396 50.544C39.2983 50.416 38.8983 50.352 38.4396 50.352Z" fill="#555555"/>
</svg>
