<svg width="30" height="36" viewBox="0 0 30 36" fill="none" xmlns="http://www.w3.org/2000/svg">
<path d="M3.99967 35.5003C3.48023 35.5003 3.04481 35.3246 2.69342 34.9732C2.34204 34.6219 2.16634 34.1864 2.16634 33.667V29.9087C1.61634 29.2975 1.17329 28.6177 0.837174 27.8691C0.501063 27.1205 0.333008 26.3031 0.333008 25.417V8.00033C0.333008 5.46421 1.5094 3.60796 3.86217 2.43158C6.21495 1.25519 9.92745 0.666992 14.9997 0.666992C20.2552 0.666992 24.0136 1.23227 26.2747 2.36283C28.5358 3.49338 29.6663 5.37255 29.6663 8.00033V25.417C29.6663 26.3031 29.4983 27.1205 29.1622 27.8691C28.8261 28.6177 28.383 29.2975 27.833 29.9087V33.667C27.833 34.1864 27.6573 34.6219 27.3059 34.9732C26.9545 35.3246 26.5191 35.5003 25.9997 35.5003H24.1663C23.6469 35.5003 23.2115 35.3246 22.8601 34.9732C22.5087 34.6219 22.333 34.1864 22.333 33.667V31.8337H7.66634V33.667C7.66634 34.1864 7.49065 34.6219 7.13926 34.9732C6.78787 35.3246 6.35245 35.5003 5.83301 35.5003H3.99967ZM3.99967 15.3337H25.9997V9.83366H3.99967V15.3337ZM8.58301 26.3337C9.3469 26.3337 9.9962 26.0663 10.5309 25.5316C11.0656 24.9969 11.333 24.3475 11.333 23.5837C11.333 22.8198 11.0656 22.1705 10.5309 21.6357C9.9962 21.101 9.3469 20.8337 8.58301 20.8337C7.81912 20.8337 7.16981 21.101 6.63509 21.6357C6.10037 22.1705 5.83301 22.8198 5.83301 23.5837C5.83301 24.3475 6.10037 24.9969 6.63509 25.5316C7.16981 26.0663 7.81912 26.3337 8.58301 26.3337ZM21.4163 26.3337C22.1802 26.3337 22.8295 26.0663 23.3643 25.5316C23.899 24.9969 24.1663 24.3475 24.1663 23.5837C24.1663 22.8198 23.899 22.1705 23.3643 21.6357C22.8295 21.101 22.1802 20.8337 21.4163 20.8337C20.6525 20.8337 20.0031 21.101 19.4684 21.6357C18.9337 22.1705 18.6663 22.8198 18.6663 23.5837C18.6663 24.3475 18.9337 24.9969 19.4684 25.5316C20.0031 26.0663 20.6525 26.3337 21.4163 26.3337ZM4.82467 6.16699H25.358C24.8997 5.64755 23.9143 5.21213 22.4018 4.86074C20.8893 4.50935 18.4525 4.33366 15.0913 4.33366C11.8219 4.33366 9.43093 4.52463 7.91843 4.90658C6.40593 5.28852 5.37467 5.70866 4.82467 6.16699ZM7.66634 28.167H22.333C23.3413 28.167 24.2045 27.808 24.9226 27.0899C25.6406 26.3719 25.9997 25.5087 25.9997 24.5003V19.0003H3.99967V24.5003C3.99967 25.5087 4.3587 26.3719 5.07676 27.0899C5.79481 27.808 6.65801 28.167 7.66634 28.167Z" fill="white" fill-opacity="0.8"/>
</svg>
