<svg width="37" height="38" viewBox="0 0 37 38" fill="none" xmlns="http://www.w3.org/2000/svg">
<path d="M6.67932 37.3338C5.39598 37.3338 4.26543 36.9519 3.28765 36.188C2.30987 35.4241 1.66821 34.431 1.36265 33.2088L0.216816 28.6255C0.0640382 28.0449 0.170983 27.5178 0.537649 27.0442C0.904316 26.5706 1.39321 26.3338 2.00432 26.3338H2.82932C2.89043 26.0588 2.96682 25.7838 3.05848 25.5088C3.15015 25.2338 3.24182 24.9741 3.33348 24.7296V5.9838C3.33348 5.52547 3.4939 5.12061 3.81473 4.76922C4.13557 4.41783 4.52515 4.21158 4.98348 4.15047L34.821 0.850468C35.2488 0.789357 35.6078 0.888663 35.8981 1.14838C36.1883 1.40811 36.3335 1.75186 36.3335 2.17963C36.3335 2.51575 36.2189 2.81366 35.9897 3.07339C35.7606 3.33311 35.4779 3.49352 35.1418 3.55463L15.2501 5.80047V8.91714H34.9585C35.3557 8.91714 35.6842 9.047 35.9439 9.30672C36.2036 9.56644 36.3335 9.89491 36.3335 10.2921C36.3335 10.6894 36.2036 11.0178 35.9439 11.2776C35.6842 11.5373 35.3557 11.6671 34.9585 11.6671H15.2501V14.6463C15.6779 14.5852 16.1286 14.5317 16.6022 14.4859C17.0758 14.4401 17.5418 14.4171 18.0002 14.4171C21.6974 14.4171 24.9363 15.5477 27.7168 17.8088C30.4974 20.0699 32.3002 22.9116 33.1251 26.3338H33.996C34.6071 26.3338 35.0883 26.5706 35.4397 27.0442C35.7911 27.5178 35.8904 28.0449 35.7376 28.6255L34.5918 33.2088C34.2863 34.431 33.6446 35.4241 32.6668 36.188C31.689 36.9519 30.5585 37.3338 29.2752 37.3338H6.67932ZM6.67932 33.6671H29.2752C29.7029 33.6671 30.0772 33.5449 30.3981 33.3005C30.7189 33.056 30.9404 32.7199 31.0627 32.2921L31.6126 30.0005H4.34182L4.89182 32.2921C5.01404 32.7199 5.23557 33.056 5.5564 33.3005C5.87723 33.5449 6.25154 33.6671 6.67932 33.6671ZM6.67932 26.3338H9.61265C10.3154 24.6838 11.4154 23.3546 12.9127 22.3463C14.4099 21.338 16.1057 20.8338 18.0002 20.8338C19.8946 20.8338 21.5828 21.338 23.0647 22.3463C24.5467 23.3546 25.639 24.6838 26.3418 26.3338H29.2752C28.4807 23.9505 27.0675 21.9796 25.0356 20.4213C23.0036 18.863 20.6585 18.0838 18.0002 18.0838C15.3113 18.0838 12.9508 18.863 10.9189 20.4213C8.88696 21.9796 7.47376 23.9505 6.67932 26.3338ZM13.921 26.3338H22.0335C21.514 25.7532 20.9106 25.3026 20.2231 24.9817C19.5356 24.6609 18.7946 24.5005 18.0002 24.5005C17.2057 24.5005 16.4571 24.6609 15.7543 24.9817C15.0515 25.3026 14.4404 25.7532 13.921 26.3338ZM6.08348 19.963C6.35848 19.6269 6.64876 19.306 6.95432 19.0005C7.25987 18.6949 7.5807 18.4046 7.91682 18.1296V11.6671H6.08348V19.963ZM10.6668 16.2505C10.9724 16.0977 11.2703 15.9526 11.5606 15.8151C11.8508 15.6776 12.164 15.5477 12.5001 15.4255V11.6671H10.6668V16.2505ZM6.08348 8.91714H7.91682V6.62547L6.08348 6.8088V8.91714ZM10.6668 8.91714H12.5001V6.07547L10.6668 6.30464V8.91714Z" fill="white" fill-opacity="0.8"/>
</svg>
