<svg width="27" height="38" viewBox="0 0 27 38" fill="none" xmlns="http://www.w3.org/2000/svg">
<path d="M2.08333 11.667C1.56389 11.667 1.12847 11.4913 0.777083 11.1399C0.425694 10.7885 0.25 10.3531 0.25 9.83366C0.25 9.31421 0.425694 8.8788 0.777083 8.52741C1.12847 8.17602 1.56389 8.00033 2.08333 8.00033C2.60278 8.00033 3.03819 8.17602 3.38958 8.52741C3.74097 8.8788 3.91667 9.31421 3.91667 9.83366C3.91667 10.3531 3.74097 10.7885 3.38958 11.1399C3.03819 11.4913 2.60278 11.667 2.08333 11.667ZM10.3333 37.3337C8.31667 37.3337 6.59028 36.6156 5.15417 35.1795C3.71806 33.7434 3 32.017 3 30.0003V19.0003C3 15.9448 4.06944 13.3475 6.20833 11.2087C8.34722 9.06977 10.9444 8.00033 14 8.00033H17.3458C19.4542 8.00033 21.2569 8.71074 22.7542 10.1316C24.2514 11.5524 25 13.3017 25 15.3795C25 16.785 24.6257 18.076 23.8771 19.2524C23.1285 20.4288 22.1125 21.3225 20.8292 21.9337C19.8514 22.392 19.0799 23.0719 18.5146 23.9732C17.9493 24.8746 17.6667 25.86 17.6667 26.9295V30.0003C17.6667 32.0475 16.9563 33.7816 15.5354 35.2024C14.1146 36.6232 12.3806 37.3337 10.3333 37.3337ZM6.66667 8.00033C6.14722 8.00033 5.71181 7.82463 5.36042 7.47324C5.00903 7.12185 4.83333 6.68644 4.83333 6.16699V5.25033C4.83333 4.73088 5.00903 4.29546 5.36042 3.94408C5.71181 3.59269 6.14722 3.41699 6.66667 3.41699C7.18611 3.41699 7.62153 3.59269 7.97292 3.94408C8.32431 4.29546 8.5 4.73088 8.5 5.25033V6.16699C8.5 6.68644 8.32431 7.12185 7.97292 7.47324C7.62153 7.82463 7.18611 8.00033 6.66667 8.00033ZM10.3333 33.667C11.3417 33.667 12.2049 33.308 12.9229 32.5899C13.641 31.8719 14 31.0087 14 30.0003V26.9295C14 25.1573 14.466 23.5225 15.3979 22.0253C16.3299 20.5281 17.6056 19.3975 19.225 18.6337C19.8667 18.3281 20.3785 17.8774 20.7604 17.2816C21.1424 16.6857 21.3333 16.0364 21.3333 15.3337C21.3333 14.2642 20.9361 13.3857 20.1417 12.6982C19.3472 12.0107 18.4153 11.667 17.3458 11.667H14C11.9833 11.667 10.2569 12.385 8.82083 13.8212C7.38472 15.2573 6.66667 16.9837 6.66667 19.0003V30.0003C6.66667 31.0087 7.02569 31.8719 7.74375 32.5899C8.46181 33.308 9.325 33.667 10.3333 33.667ZM12.1667 6.16699C11.6472 6.16699 11.2118 5.9913 10.8604 5.63991C10.509 5.28852 10.3333 4.8531 10.3333 4.33366V3.41699C10.3333 2.89755 10.509 2.46213 10.8604 2.11074C11.2118 1.75935 11.6472 1.58366 12.1667 1.58366C12.6861 1.58366 13.1215 1.75935 13.4729 2.11074C13.8243 2.46213 14 2.89755 14 3.41699V4.33366C14 4.8531 13.8243 5.28852 13.4729 5.63991C13.1215 5.9913 12.6861 6.16699 12.1667 6.16699ZM17.6667 6.16699C17.1472 6.16699 16.7118 5.9913 16.3604 5.63991C16.009 5.28852 15.8333 4.8531 15.8333 4.33366V2.50033C15.8333 1.98088 16.009 1.54546 16.3604 1.19408C16.7118 0.842687 17.1472 0.666992 17.6667 0.666992C18.1861 0.666992 18.6215 0.842687 18.9729 1.19408C19.3243 1.54546 19.5 1.98088 19.5 2.50033V4.33366C19.5 4.8531 19.3243 5.28852 18.9729 5.63991C18.6215 5.9913 18.1861 6.16699 17.6667 6.16699ZM24.0833 8.00033C23.3194 8.00033 22.6701 7.73296 22.1354 7.19824C21.6007 6.66352 21.3333 6.01421 21.3333 5.25033V3.41699C21.3333 2.6531 21.6007 2.0038 22.1354 1.46908C22.6701 0.934353 23.3194 0.666992 24.0833 0.666992C24.8472 0.666992 25.4965 0.934353 26.0312 1.46908C26.566 2.0038 26.8333 2.6531 26.8333 3.41699V5.25033C26.8333 6.01421 26.566 6.66352 26.0312 7.19824C25.4965 7.73296 24.8472 8.00033 24.0833 8.00033Z" fill="white" fill-opacity="0.8"/>
</svg>
