<svg width="16" height="16" viewBox="0 0 16 16" fill="none" xmlns="http://www.w3.org/2000/svg">
<path d="M7.33317 1.99984V1.33317C7.33317 1.14428 7.39706 0.985948 7.52484 0.858171C7.65262 0.730393 7.81095 0.666504 7.99984 0.666504C8.18873 0.666504 8.34706 0.730393 8.47484 0.858171C8.60262 0.985948 8.6665 1.14428 8.6665 1.33317V1.99984C8.6665 2.18873 8.60262 2.34706 8.47484 2.47484C8.34706 2.60262 8.18873 2.6665 7.99984 2.6665C7.81095 2.6665 7.65262 2.60262 7.52484 2.47484C7.39706 2.34706 7.33317 2.18873 7.33317 1.99984ZM7.33317 14.6665V13.9998C7.33317 13.8109 7.39706 13.6526 7.52484 13.5248C7.65262 13.3971 7.81095 13.3332 7.99984 13.3332C8.18873 13.3332 8.34706 13.3971 8.47484 13.5248C8.60262 13.6526 8.6665 13.8109 8.6665 13.9998V14.6665C8.6665 14.8554 8.60262 15.0137 8.47484 15.1415C8.34706 15.2693 8.18873 15.3332 7.99984 15.3332C7.81095 15.3332 7.65262 15.2693 7.52484 15.1415C7.39706 15.0137 7.33317 14.8554 7.33317 14.6665ZM14.6665 8.6665H13.9998C13.8109 8.6665 13.6526 8.60262 13.5248 8.47484C13.3971 8.34706 13.3332 8.18873 13.3332 7.99984C13.3332 7.81095 13.3971 7.65262 13.5248 7.52484C13.6526 7.39706 13.8109 7.33317 13.9998 7.33317H14.6665C14.8554 7.33317 15.0137 7.39706 15.1415 7.52484C15.2693 7.65262 15.3332 7.81095 15.3332 7.99984C15.3332 8.18873 15.2693 8.34706 15.1415 8.47484C15.0137 8.60262 14.8554 8.6665 14.6665 8.6665ZM1.99984 8.6665H1.33317C1.14428 8.6665 0.985948 8.60262 0.858171 8.47484C0.730393 8.34706 0.666504 8.18873 0.666504 7.99984C0.666504 7.81095 0.730393 7.65262 0.858171 7.52484C0.985948 7.39706 1.14428 7.33317 1.33317 7.33317H1.99984C2.18873 7.33317 2.34706 7.39706 2.47484 7.52484C2.60262 7.65262 2.6665 7.81095 2.6665 7.99984C2.6665 8.18873 2.60262 8.34706 2.47484 8.47484C2.34706 8.60262 2.18873 8.6665 1.99984 8.6665ZM13.1665 3.78317L12.9332 4.0165C12.8109 4.13873 12.6582 4.19984 12.4748 4.19984C12.2915 4.19984 12.1332 4.13317 11.9998 3.99984C11.8776 3.87762 11.8137 3.72484 11.8082 3.5415C11.8026 3.35817 11.8609 3.19984 11.9832 3.0665L12.2332 2.8165C12.3554 2.68317 12.5109 2.6165 12.6998 2.6165C12.8887 2.6165 13.0498 2.68317 13.1832 2.8165C13.3165 2.94984 13.3804 3.11095 13.3748 3.29984C13.3693 3.48873 13.2998 3.64984 13.1665 3.78317ZM4.0165 12.9332L3.7665 13.1832C3.64428 13.3165 3.48873 13.3832 3.29984 13.3832C3.11095 13.3832 2.94984 13.3165 2.8165 13.1832C2.68317 13.0498 2.61928 12.8887 2.62484 12.6998C2.63039 12.5109 2.69984 12.3498 2.83317 12.2165L3.0665 11.9832C3.18873 11.8609 3.3415 11.7998 3.52484 11.7998C3.70817 11.7998 3.8665 11.8665 3.99984 11.9998C4.12206 12.1221 4.18595 12.2748 4.1915 12.4582C4.19706 12.6415 4.13873 12.7998 4.0165 12.9332ZM12.2165 13.1665L11.9832 12.9332C11.8609 12.8109 11.7998 12.6582 11.7998 12.4748C11.7998 12.2915 11.8665 12.1332 11.9998 11.9998C12.1221 11.8776 12.2748 11.8137 12.4582 11.8082C12.6415 11.8026 12.7998 11.8609 12.9332 11.9832L13.1832 12.2332C13.3165 12.3554 13.3832 12.5109 13.3832 12.6998C13.3832 12.8887 13.3165 13.0498 13.1832 13.1832C13.0498 13.3165 12.8887 13.3804 12.6998 13.3748C12.5109 13.3693 12.3498 13.2998 12.2165 13.1665ZM3.0665 4.0165L2.8165 3.7665C2.68317 3.64428 2.6165 3.48873 2.6165 3.29984C2.6165 3.11095 2.68317 2.94984 2.8165 2.8165C2.94984 2.68317 3.11095 2.61928 3.29984 2.62484C3.48873 2.63039 3.64984 2.69984 3.78317 2.83317L4.0165 3.0665C4.13873 3.18873 4.19984 3.3415 4.19984 3.52484C4.19984 3.70817 4.13317 3.8665 3.99984 3.99984C3.87762 4.12206 3.72484 4.18595 3.5415 4.1915C3.35817 4.19706 3.19984 4.13873 3.0665 4.0165ZM7.99984 11.9998C6.88873 11.9998 5.94428 11.6109 5.1665 10.8332C4.38873 10.0554 3.99984 9.11095 3.99984 7.99984C3.99984 6.88873 4.38873 5.94428 5.1665 5.1665C5.94428 4.38873 6.88873 3.99984 7.99984 3.99984C9.11095 3.99984 10.0554 4.38873 10.8332 5.1665C11.6109 5.94428 11.9998 6.88873 11.9998 7.99984C11.9998 9.11095 11.6109 10.0554 10.8332 10.8332C10.0554 11.6109 9.11095 11.9998 7.99984 11.9998ZM7.99984 10.6665C8.74428 10.6665 9.37484 10.4082 9.8915 9.8915C10.4082 9.37484 10.6665 8.74428 10.6665 7.99984C10.6665 7.25539 10.4082 6.62484 9.8915 6.10817C9.37484 5.5915 8.74428 5.33317 7.99984 5.33317C7.25539 5.33317 6.62484 5.5915 6.10817 6.10817C5.5915 6.62484 5.33317 7.25539 5.33317 7.99984C5.33317 8.74428 5.5915 9.37484 6.10817 9.8915C6.62484 10.4082 7.25539 10.6665 7.99984 10.6665Z" fill="white"/>
</svg>
