<svg width="15" height="13" viewBox="0 0 15 13" fill="none" xmlns="http://www.w3.org/2000/svg">
<path d="M0.416992 12.875V11.4583C0.865603 11.4583 1.26699 11.3727 1.62116 11.2016C1.97533 11.0304 2.35901 10.7913 2.7722 10.4844C3.12637 10.7795 3.513 11.0127 3.9321 11.1839C4.35119 11.355 4.75553 11.4406 5.14512 11.4406C5.5347 11.4406 5.94199 11.358 6.36699 11.1927C6.79199 11.0274 7.17567 10.7913 7.51803 10.4844C7.89581 10.8149 8.28539 11.0569 8.68678 11.2104C9.08817 11.3639 9.48956 11.4406 9.89095 11.4406C10.2805 11.4406 10.6613 11.3639 11.0331 11.2104C11.405 11.0569 11.8153 10.8149 12.2639 10.4844C12.7243 10.8385 13.1316 11.0894 13.4857 11.237C13.8399 11.3845 14.2059 11.4583 14.5837 11.4583V12.875C14.1705 12.875 13.772 12.8189 13.3883 12.7068C13.0047 12.5946 12.6298 12.4323 12.2639 12.2198C11.8861 12.4559 11.4936 12.6241 11.0863 12.7245C10.679 12.8248 10.2805 12.875 9.89095 12.875C9.50137 12.875 9.10293 12.8248 8.69564 12.7245C8.28835 12.6241 7.89581 12.4559 7.51803 12.2198C7.17567 12.4441 6.79789 12.6094 6.3847 12.7156C5.97151 12.8219 5.55831 12.875 5.14512 12.875C4.74373 12.875 4.34234 12.8219 3.94095 12.7156C3.53956 12.6094 3.14998 12.4441 2.7722 12.2198C2.40623 12.4323 2.0255 12.5946 1.63001 12.7068C1.23453 12.8189 0.830187 12.875 0.416992 12.875ZM0.416992 9.6875V8.27083C0.416992 7.12569 0.638346 6.05729 1.08105 5.06562C1.52376 4.07396 2.1288 3.21215 2.89616 2.48021C3.66352 1.74826 4.56369 1.17274 5.59668 0.753646C6.62967 0.334549 7.73644 0.125 8.91699 0.125C9.30658 0.125 9.69321 0.14566 10.0769 0.186979C10.4606 0.228299 10.8059 0.284375 11.1128 0.355208C10.8649 0.732986 10.6731 1.13142 10.5373 1.55052C10.4015 1.96962 10.3337 2.36215 10.3337 2.72812C10.3337 3.37743 10.5639 3.93229 11.0243 4.39271C11.4847 4.85312 12.0396 5.08333 12.6889 5.08333H14.5837V6.5H12.6889C11.6382 6.5 10.7469 6.13403 10.0149 5.40208C9.28296 4.67014 8.91699 3.77882 8.91699 2.72812C8.91699 2.56285 8.9288 2.38872 8.95241 2.20573C8.97602 2.02274 9.01144 1.84271 9.05866 1.66562C8.18505 1.87812 7.47081 2.32969 6.91595 3.02031C6.36109 3.71094 6.08366 4.51667 6.08366 5.4375C6.08366 5.8625 6.15154 6.26684 6.2873 6.65052C6.42307 7.0342 6.61491 7.39722 6.86283 7.73958C6.95727 7.68056 7.05762 7.61267 7.16387 7.53594C7.27012 7.4592 7.38227 7.37951 7.50033 7.29688C7.84269 7.60382 8.23817 7.83993 8.68678 8.00521C9.13539 8.17049 9.53678 8.25313 9.89095 8.25313C10.2451 8.25313 10.6406 8.16753 11.0774 7.99635C11.5142 7.82517 11.9097 7.59201 12.2639 7.29688C12.6416 7.58021 13.0165 7.81337 13.3883 7.99635C13.7602 8.17934 14.1587 8.27083 14.5837 8.27083V9.6875C14.1705 9.6875 13.772 9.63142 13.3883 9.51927C13.0047 9.40712 12.6298 9.24479 12.2639 9.03229C11.8861 9.2684 11.5024 9.43663 11.1128 9.53698C10.7232 9.63733 10.316 9.6875 9.89095 9.6875C9.46595 9.6875 9.04095 9.62847 8.61595 9.51042C8.19095 9.39236 7.82498 9.23299 7.51803 9.03229C7.15206 9.2566 6.76838 9.41892 6.36699 9.51927C5.9656 9.61962 5.55831 9.67569 5.14512 9.6875C4.73192 9.69931 4.32463 9.64618 3.92324 9.52812C3.52185 9.41007 3.13817 9.24479 2.7722 9.03229C2.40623 9.24479 2.0255 9.40712 1.63001 9.51927C1.23453 9.63142 0.830187 9.6875 0.416992 9.6875ZM5.1097 8.25313H5.28678C5.34581 8.25313 5.40484 8.24722 5.46387 8.23542C5.20414 7.82222 5.0064 7.37951 4.87064 6.90729C4.73487 6.43507 4.66699 5.94514 4.66699 5.4375C4.66699 4.48125 4.88539 3.61649 5.3222 2.84323C5.75901 2.06997 6.36699 1.43542 7.14616 0.939583V1.71875C6.41421 1.90764 5.73835 2.19392 5.11855 2.5776C4.49876 2.96128 3.95571 3.42465 3.48939 3.96771C3.02307 4.51076 2.64824 5.1158 2.36491 5.78281C2.08158 6.44983 1.9104 7.16111 1.85137 7.91667C2.02845 7.81042 2.18192 7.71597 2.31178 7.63333C2.44164 7.55069 2.59512 7.43854 2.7722 7.29688C3.20901 7.61562 3.60449 7.85469 3.95866 8.01406C4.31283 8.17344 4.69651 8.25313 5.1097 8.25313Z" fill="white"/>
</svg>
