<svg width="160" height="25" viewBox="0 0 160 25" fill="none" xmlns="http://www.w3.org/2000/svg">
<g clip-path="url(#clip0_21_185)">
<path d="M159.865 12.6775L155.178 12.6184V15.7656C155.178 19.814 154.461 22.7839 154.118 23.6704C153.894 23.9216 153.371 24.0693 153.058 23.9807C152.863 23.2715 152.46 21.0699 152.46 17.4056V3.25078C152.46 2.65976 150.773 1.43341 150.146 1.24132C149.982 1.18222 150.52 0.561656 150.684 0.561656C151.968 0.561656 155.342 1.32998 155.267 1.92099C155.207 2.31993 155.178 2.79274 155.178 3.30988V11.4068L158.731 10.0179C159.044 9.89972 160.448 12.6775 159.88 12.6775M150.131 14.2141C150.624 14.8938 149.295 17.775 148.818 17.0953C148.131 16.1349 146.25 13.2981 144.563 11.4068C142.308 14.5244 139.501 17.0362 136.978 18.366C136.665 18.3365 136.292 17.8784 136.292 17.5977C139.412 14.8495 142.935 10.0327 144.413 5.6444C144.503 5.39322 143.443 4.62489 142.98 4.34416C142.831 4.25551 143.473 3.7827 143.637 3.7827C144.488 3.7827 146.847 4.7431 147.414 5.14203C147.728 5.36366 147.758 5.51142 147.608 5.8808C146.981 7.49132 146.145 9.02797 145.205 10.4464C147.325 11.8944 149.669 13.564 150.131 14.2141ZM134.978 12.9435L130.26 12.8548V15.7656C130.26 19.814 129.603 22.7839 129.23 23.6704C129.006 23.9216 128.484 24.0693 128.2 23.9807C127.976 23.2715 127.603 21.0699 127.603 17.4056V3.25078C127.603 2.65976 125.916 1.49251 125.289 1.24132C125.139 1.18222 125.662 0.561656 125.826 0.561656C127.11 0.561656 130.409 1.32998 130.35 1.92099C130.32 2.31993 130.26 2.79274 130.26 3.30988V11.658L133.828 10.2987C134.172 10.1509 135.575 12.9287 134.978 12.9287M119.645 14.3323C120.959 14.3323 121.929 13.431 121.929 12.0422C121.929 10.6533 121.019 9.72241 119.645 9.72241C118.272 9.72241 117.361 10.6533 117.361 12.0422C117.361 13.431 118.272 14.3323 119.645 14.3323ZM115.181 2.52679C115.151 2.40858 115.301 2.02442 115.465 2.0392C116.405 2.2165 117.361 2.37903 118.555 2.52679L121.467 2.83707C121.72 2.86662 122.84 4.38849 122.094 4.38849H117.689C116.943 4.38849 115.226 2.77797 115.166 2.52679M112.255 5.96946C112.225 5.8808 112.404 5.57052 112.479 5.60007C112.972 5.77738 114.718 5.8217 116.376 5.79215L122.333 5.73305C124.049 5.7035 124.557 4.8613 124.826 4.8613C125.109 4.8613 126.199 6.35362 126.199 7.04806C126.199 7.16627 126.08 7.24014 125.886 7.24014C125.602 7.24014 123.945 7.15149 122.631 7.15149L116.226 7.18104C115.196 7.18104 114.509 7.40267 114.196 7.6834C113.39 7.46177 112.389 6.26497 112.285 5.95468M126.483 17.5534C123.915 18.7206 118.988 19.4003 115.614 19.814C114.704 19.9322 114.151 20.0948 113.614 20.405C112.748 20.1834 111.494 18.9275 111.374 18.4547C111.404 18.3069 111.524 18.1739 111.598 18.0853C112.539 18.0853 113.912 18.1148 115.569 18.0262C116.6 17.9671 117.57 17.908 118.451 17.8341L118.287 15.3962C116.107 15.0268 114.763 13.7561 114.763 11.9978C114.763 10.077 116.45 8.77679 119.108 8.62903C119.138 8.51083 119.167 8.43695 119.167 8.31875C119.167 8.09712 119.108 7.83116 118.794 7.60953C118.794 7.07761 120.511 7.60953 120.511 7.89026C120.511 8.00846 120.362 8.3483 120.287 8.62903C122.885 8.80634 124.527 10.1066 124.527 11.9978C124.527 13.7561 123.124 15.0268 120.974 15.3962L120.854 17.5977C123.572 17.2874 125.408 16.8589 126.632 16.46C126.886 16.3713 126.782 17.3909 126.468 17.5386M93.9514 3.76792L93.9216 8.49605H100.58L100.744 3.76792H93.9365H93.9514ZM89.6368 2.71887C89.6069 2.57111 90.01 2.0983 90.2041 2.0983C90.6968 2.0983 92.3988 2.1574 93.5185 2.34948H99.8635C100.67 2.34948 101.088 2.23128 101.401 1.95054C101.745 1.83234 103.969 2.17218 103.924 2.54156L102.984 8.23009C103.387 8.59948 103.924 9.33825 103.924 9.73719C103.924 9.85539 103.805 9.92927 103.611 9.92927C103.327 9.92927 102.267 9.89972 100.67 9.89972H93.6379C93.4588 10.21 93.2348 10.4907 92.981 10.7862C92.7272 11.0374 92.2644 11.1556 91.921 11.067C91.6374 10.3873 91.3985 9.08707 91.2044 6.73778L90.9506 3.79747C90.9207 3.51674 90.1146 2.89617 89.6368 2.71887ZM105.477 22.8134C105.477 22.9316 105.387 23.0055 105.164 23.0055H102.222L93.4737 23.0351C91.0402 23.0351 90.5624 22.2076 90.5624 20.5971V18.1887C90.5624 17.7602 89.6517 17.0215 89.1292 16.9476C88.965 16.918 89.5323 16.2088 89.7562 16.2088C90.7565 16.2088 92.2495 16.4304 92.996 16.7112C93.1452 16.7703 93.3692 16.8589 93.3095 17.1692C93.2498 17.5386 93.2498 18.0705 93.2498 18.5286V20.6267C93.2498 21.4984 93.5633 21.6166 94.3396 21.6166L101.685 21.5871C103.238 21.5871 103.745 20.7301 103.939 20.7301C104.342 20.7301 105.477 22.1485 105.477 22.7987M108.254 13.6527C108.254 13.8004 108.135 13.8743 107.94 13.8743H98.8782V15.5144C98.8782 17.184 98.2512 18.632 97.8182 19.2821C97.5943 19.5333 97.1016 19.6515 96.7881 19.5628C96.5343 18.7945 96.161 17.775 96.161 15.9133V13.8743H90.0698C89.0396 13.8743 88.3529 14.155 88.0393 14.4358C87.2331 14.2141 85.6058 12.9582 85.6058 12.6775C85.6058 12.5593 85.7551 12.249 85.8298 12.2786C86.3224 12.4559 88.0692 12.4706 89.7264 12.4706L103.745 12.4411C105.522 12.4411 106.119 11.4511 106.343 11.4511C106.657 11.4511 108.254 12.9582 108.254 13.6379M68.3174 6.4866C68.3174 8.30397 69.5118 9.51556 71.3183 9.51556C73.1247 9.51556 74.4982 8.30397 74.4982 6.4866C74.4982 4.66922 73.2143 3.45764 71.3481 3.45764C69.4819 3.45764 68.3174 4.684 68.3174 6.4866ZM65.6002 6.57525C65.6002 4.03388 67.6605 2.33471 70.8405 2.1574C70.8704 2.06875 70.9002 1.99487 70.9002 1.90622C70.9002 1.65504 70.8405 1.3743 70.4673 1.10835C70.4673 0.546881 72.3783 1.10835 72.3783 1.41863C72.3783 1.53683 72.229 1.87667 72.1543 2.1574C75.185 2.37903 77.1856 4.0782 77.1856 6.57525C77.1856 9.20527 74.8715 10.934 71.4078 10.934C67.9442 10.934 65.6002 9.20527 65.6002 6.57525ZM82.7095 14.3028C82.7095 14.421 82.5901 14.4949 82.396 14.4949H76.1853V15.8542C76.1853 19.681 75.4985 22.6509 75.1253 23.5226C74.9013 23.7738 74.3788 23.892 74.0951 23.8329C73.8712 23.1237 73.4681 20.9222 73.4681 17.4943V14.4949L69.0937 14.5244V15.3814C69.0937 19.1787 68.407 22.1485 68.0636 23.0203C67.8397 23.2715 67.3171 23.3897 67.0036 23.3306C66.8095 22.6213 66.4064 20.4198 66.4064 17.0215V14.5244H64.5253C63.4952 14.5244 62.8084 14.8052 62.4949 15.0859C61.6887 14.8643 60.0614 13.6083 60.0614 13.2981C60.0614 13.2094 60.2107 12.8991 60.2853 12.9287C60.778 13.0912 62.5247 13.1208 64.1819 13.1208L78.2008 13.0617C79.9774 13.0617 80.5746 12.0717 80.7985 12.0717C81.112 12.0717 82.7095 13.5936 82.7095 14.2732M42.9969 5.34889C42.9969 6.90031 44.1763 8.00846 45.938 8.00846C47.6997 8.00846 48.8791 6.90031 48.8791 5.34889C48.8791 3.79747 47.6997 2.74842 45.938 2.74842C44.1763 2.74842 42.9969 3.82702 42.9969 5.34889ZM40.2797 5.46709C40.2797 3.23601 42.2504 1.61071 45.311 1.41863C45.3408 1.27088 45.4006 1.16745 45.4006 1.01969C45.4006 0.768512 45.311 0.502554 44.9676 0.251372C44.9676 -0.339644 46.8786 0.251372 46.8786 0.532105C46.8786 0.70941 46.6845 1.09357 46.5651 1.40385C49.5958 1.59593 51.6262 3.22123 51.6262 5.45232C51.6262 7.80161 49.3121 9.47123 45.938 9.47123C42.5639 9.47123 40.2797 7.80161 40.2797 5.45232M53.8357 23.2715C53.8357 23.4192 53.7163 23.4635 53.5222 23.4635H42.3997C40.4887 23.4635 39.8169 22.8134 39.7721 21.3359L39.7124 19.4446C39.7124 19.1639 38.9659 18.7945 38.4882 18.5877C38.4583 18.4399 38.8913 17.9671 39.1152 17.9671C39.6527 17.9671 41.698 18.0853 42.4296 18.3365H49.6704L49.7003 16.0463H42.4594C41.5786 16.0463 40.9963 16.2679 40.6828 16.5634C39.6527 16.4157 38.8166 15.0859 38.8017 14.8938C38.7718 14.7461 38.9211 14.4653 39.0555 14.4949C39.9662 14.6574 41.1158 14.6574 42.7729 14.6574H48.7C49.5062 14.6574 49.9242 14.5687 50.2377 14.2585C50.5811 14.2289 52.8653 14.4801 52.7907 14.8495L52.0741 18.1887C52.6115 18.5877 52.9549 19.2673 52.9549 19.4299C52.9549 19.5776 52.8653 19.681 52.731 19.681C52.4772 19.681 50.8498 19.6515 49.5211 19.6515H42.4296V20.8926C42.4296 21.853 42.7132 22.0451 43.9972 22.0451H50.2676C52.0442 22.0451 52.298 21.3063 52.4921 21.3063C52.8952 21.3063 53.8357 22.6361 53.8357 23.2271M57.1053 12.3229C57.1053 12.4411 56.9859 12.515 56.7918 12.515H52.7608L38.9361 12.5445C37.9358 12.5445 37.249 12.8252 36.9355 13.0764C36.0994 12.8548 34.6214 11.6284 34.502 11.3182C34.4721 11.2295 34.6513 10.9192 34.7259 10.9488C35.2186 11.1261 36.9504 11.1556 38.6225 11.1556L52.6115 11.0965C54.3583 11.0965 54.9555 10.1066 55.2093 10.1066C55.5228 10.1066 57.0904 11.6284 57.0904 12.3081M25.5144 12.2638C25.5144 12.515 25.3203 12.515 24.6336 12.7218C24.3499 12.8105 24.2006 13.2537 23.9766 13.963C23.484 15.4553 21.9164 17.8637 18.6617 17.8637C15.4071 17.8637 13.6902 15.1154 13.5708 14.9677C13.4065 14.7461 13.1378 14.5392 12.9139 14.5392C12.7646 14.5392 12.6601 14.5983 12.5705 14.6574C11.391 15.4553 10.1071 16.3566 10.1071 18.4251C10.1071 19.7845 11.2567 21.3359 13.1975 21.3359C14.8547 21.3359 15.9446 19.7845 16.2879 18.7059C16.4074 18.3365 16.3775 18.1887 16.5716 18.1887C16.8254 18.1887 16.915 18.7502 17.2584 18.7502C17.542 18.7502 17.4524 18.6024 17.8257 18.6024C18.1691 18.6024 18.2586 19.0605 18.5423 19.0605C18.9454 19.0605 19.4829 18.7206 19.7516 18.7206C19.8412 18.7206 19.9755 18.7206 19.9755 18.8093C19.9755 18.957 19.7217 19.09 19.4829 19.2969C18.9902 19.7254 18.6319 19.9765 18.2586 20.5971C16.9448 22.7987 15.422 23.1976 14.6457 23.434C14.362 23.5226 14.0784 23.6556 13.9589 23.9216C13.526 24.882 13.2722 25.0002 13.1527 25.0002C13.0034 25.0002 12.9586 24.8377 12.9288 24.4683C12.8989 24.0693 12.675 23.6113 11.8986 23.4783C9.92794 23.1089 7.49443 21.129 7.49443 18.0114C7.49443 15.2041 9.64428 14.1107 10.7341 13.0321C10.8834 12.8843 10.9879 12.7218 10.9879 12.4706V12.382C10.9879 12.249 10.9581 12.0717 10.7789 11.8501C9.68907 10.4907 8.86795 9.58943 7.37499 9.58943C5.74767 9.58943 4.31443 10.9192 4.31443 12.84C4.31443 14.9086 5.34457 15.6178 6.37471 15.869C6.71809 15.9576 6.83753 15.9872 6.83753 16.0906C6.83753 16.3122 6.61358 16.2679 6.61358 16.6078C6.61358 16.8589 6.80767 16.8294 6.80767 17.2283C6.80767 17.5091 6.55386 17.5977 6.55386 18.0262C6.55386 18.366 6.71809 18.4842 6.71809 18.6763C6.71809 18.9275 6.86739 18.8979 6.86739 19.4446C6.86739 19.5924 6.9271 19.6958 6.80767 19.6958C6.68823 19.6958 6.55387 19.5037 6.37471 19.2378C5.97161 18.6468 5.53866 18.2774 5.22514 18.041C2.7319 16.2531 2.64232 15.47 2.01528 14.2437C1.86599 13.963 1.8212 13.4754 1.52261 13.3424C0.611904 12.8843 -0.0151367 12.7514 -0.0151367 12.0126C-0.0151367 11.6728 0.387961 12.0126 1.015 12.0126C1.35838 12.0126 1.76148 12.0717 1.95556 11.3625C2.38852 9.85539 4.18007 7.447 7.3302 7.447C10.6744 7.447 12.3316 10.1952 12.451 10.343C12.675 10.6533 12.884 10.7715 13.1079 10.7715C13.2572 10.7715 13.3617 10.7715 13.6155 10.5498C15.7355 8.68813 15.8998 7.86071 15.8998 6.7821C15.8998 5.42277 14.8099 3.8418 12.8691 3.8418C10.9282 3.8418 10.0026 5.36367 9.74879 6.50137C9.65921 6.87076 9.59949 7.06284 9.43527 7.06284C9.18147 7.06284 9.18147 6.723 8.89781 6.723C8.43499 6.723 8.3902 6.91508 8.15133 6.91508C7.83781 6.91508 7.83781 6.35362 7.37499 6.35362C7.25555 6.35362 7.00175 6.50137 6.83753 6.50137C6.40457 6.50137 6.37471 6.59002 6.18063 6.59002C5.95668 6.59002 5.71781 6.47182 5.71781 6.30929C5.71781 6.14676 5.86711 6.02856 6.31499 5.80693C6.91217 5.49664 7.46457 5.27501 7.74823 4.63967C8.62907 2.68932 10.5848 2.06875 11.3313 1.78802C11.615 1.66981 11.7643 1.56638 11.8986 1.30043C12.4958 0.221821 12.7646 0.103618 12.9288 0.103618C13.093 0.103618 13.0781 0.384351 13.1527 0.724185C13.2423 1.12312 13.2423 1.43341 13.8992 1.59593C15.7654 2.08352 18.4975 3.7827 18.4975 6.88553C18.4975 9.98837 15.4071 11.9535 15.2578 12.0717C14.9144 12.3229 14.795 12.5297 14.795 12.7218C14.795 12.8696 14.8846 13.0321 14.9741 13.2094C15.7206 14.6869 17.0046 15.6474 18.4975 15.6474C20.2741 15.6474 21.6476 14.0073 21.6476 12.3081C21.6476 10.6089 20.4981 9.58943 19.4978 9.27915C19.1245 9.16095 18.9603 9.16095 18.9603 8.96887C18.9603 8.74723 19.2141 8.82111 19.2141 8.48128C19.2141 8.23009 19.0947 8.2892 19.0947 7.89026C19.0947 7.60953 19.4381 7.52087 19.4381 7.09239C19.4381 6.75255 19.2738 6.63435 19.2738 6.44227C19.2738 6.19109 19.1843 6.22064 19.1843 5.67395C19.1843 5.52619 19.1245 5.42277 19.244 5.42277C19.3933 5.42277 19.5276 5.61485 19.7068 5.8808C20.1099 6.47182 20.4234 6.92986 20.7369 7.12194C22.9913 8.54038 23.484 9.44168 24.0065 10.7124C24.1259 10.9931 24.2304 11.4807 24.5738 11.6728C24.8575 11.8501 25.4845 12.0422 25.4845 12.2638" fill="white"/>
</g>
<defs>
<clipPath id="clip0_21_185">
<rect width="160" height="25" fill="white"/>
</clipPath>
</defs>
</svg>
