<svg width="161" height="40" viewBox="0 0 161 40" fill="none" xmlns="http://www.w3.org/2000/svg">
<path d="M132.304 11.3753C132.304 11.777 132.36 12.1858 132.523 12.5664C133.229 14.3001 135.003 15.3644 137.263 14.4622C137.807 14.2438 152.784 8.22487 152.784 8.22487C152.784 8.22487 146.885 23.1452 146.666 23.702C145.804 25.8375 146.836 27.7757 148.595 28.4311C148.983 28.5721 149.386 28.6426 149.789 28.6355C151.216 28.6285 152.48 27.7827 153.095 26.1053C153.194 25.8516 160.569 5.64535 160.732 5.152C160.823 4.87008 161 4.19349 161 3.72128C161 2.72048 160.626 1.77607 159.912 1.06423C159.206 0.359442 158.28 0 157.284 0C156.811 0 156.415 0.0845745 155.822 0.274867C155.468 0.387633 136.451 7.44961 134.826 8.05572C133.194 8.66184 132.304 9.9516 132.304 11.3753Z" fill="#ED1C24"/>
<path d="M94.2759 39.4256V21.4888H105.6V24.4348H97.7375V28.6494H104.894V31.5954H97.7375V36.4796H105.883V39.4256H94.2759Z" fill="white"/>
<path d="M118.514 39.4257L117.744 38.2557C117.49 38.4319 117.285 38.6292 117.031 38.8125C116.006 39.5032 114.763 39.7217 113.541 39.7217C110.461 39.7217 107.628 37.8751 107.628 34.5415C107.628 31.9972 109.21 30.9048 110.863 29.3119C109.945 28.1209 109.055 27.1553 109.055 25.5484C109.055 23.0816 111.195 21.7637 113.463 21.7637C115.731 21.7637 117.61 23.1873 117.61 25.5766C117.61 27.5852 116.359 28.727 114.961 29.9181L117.935 33.9283C118.5 32.8359 118.5 31.6448 118.422 30.4467L121.015 30.4748C121.043 30.8766 121.064 31.2854 121.064 31.6941C121.064 33.4279 120.662 34.9714 119.616 36.3457L121.905 39.4186H118.5L118.514 39.4257ZM112.679 31.7294C111.817 32.5963 110.644 33.3504 110.644 34.7247C110.644 36.3739 112.114 37.0646 113.597 37.0646C114.487 37.0646 115.455 36.832 116.091 36.1766L112.679 31.7294ZM113.498 24.2093C112.707 24.2093 112.043 24.7167 112.043 25.5554C112.043 26.4717 112.707 27.2822 113.272 27.9729C114.007 27.3597 114.897 26.521 114.897 25.485C114.897 24.6674 114.261 24.2093 113.498 24.2093Z" fill="white"/>
<path d="M135.758 37.4946C134.593 39.0944 132.678 39.7781 130.743 39.7781C128.397 39.7781 126.257 38.9182 124.738 37.1069C123.134 35.2251 122.647 32.9487 122.647 30.5595C122.647 29.312 122.753 28.0645 123.113 26.8734C124.102 23.3918 126.935 21.1294 130.594 21.1294C134.487 21.1294 136.705 23.5186 136.91 27.3033H133.929C133.625 25.4497 132.579 24.1036 130.566 24.1036C127.133 24.1036 126.243 27.8319 126.243 30.5806C126.243 33.3293 127.309 36.7757 130.644 36.7757C133.01 36.7757 133.929 34.8446 134.028 32.7654H137.136C137.065 34.4922 136.811 36.0638 135.766 37.4875" fill="white"/>
<path d="M10.1022 39.4188L3.4828 29.9182L10.074 21.4819H14.0442L7.31882 29.7914L14.4964 39.4117H10.0952L10.1022 39.4188ZM0 21.489H3.46161V39.4188H0V21.489Z" fill="white"/>
<path d="M29.2966 35.6056C28.357 38.601 25.4817 39.7779 22.5217 39.7779C19.5617 39.7779 16.8701 38.6644 15.8528 35.7888C15.4713 34.7176 15.4219 33.5547 15.4219 32.4341V21.4817H18.8905V31.7645C18.8905 32.8569 18.834 34.2595 19.3992 35.2462C20.0279 36.395 21.3349 36.7685 22.557 36.7685C23.6944 36.7685 25.0013 36.3879 25.6301 35.3448C26.2235 34.3581 26.1882 33.0684 26.1882 31.9407V21.4746H29.6568V32.6737C29.6568 33.6674 29.6074 34.6541 29.2966 35.5986" fill="white"/>
<path d="M46.8305 39.4186V25.4285L42.9874 39.4186H39.4269L35.6333 25.4285V39.4186H32.5249V21.4888H37.3358L41.2284 35.7396L45.1774 21.4888H49.9389V39.4186H46.8305Z" fill="white"/>
<path d="M63.4745 39.4186V31.4968H56.3464V39.4186H52.8848V21.4888H56.3464V28.6494H63.4745V21.4888H66.9361V39.4186H63.4745Z" fill="white"/>
<path d="M77.342 24.0825C73.8592 24.0825 72.8349 27.5853 72.8349 30.4608C72.8349 33.3363 73.8522 36.8321 77.3632 36.8321C80.8743 36.8321 81.8986 33.3293 81.8986 30.4608C81.8986 27.5923 80.8319 24.0825 77.342 24.0825ZM81.4182 38.7138C80.1961 39.4539 78.7408 39.7781 77.342 39.7781C76.1693 39.7781 74.82 39.4821 73.7603 38.9394C70.44 37.2408 69.2532 33.9847 69.2532 30.4537C69.2532 26.9227 70.3411 23.871 73.4848 22.095C74.6505 21.4325 76.028 21.1294 77.3703 21.1294C79.4896 21.1294 81.5525 21.8976 83.0219 23.42C84.8375 25.2735 85.4945 27.9447 85.4945 30.4608C85.4945 33.8085 84.4277 36.9025 81.4253 38.7138" fill="white"/>
</svg>
