<svg id="logo" xmlns="http://www.w3.org/2000/svg" xmlns:xlink="http://www.w3.org/1999/xlink" width="143" height="37.397" viewBox="0 0 143 37.397">
  <defs>
    <clipPath id="clip-path">
      <rect id="사각형_25" data-name="사각형 25" width="143" height="37.397" fill="#174193"/>
    </clipPath>
  </defs>
  <g id="그룹_1" data-name="그룹 1" clip-path="url(#clip-path)">
    <path id="패스_1" data-name="패스 1" d="M248.322,109.372v4.008h-5.234l1.115.834c2.845,2.462,3.556,5.732.893,8.689-5.183,5.754-20.9,5.722-25.9-.28-2.824-3.388-1.068-7.056,2.173-9.243h-5.513l-.167-.167v-3.841Zm-17.731,5.043c-2.533.185-8.031,1.652-6.523,5.231,1.27,3.016,7.4,3.382,10.164,3.085,2.494-.268,7.646-1.721,6.238-5.231-1.193-2.974-7.216-3.279-9.878-3.085" transform="translate(-177.045 -89.776)" fill="#174193"/>
    <path id="패스_2" data-name="패스 2" d="M637.813,22.261h5.123V15.8h5.791V33.061h-5.791V26.269h-5.123c-.939,3.529-4.481,5.818-7.926,6.5-6.652,1.307-16.257-3.287-13.177-11.17,3.2-8.2,18.475-8.028,21.1.666M626.877,19.51c-6.788.364-6.107,10.167.855,9.541,6.43-.578,5.747-9.9-.855-9.541" transform="translate(-505.727 -12.797)" fill="#174193"/>
    <path id="패스_3" data-name="패스 3" d="M239.773,0V3.34h12.7v3.9h-4.121l1.135,1.7c1.369,2.979-.322,5.536-2.815,7.138-3.641,2.339-9.195,2.783-13.392,2.162-5.511-.815-12.831-4.773-7.87-11h-4.121V3.34H233.87V0Zm-3.921,7.27c-2.31.151-7.672,1.366-6.051,4.759,1.685,3.527,11.825,3.495,13.963.255.989-1.5.141-2.925-1.215-3.758a12.2,12.2,0,0,0-6.7-1.257" transform="translate(-181.637)" fill="#174193"/>
    <path id="패스_4" data-name="패스 4" d="M648.514,123.043v2.895h16.26v-2.895h5.791V136.07H643.781c-.372,0-1.058-.829-1.058-1.169V123.043Zm16.26,6.9h-16.26v2.115h16.26Z" transform="translate(-527.566 -100.997)" fill="#174193"/>
    <path id="패스_5" data-name="패스 5" d="M23.722,18.643v4.008H15.369c.3,5.378,2.743,10.146,8.018,12.026l-2.565,3.065c-.5.226-2.886-1.231-3.418-1.594a17.178,17.178,0,0,1-3.975-3.82L12.14,30.111a9.492,9.492,0,0,1-3.178,4.005A19.718,19.718,0,0,1,2.614,37.8L0,34.678c2.959-1.265,5.769-3.068,7.369-5.939a16.244,16.244,0,0,0,1.763-6.087H.668V18.643Z" transform="translate(0 -15.303)" fill="#174193"/>
    <path id="패스_6" data-name="패스 6" d="M423.979,23.161v-3.9h16.65a7.788,7.788,0,0,1,.783.33c1.732,1,.787,4.61.422,6.219-1.919,8.448-6.9,16.916-14.1,21.826l-4.417-2.71a34.417,34.417,0,0,0,10.932-13.676,27.568,27.568,0,0,0,2.083-6.936c.04-.321.164-.957-.042-1.156Z" transform="translate(-347.468 -15.812)" fill="#174193"/>
    <rect id="사각형_24" data-name="사각형 24" width="5.791" height="32.401" transform="translate(99.343 2.784)" fill="#174193"/>
    <path id="패스_7" data-name="패스 7" d="M29.522,136.093v7.126H51.684v4.008H25.011c-.508,0-1.392-.774-1.392-1.28v-9.854Z" transform="translate(-19.387 -111.709)" fill="#174193"/>
    <path id="패스_8" data-name="패스 8" d="M153.218,15.536V38.25h-5.736l-.167-.167V15.536Z" transform="translate(-120.921 -12.752)" fill="#174193"/>
  </g>
</svg>
