<svg width="38" height="20" viewBox="0 0 38 20" fill="none" xmlns="http://www.w3.org/2000/svg">
<path d="M13.5003 13.6663V0.833008H30.0003C32.017 0.833008 33.7434 1.55106 35.1795 2.98717C36.6156 4.42329 37.3337 6.14967 37.3337 8.16634V13.6663H13.5003ZM0.666992 19.1663V15.4997H37.3337V19.1663H0.666992ZM6.16699 13.6663C4.63921 13.6663 3.3406 13.1316 2.27116 12.0622C1.20171 10.9927 0.666992 9.69412 0.666992 8.16634C0.666992 6.63856 1.20171 5.33995 2.27116 4.27051C3.3406 3.20106 4.63921 2.66634 6.16699 2.66634C7.69477 2.66634 8.99338 3.20106 10.0628 4.27051C11.1323 5.33995 11.667 6.63856 11.667 8.16634C11.667 9.69412 11.1323 10.9927 10.0628 12.0622C8.99338 13.1316 7.69477 13.6663 6.16699 13.6663ZM6.16699 9.99967C6.68644 9.99967 7.12185 9.82398 7.47324 9.47259C7.82463 9.1212 8.00033 8.68579 8.00033 8.16634C8.00033 7.6469 7.82463 7.21148 7.47324 6.86009C7.12185 6.5087 6.68644 6.33301 6.16699 6.33301C5.64755 6.33301 5.21213 6.5087 4.86074 6.86009C4.50935 7.21148 4.33366 7.6469 4.33366 8.16634C4.33366 8.68579 4.50935 9.1212 4.86074 9.47259C5.21213 9.82398 5.64755 9.99967 6.16699 9.99967ZM17.167 9.99967H33.667V8.16634C33.667 7.15801 33.308 6.29481 32.5899 5.57676C31.8719 4.8587 31.0087 4.49967 30.0003 4.49967H17.167V9.99967Z" fill="white" fill-opacity="0.8"/>
</svg>
