<svg width="39" height="34" viewBox="0 0 39 34" fill="none" xmlns="http://www.w3.org/2000/svg">
<path d="M8.74976 24.667C7.76434 24.667 6.92077 24.3161 6.21903 23.6144C5.5173 22.9127 5.16643 22.0691 5.16643 21.0837C5.16643 20.0982 5.5173 19.2547 6.21903 18.5529C6.92077 17.8512 7.76434 17.5003 8.74976 17.5003C9.73518 17.5003 10.5788 17.8512 11.2805 18.5529C11.9822 19.2547 12.3331 20.0982 12.3331 21.0837C12.3331 22.0691 11.9822 22.9127 11.2805 23.6144C10.5788 24.3161 9.73518 24.667 8.74976 24.667ZM30.2498 24.667C29.2643 24.667 28.4208 24.3161 27.719 23.6144C27.0173 22.9127 26.6664 22.0691 26.6664 21.0837C26.6664 20.0982 27.0173 19.2547 27.719 18.5529C28.4208 17.8512 29.2643 17.5003 30.2498 17.5003C31.2352 17.5003 32.0788 17.8512 32.7805 18.5529C33.4822 19.2547 33.8331 20.0982 33.8331 21.0837C33.8331 22.0691 33.4822 22.9127 32.7805 23.6144C32.0788 24.3161 31.2352 24.667 30.2498 24.667ZM19.4998 22.8753C18.2456 22.8753 17.1855 22.4423 16.3196 21.5764C15.4536 20.7104 15.0206 19.6503 15.0206 18.3962C15.0206 17.142 15.4536 16.0819 16.3196 15.216C17.1855 14.35 18.2456 13.917 19.4998 13.917C20.7539 13.917 21.814 14.35 22.68 15.216C23.5459 16.0819 23.9789 17.142 23.9789 18.3962C23.9789 19.6503 23.5459 20.7104 22.68 21.5764C21.814 22.4423 20.7539 22.8753 19.4998 22.8753ZM10.7206 33.6253C10.9296 32.5802 11.3029 31.6321 11.8404 30.7811C12.3779 29.93 13.0348 29.176 13.8112 28.5191C14.5876 27.8621 15.461 27.3545 16.4315 26.9962C17.402 26.6378 18.4248 26.4587 19.4998 26.4587C20.5748 26.4587 21.5975 26.6378 22.568 26.9962C23.5385 27.3545 24.4119 27.8621 25.1883 28.5191C25.9647 29.176 26.6216 29.93 27.1591 30.7811C27.6966 31.6321 28.0699 32.5802 28.2789 33.6253H10.7206ZM3.86747 33.6253C3.24039 33.6253 2.70289 33.4163 2.25497 32.9982C1.80705 32.5802 1.58309 32.1024 1.58309 31.5649C1.58309 30.4003 2.2923 29.2581 3.7107 28.1383C5.1291 27.0186 6.764 26.4587 8.61539 26.4587C9.12303 26.4587 9.61573 26.5034 10.0935 26.593C10.5713 26.6826 11.0341 26.817 11.4821 26.9962C10.5862 27.8621 9.83969 28.855 9.24247 29.9748C8.64525 31.0946 8.24212 32.3114 8.03309 33.6253H3.86747ZM30.9664 33.6253C30.7574 32.3114 30.3543 31.0946 29.7571 29.9748C29.1598 28.855 28.4133 27.8621 27.5175 26.9962C27.9654 26.817 28.4208 26.6826 28.8836 26.593C29.3465 26.5034 29.8317 26.4587 30.3393 26.4587C32.1907 26.4587 33.8331 27.0186 35.2664 28.1383C36.6998 29.2581 37.4164 30.4003 37.4164 31.5649C37.4164 32.1323 37.1925 32.6175 36.7446 33.0206C36.2966 33.4238 35.7442 33.6253 35.0873 33.6253H30.9664ZM0.866428 16.067C0.567817 15.6489 0.448372 15.201 0.508095 14.7232C0.567817 14.2455 0.806706 13.8573 1.22476 13.5587L17.305 1.24095C17.9619 0.733312 18.6935 0.479492 19.4998 0.479492C20.306 0.479492 21.0376 0.733312 21.6946 1.24095L26.6664 5.04824V4.06283C26.6664 3.3163 26.9277 2.68175 27.4503 2.15918C27.9729 1.63661 28.6074 1.37533 29.3539 1.37533C30.1005 1.37533 30.735 1.63661 31.2576 2.15918C31.7801 2.68175 32.0414 3.3163 32.0414 4.06283V9.16908L37.7748 13.5587C38.163 13.8573 38.3944 14.2455 38.469 14.7232C38.5437 15.201 38.4317 15.6489 38.1331 16.067C37.8345 16.485 37.4463 16.7239 36.9685 16.7837C36.4907 16.8434 36.0428 16.7239 35.6248 16.4253L19.4998 4.10762L3.37476 16.4253C2.95671 16.7239 2.50879 16.8434 2.03101 16.7837C1.55323 16.7239 1.16504 16.485 0.866428 16.067Z" fill="#1D1D1D"/>
</svg>
