<svg width="15" height="15" viewBox="0 0 15 15" fill="none" xmlns="http://www.w3.org/2000/svg">
<path d="M1.69148 14.5832H1.12481V13.1665H1.69148C2.25814 13.1665 2.79825 13.1045 3.31179 12.9806C3.82533 12.8566 4.40085 12.6589 5.03835 12.3873C5.48696 12.6116 5.8795 12.7976 6.21596 12.9452C6.55241 13.0927 6.98037 13.1665 7.49981 13.1665C8.01925 13.1665 8.44721 13.0927 8.78366 12.9452C9.12012 12.7976 9.51266 12.6116 9.96127 12.3873C10.587 12.6589 11.1625 12.8566 11.6878 12.9806C12.2132 13.1045 12.7592 13.1665 13.3259 13.1665H13.8748V14.5832H13.3259C12.7474 14.5832 12.1837 14.53 11.6347 14.4238C11.0857 14.3175 10.5456 14.1582 10.0144 13.9457C9.54217 14.17 9.11127 14.3294 8.72169 14.4238C8.3321 14.5182 7.92481 14.5655 7.49981 14.5655C7.07481 14.5655 6.67047 14.5182 6.28679 14.4238C5.90311 14.3294 5.47516 14.17 5.00293 13.9457C4.47169 14.1582 3.93158 14.3175 3.38262 14.4238C2.83366 14.53 2.26995 14.5832 1.69148 14.5832ZM7.49981 11.7498C6.79148 11.7498 6.17168 11.5137 5.64043 11.0415L4.84356 10.3332C4.52481 10.6519 4.16769 10.9234 3.77221 11.1478C3.37672 11.3721 2.95467 11.5314 2.50606 11.6259L1.00085 6.7915C0.941824 6.59081 0.959532 6.40782 1.05398 6.24255C1.14842 6.07727 1.29599 5.96512 1.49668 5.90609L2.54148 5.62275V3.24984C2.54148 2.86025 2.68019 2.52675 2.95762 2.24932C3.23505 1.97189 3.56856 1.83317 3.95814 1.83317H5.72898V0.416504H9.27064V1.83317H11.0415C11.4311 1.83317 11.7646 1.97189 12.042 2.24932C12.3194 2.52675 12.4581 2.86025 12.4581 3.24984V5.62275L13.5029 5.90609C13.7036 5.96512 13.8512 6.07727 13.9456 6.24255C14.0401 6.40782 14.0578 6.59081 13.9988 6.7915L12.4936 11.6259C12.0449 11.5314 11.6229 11.3721 11.2274 11.1478C10.8319 10.9234 10.4748 10.6519 10.1561 10.3332L9.35919 11.0415C8.82794 11.5137 8.20814 11.7498 7.49981 11.7498ZM7.53523 10.3332C7.9012 10.3332 8.22585 10.2122 8.50919 9.97015C8.79252 9.72814 9.05224 9.47137 9.28835 9.19984L10.1029 8.2613L10.829 9.00505C10.9588 9.13491 11.0917 9.25591 11.2274 9.36807C11.3632 9.48022 11.496 9.59532 11.6259 9.71338L12.4404 7.07484L7.49981 5.78213L2.57689 7.07484L3.39148 9.71338C3.52134 9.59532 3.65415 9.48022 3.78991 9.36807C3.92568 9.25591 4.05849 9.13491 4.18835 9.00505L4.91439 8.2613L5.72898 9.19984C5.96509 9.48317 6.23071 9.74289 6.52585 9.979C6.82099 10.2151 7.15745 10.3332 7.53523 10.3332ZM3.95814 5.25088L7.49981 4.31234L11.0415 5.25088V3.24984H3.95814V5.25088Z" fill="white"/>
</svg>
