<svg xmlns="http://www.w3.org/2000/svg" width="74" height="74" viewBox="0 0 74 74">
  <g id="그룹_8" data-name="그룹 8" transform="translate(492 -6479)">
    <path id="패스_14" data-name="패스 14" d="M248.322,109.372v4.008h-5.234l1.115.834c2.845,2.462,3.556,5.732.893,8.689-5.183,5.754-20.9,5.722-25.9-.28-2.824-3.388-1.068-7.056,2.173-9.243h-5.513l-.167-.167v-3.841Zm-17.731,5.043c-2.533.185-8.031,1.652-6.523,5.231,1.27,3.016,7.4,3.382,10.164,3.085,2.494-.268,7.646-1.721,6.238-5.231-1.193-2.974-7.216-3.279-9.878-3.085" transform="translate(-667.045 6409.026)" fill="#174193"/>
    <path id="패스_15" data-name="패스 15" d="M239.773,0V3.34h12.7v3.9h-4.121l1.135,1.7c1.369,2.979-.322,5.536-2.815,7.138-3.641,2.339-9.195,2.783-13.392,2.162-5.511-.815-12.831-4.773-7.87-11h-4.121V3.34H233.87V0Zm-3.921,7.27c-2.31.151-7.672,1.366-6.051,4.759,1.685,3.527,11.825,3.495,13.963.255.989-1.5.141-2.925-1.215-3.758a12.2,12.2,0,0,0-6.7-1.257" transform="translate(-671.637 6498.802)" fill="#174193"/>
    <path id="패스_16" data-name="패스 16" d="M23.722,18.643v4.008H15.369c.3,5.378,2.743,10.146,8.018,12.026l-2.565,3.065c-.5.226-2.886-1.231-3.418-1.594a17.178,17.178,0,0,1-3.975-3.82L12.14,30.111a9.492,9.492,0,0,1-3.178,4.005A19.718,19.718,0,0,1,2.614,37.8L0,34.678c2.959-1.265,5.769-3.068,7.369-5.939a16.244,16.244,0,0,0,1.763-6.087H.668V18.643Z" transform="translate(-492 6483.499)" fill="#174193"/>
    <path id="패스_17" data-name="패스 17" d="M29.522,136.093v7.126H51.684v4.008H25.011c-.508,0-1.392-.774-1.392-1.28v-9.854Z" transform="translate(-511.387 6387.093)" fill="#174193"/>
    <path id="패스_18" data-name="패스 18" d="M153.218,15.536V38.25h-5.736l-.167-.167V15.536Z" transform="translate(-612.122 6486.05)" fill="#174193"/>
    <rect id="사각형_38" data-name="사각형 38" width="74" height="74" transform="translate(-492 6479)" fill="none"/>
  </g>
</svg>
