<svg width="222" height="37" viewBox="0 0 222 37" fill="none" xmlns="http://www.w3.org/2000/svg">
<path d="M220.193 30.4846C219.854 30.4846 219.596 30.3797 219.419 30.1701C219.258 29.9765 219.177 29.7184 219.177 29.3959V21.8715C219.177 21.2425 219.177 20.6215 219.177 20.0086C219.177 19.3795 219.169 18.7505 219.153 18.1215L218.935 18.1456C218.451 18.1779 218 18.2021 217.58 18.2182C217.177 18.2344 216.733 18.2586 216.25 18.2908C216.121 18.3069 215.983 18.3231 215.838 18.3392C215.693 18.3553 215.556 18.3634 215.427 18.3634C215.153 18.3634 214.911 18.2747 214.701 18.0973C214.508 17.9198 214.411 17.686 214.411 17.3956C214.411 17.1698 214.475 16.9682 214.604 16.7908C214.701 16.6456 214.814 16.5327 214.943 16.4521C215.088 16.3714 215.233 16.315 215.379 16.2827C215.54 16.2505 215.701 16.2343 215.862 16.2343C216.04 16.2182 216.209 16.2021 216.371 16.1859C216.854 16.1537 217.298 16.1295 217.701 16.1134C218.104 16.0972 218.556 16.073 219.056 16.0408H219.104C219.088 15.4924 219.064 14.952 219.032 14.4198C219.016 13.8875 218.992 13.3472 218.959 12.7988C218.927 12.3794 218.895 11.9681 218.863 11.5649C218.83 11.1616 218.814 10.7504 218.814 10.331C218.814 10.0084 218.935 9.7342 219.177 9.50839C219.435 9.28258 219.717 9.16968 220.024 9.16968C220.459 9.16968 220.774 9.36323 220.967 9.75033C221 9.81485 221.032 10.0407 221.064 10.4278C221.096 10.8149 221.129 11.2907 221.161 11.8552C221.193 12.4197 221.225 13.0327 221.258 13.694C221.29 14.3391 221.314 14.9601 221.33 15.5569C221.346 16.1537 221.363 16.6859 221.379 17.1537C221.395 17.6214 221.403 17.936 221.403 18.0973V29.3233C221.403 29.6459 221.274 29.9201 221.016 30.1459C220.774 30.3717 220.5 30.4846 220.193 30.4846ZM208.628 24.4361C209.322 24.4361 210.008 24.4038 210.685 24.3393C211.379 24.2587 212.064 24.1699 212.741 24.0732C213.016 24.0248 213.298 23.9603 213.588 23.8796C213.895 23.799 214.185 23.7587 214.459 23.7587C214.733 23.7587 214.967 23.8474 215.161 24.0248C215.371 24.2022 215.475 24.4361 215.475 24.7264C215.475 24.9361 215.419 25.1296 215.306 25.3071C215.193 25.4684 215.048 25.6055 214.871 25.7184C214.741 25.7829 214.516 25.8555 214.193 25.9361C213.887 26.0006 213.524 26.0651 213.104 26.1297C212.685 26.1942 212.241 26.2587 211.774 26.3232C211.306 26.3716 210.854 26.4119 210.419 26.4442C209.983 26.4764 209.588 26.5087 209.233 26.541C208.878 26.5571 208.612 26.5652 208.435 26.5652C208.096 26.5652 207.701 26.5571 207.249 26.541C206.814 26.5248 206.378 26.4684 205.943 26.3716C205.524 26.2587 205.136 26.0974 204.782 25.8877C204.443 25.678 204.209 25.3796 204.08 24.9925C204.015 24.8151 203.975 24.5651 203.959 24.2425C203.959 23.9038 203.959 23.6377 203.959 23.4441C203.927 22.928 203.911 22.4119 203.911 21.8957C203.911 21.3796 203.911 20.8634 203.911 20.3473V18.5328L203.983 14.8795V13.0649C203.983 12.7423 203.967 12.3875 203.935 12.0004C203.919 11.6133 203.951 11.2826 204.032 11.0084C204.096 10.7181 204.217 10.5084 204.395 10.3794C204.572 10.2503 204.774 10.1616 204.999 10.1132C205.241 10.0649 205.491 10.0487 205.749 10.0649C206.007 10.0649 206.249 10.0649 206.475 10.0649H209.596C209.741 10.0649 210.016 10.0649 210.419 10.0649C210.822 10.0649 211.241 10.0729 211.677 10.0891C212.112 10.0891 212.516 10.1052 212.887 10.1374C213.258 10.1536 213.491 10.1858 213.588 10.2342C213.959 10.4278 214.145 10.7181 214.145 11.1052C214.145 11.4278 214.016 11.702 213.758 11.9278C213.516 12.1536 213.241 12.2665 212.935 12.2665C212.709 12.2665 212.483 12.2584 212.258 12.2423C212.032 12.2262 211.806 12.2101 211.58 12.1939C211.032 12.1778 210.483 12.1697 209.935 12.1697C209.387 12.1697 208.838 12.1697 208.29 12.1697H206.233C206.217 12.9923 206.201 13.7988 206.185 14.5891C206.185 15.3795 206.177 16.1859 206.161 17.0085H206.79C207.822 17.0085 208.846 16.9843 209.862 16.9359C210.895 16.8876 211.919 16.8634 212.935 16.8634C213.209 16.8634 213.443 16.9521 213.637 17.1295C213.846 17.3069 213.951 17.5408 213.951 17.8311C213.951 18.2505 213.798 18.5489 213.491 18.7263C213.185 18.9037 212.846 18.9924 212.475 18.9924C211.411 18.9924 210.354 19.0166 209.306 19.065C208.258 19.1134 207.201 19.1457 206.136 19.1618V21.1699C206.136 21.6699 206.145 22.1699 206.161 22.6699C206.177 23.1538 206.201 23.6457 206.233 24.1458C206.362 24.2103 206.532 24.2667 206.741 24.3151C206.951 24.3474 207.169 24.3716 207.395 24.3877C207.62 24.4038 207.838 24.42 208.048 24.4361C208.274 24.4361 208.467 24.4361 208.628 24.4361Z" fill="#1D1D1D"/>
<path d="M194.483 23.3956C194.015 23.3956 193.693 23.1779 193.515 22.7424C193.499 22.7101 193.483 22.4763 193.467 22.0408C193.451 21.5892 193.426 21.0246 193.394 20.3472C193.378 19.6536 193.354 18.8794 193.322 18.0246C193.305 17.1697 193.289 16.3149 193.273 15.46L192.402 15.5084C192.031 15.5245 191.652 15.5487 191.265 15.581C190.878 15.5971 190.499 15.6052 190.128 15.6052C189.854 15.6052 189.612 15.5165 189.402 15.339C189.209 15.1616 189.112 14.9277 189.112 14.6374C189.112 14.3632 189.209 14.1213 189.402 13.9116C189.596 13.7019 189.822 13.5648 190.08 13.5003C190.225 13.468 190.362 13.46 190.491 13.4761C190.636 13.4761 190.781 13.468 190.926 13.4519L191.943 13.4035C192.152 13.3874 192.362 13.3793 192.572 13.3793C192.781 13.3632 192.999 13.339 193.225 13.3067C193.193 12.4842 193.168 11.7745 193.152 11.1777C193.152 10.5648 193.152 10.1535 193.152 9.94378C193.152 9.6212 193.273 9.347 193.515 9.12119C193.773 8.89538 194.055 8.78247 194.362 8.78247C194.83 8.78247 195.152 9.00022 195.33 9.43571C195.346 9.46797 195.362 9.65345 195.378 9.99217C195.394 10.3309 195.41 10.7825 195.426 11.347C195.443 11.8954 195.459 12.5245 195.475 13.2342C195.507 13.9439 195.531 14.6777 195.547 15.4358C195.564 16.1778 195.58 16.9197 195.596 17.6617C195.612 18.4036 195.628 19.0891 195.644 19.7182C195.66 20.3311 195.668 20.8633 195.668 21.315C195.685 21.7666 195.693 22.073 195.693 22.2343C195.693 22.5569 195.564 22.8311 195.306 23.0569C195.064 23.2827 194.789 23.3956 194.483 23.3956ZM197.386 17.2746C197.386 16.2907 197.386 15.3148 197.386 14.3471C197.386 13.3632 197.37 12.3712 197.338 11.3712C197.322 11.1293 197.306 10.8954 197.289 10.6696C197.273 10.4277 197.265 10.1857 197.265 9.94378C197.265 9.6212 197.386 9.347 197.628 9.12119C197.886 8.89538 198.168 8.78247 198.475 8.78247C198.878 8.78247 199.185 8.95989 199.394 9.31474C199.443 9.39539 199.475 9.60507 199.491 9.94378C199.523 10.2825 199.548 10.6938 199.564 11.1777C199.596 11.6454 199.612 12.1616 199.612 12.7261C199.628 13.2745 199.636 13.8068 199.636 14.3229C199.636 14.839 199.636 15.3068 199.636 15.7261C199.636 16.1455 199.636 16.452 199.636 16.6455C199.636 16.7907 199.636 17.0407 199.636 17.3955C199.636 17.7342 199.628 18.1294 199.612 18.581C199.612 19.0165 199.604 19.4762 199.588 19.9601C199.588 20.444 199.58 20.9037 199.564 21.3392C199.548 21.7585 199.523 22.1214 199.491 22.4279C199.475 22.7343 199.451 22.9279 199.419 23.0085C199.306 23.2343 199.144 23.4198 198.935 23.565C198.741 23.694 198.523 23.7585 198.281 23.7585C198.007 23.7585 197.765 23.6698 197.556 23.4924C197.362 23.315 197.265 23.0811 197.265 22.7908C197.265 22.3876 197.273 21.9924 197.289 21.6053C197.322 21.2021 197.346 20.7988 197.362 20.3956C197.378 19.8794 197.386 19.3633 197.386 18.8472C197.386 18.3149 197.386 17.7907 197.386 17.2746ZM180.475 20.0327C180.475 19.8553 180.523 19.6778 180.62 19.5004C180.749 19.2746 180.91 19.0649 181.104 18.8714C181.297 18.6778 181.483 18.4762 181.66 18.2665C182.015 17.8472 182.362 17.4359 182.7 17.0326C183.055 16.6133 183.418 16.1939 183.789 15.7745C183.934 15.5971 184.088 15.4197 184.249 15.2423C184.426 15.0487 184.571 14.8471 184.684 14.6374C184.797 14.3955 184.902 14.1132 184.999 13.7906C185.112 13.4519 185.209 13.1051 185.289 12.7503C185.37 12.3793 185.442 12.0164 185.507 11.6616C185.588 11.3067 185.652 10.9922 185.701 10.718C185.733 10.589 185.757 10.4599 185.773 10.3309C185.789 10.1857 185.821 10.0486 185.87 9.91959C185.951 9.69378 186.096 9.50829 186.305 9.36313C186.531 9.20183 186.765 9.12119 187.007 9.12119C187.281 9.12119 187.515 9.2099 187.709 9.38732C187.918 9.56474 188.023 9.79862 188.023 10.0889C188.023 10.2341 188.007 10.3793 187.975 10.5244C187.942 10.6696 187.91 10.8148 187.878 10.9599C187.749 11.6051 187.62 12.2664 187.491 12.9438C187.362 13.6051 187.176 14.2422 186.934 14.8552C187.063 14.9842 187.176 15.1213 187.273 15.2665C187.386 15.3955 187.483 15.5003 187.563 15.581C187.999 16.0487 188.459 16.4762 188.943 16.8633C189.443 17.2342 189.975 17.5649 190.539 17.8552C190.684 17.9359 190.83 18.0084 190.975 18.073C191.136 18.1375 191.281 18.2181 191.41 18.3149C191.539 18.3955 191.644 18.5004 191.725 18.6294C191.822 18.7585 191.87 18.9198 191.87 19.1133C191.87 19.4359 191.741 19.7101 191.483 19.9359C191.241 20.1617 190.967 20.2746 190.66 20.2746C190.451 20.2746 190.257 20.2262 190.08 20.1295C189.902 20.0327 189.725 19.9359 189.547 19.8391C189.128 19.6133 188.741 19.3956 188.386 19.1859C188.047 18.9601 187.725 18.7262 187.418 18.4843C187.112 18.2423 186.805 17.9923 186.499 17.7342C186.209 17.46 185.91 17.1536 185.604 16.8149C185.297 17.1858 184.967 17.5891 184.612 18.0246C184.257 18.4601 183.918 18.8633 183.596 19.2343C183.273 19.6052 182.991 19.9278 182.749 20.202C182.507 20.4762 182.346 20.6456 182.265 20.7101C182.023 20.9037 181.765 21.0004 181.491 21.0004C181.217 21.0004 180.975 20.9117 180.765 20.7343C180.571 20.5569 180.475 20.323 180.475 20.0327ZM187.08 30.7022C186.451 30.7022 185.959 30.5732 185.604 30.3151C185.249 30.0732 184.983 29.7506 184.805 29.3474C184.628 28.9603 184.507 28.5248 184.442 28.0409C184.394 27.557 184.354 27.0731 184.321 26.5892C184.289 26.1215 184.257 25.6699 184.225 25.2344C184.192 24.7828 184.176 24.3231 184.176 23.8553C184.176 23.5327 184.297 23.2585 184.539 23.0327C184.797 22.8069 185.08 22.694 185.386 22.694C185.692 22.694 185.918 22.7666 186.063 22.9118C186.209 23.0569 186.305 23.2343 186.354 23.444C186.418 23.6537 186.451 23.8876 186.451 24.1457C186.451 24.3876 186.459 24.6134 186.475 24.8231C186.475 24.9683 186.483 25.2344 186.499 25.6215C186.515 25.9925 186.539 26.3876 186.571 26.807C186.62 27.2102 186.676 27.5812 186.741 27.9199C186.805 28.2586 186.878 28.4602 186.959 28.5248C187.007 28.557 187.063 28.5732 187.128 28.5732C187.209 28.5893 187.273 28.5973 187.322 28.5973H187.733L188.555 28.549H188.967C189.418 28.5328 189.87 28.5248 190.322 28.5248C190.773 28.5248 191.225 28.5248 191.676 28.5248C192.499 28.5248 193.314 28.5328 194.12 28.549C194.926 28.5651 195.741 28.5732 196.564 28.5732H196.902L197.556 28.549H197.87C198.064 28.549 198.273 28.549 198.499 28.549C198.725 28.549 198.935 28.5732 199.128 28.6215C199.338 28.6861 199.507 28.7828 199.636 28.9119C199.781 29.057 199.854 29.2667 199.854 29.5409C199.854 29.8635 199.725 30.1377 199.467 30.3635C199.225 30.5893 198.951 30.7022 198.644 30.7022H196.733L192.886 30.6296H190.951C190.58 30.6296 190.217 30.6296 189.862 30.6296C189.507 30.6296 189.144 30.6377 188.773 30.6538C188.499 30.67 188.217 30.678 187.926 30.678C187.636 30.6942 187.354 30.7022 187.08 30.7022Z" fill="#1D1D1D"/>
<path d="M166.785 9.94378C166.785 9.6212 166.906 9.347 167.148 9.12119C167.406 8.89538 167.688 8.78247 167.995 8.78247C168.301 8.78247 168.527 8.85505 168.672 9.00022C168.817 9.12925 168.914 9.29861 168.962 9.50829C169.027 9.71797 169.051 9.95185 169.035 10.2099C169.035 10.4519 169.035 10.6777 169.035 10.8873V12.0245C169.858 11.9922 170.664 11.968 171.454 11.9519C172.245 11.9358 173.051 11.9277 173.874 11.9277L174.382 11.9519H174.648C174.825 11.9519 175.003 11.968 175.18 12.0003C175.358 12.0164 175.511 12.0567 175.64 12.1212C175.785 12.1696 175.898 12.2583 175.979 12.3874C176.075 12.5164 176.124 12.6938 176.124 12.9196C176.124 13.2422 175.995 13.5164 175.737 13.7422C175.495 13.968 175.221 14.081 174.914 14.081H174.527L173.777 14.0568H173.39C171.745 14.0568 170.108 14.089 168.479 14.1535C166.866 14.2181 165.237 14.2745 163.591 14.3229C163.059 14.3552 162.527 14.3793 161.995 14.3955C161.462 14.4116 160.93 14.4197 160.398 14.4197C160.124 14.4197 159.882 14.331 159.672 14.1535C159.478 13.9761 159.382 13.7422 159.382 13.4519C159.382 13.1938 159.462 12.9761 159.624 12.7987C159.785 12.6051 159.978 12.46 160.204 12.3632C160.301 12.3309 160.559 12.3067 160.978 12.2906C161.414 12.2583 161.89 12.2422 162.406 12.2422C162.938 12.2261 163.438 12.218 163.906 12.218C164.39 12.2019 164.72 12.1938 164.898 12.1938L166.785 12.1212V9.94378ZM168.043 29.5409H166.495L163.398 29.5893H161.849C161.769 29.5893 161.551 29.5893 161.196 29.5893C160.857 29.5893 160.486 29.5812 160.083 29.5651C159.696 29.5651 159.341 29.557 159.019 29.5409C158.696 29.5409 158.511 29.5328 158.462 29.5167C158.059 29.3554 157.857 29.0893 157.857 28.7183C157.857 28.4441 157.938 28.2102 158.099 28.0167C158.277 27.8393 158.478 27.7022 158.704 27.6054C158.753 27.5731 158.801 27.557 158.849 27.557C158.914 27.557 158.978 27.5489 159.043 27.5328C159.22 27.5167 159.39 27.5086 159.551 27.5086C159.712 27.5247 159.882 27.5328 160.059 27.5328H162.188H166.737C166.737 27.0651 166.737 26.6054 166.737 26.1538C166.753 25.686 166.769 25.2183 166.785 24.7505C166.785 24.686 166.777 24.6295 166.761 24.5811C166.761 24.5166 166.761 24.4521 166.761 24.3876C166.293 24.3392 165.817 24.2666 165.333 24.1698C164.849 24.0569 164.382 23.9037 163.93 23.7102C163.495 23.5166 163.083 23.2827 162.696 23.0085C162.325 22.7343 162.019 22.4118 161.777 22.0408C161.599 21.7827 161.454 21.5085 161.341 21.2182C161.245 20.9279 161.196 20.6214 161.196 20.2988C161.196 20.0085 161.228 19.7262 161.293 19.452C161.357 19.1617 161.438 18.8794 161.535 18.6052C161.793 17.9278 162.172 17.3633 162.672 16.9117C163.188 16.4439 163.761 16.0729 164.39 15.7987C165.035 15.5084 165.704 15.3068 166.398 15.1939C167.108 15.0648 167.793 15.0003 168.454 15.0003C169.003 15.0003 169.559 15.0406 170.124 15.1213C170.688 15.2019 171.229 15.339 171.745 15.5326C172.261 15.7261 172.737 15.9923 173.172 16.331C173.624 16.6536 173.995 17.0649 174.285 17.5649C174.463 17.8713 174.6 18.1939 174.696 18.5326C174.809 18.8552 174.866 19.194 174.866 19.5488C174.866 20.3553 174.688 21.0488 174.334 21.6295C173.995 22.2101 173.543 22.694 172.979 23.0811C172.414 23.4521 171.777 23.7424 171.067 23.9521C170.374 24.1618 169.68 24.2989 168.987 24.3634V24.7505L168.962 26.6376V27.5086H172.253C172.35 27.5086 172.543 27.5086 172.833 27.5086C173.14 27.5086 173.495 27.5086 173.898 27.5086C174.317 27.5086 174.745 27.5086 175.18 27.5086C175.632 27.5247 176.051 27.5328 176.438 27.5328C176.842 27.5489 177.172 27.5651 177.43 27.5812C177.705 27.5973 177.866 27.6135 177.914 27.6296C178.076 27.7102 178.205 27.807 178.301 27.9199C178.414 28.049 178.471 28.2102 178.471 28.4038C178.471 28.7425 178.334 29.0248 178.059 29.2506C177.801 29.4764 177.511 29.5893 177.188 29.5893H174.914L170.342 29.5409H168.043ZM168.237 17.1052C167.785 17.1052 167.277 17.1536 166.712 17.2504C166.164 17.331 165.648 17.4842 165.164 17.7101C164.68 17.9359 164.269 18.2423 163.93 18.6294C163.608 19.0004 163.446 19.4762 163.446 20.0569C163.446 20.2504 163.495 20.4359 163.591 20.6133C163.688 20.7746 163.801 20.9279 163.93 21.073C164.156 21.2988 164.43 21.4924 164.753 21.6537C165.075 21.815 165.414 21.944 165.769 22.0408C166.14 22.1376 166.503 22.2101 166.858 22.2585C167.229 22.3069 167.575 22.3311 167.898 22.3311C168.188 22.3311 168.535 22.315 168.938 22.2827C169.358 22.2343 169.777 22.1617 170.196 22.065C170.616 21.9521 171.003 21.815 171.358 21.6537C171.729 21.4924 172.011 21.2908 172.204 21.0488C172.495 20.694 172.64 20.2666 172.64 19.7665C172.64 19.4117 172.535 19.073 172.325 18.7504C172.132 18.4117 171.874 18.1375 171.551 17.9278C171.229 17.7181 170.882 17.5568 170.511 17.4439C170.14 17.3149 169.753 17.2262 169.35 17.1778C168.962 17.1294 168.591 17.1052 168.237 17.1052Z" fill="#1D1D1D"/>
<path d="M146.637 27.4603H149.806C149.903 27.4603 150.105 27.4603 150.411 27.4603C150.718 27.4603 151.072 27.4603 151.476 27.4603C151.879 27.4603 152.306 27.4603 152.758 27.4603C153.21 27.4764 153.621 27.4845 153.992 27.4845C154.379 27.5006 154.71 27.5167 154.984 27.5329C155.258 27.549 155.419 27.5651 155.468 27.5813C155.887 27.7587 156.097 28.0571 156.097 28.4764C156.097 28.799 155.976 29.0732 155.734 29.299C155.492 29.5248 155.21 29.6377 154.887 29.6377H152.613L148.04 29.5894H143.685L139.475 29.6136H137.395C137.217 29.6136 137.016 29.6136 136.79 29.6136C136.564 29.6136 136.354 29.5894 136.161 29.541C135.967 29.4926 135.806 29.3958 135.677 29.2506C135.548 29.1216 135.483 28.92 135.483 28.6458C135.483 28.3877 135.564 28.1619 135.725 27.9684C135.887 27.7748 136.08 27.6377 136.306 27.5571C136.403 27.5087 136.516 27.4845 136.645 27.4845C137.161 27.4522 137.685 27.4442 138.217 27.4603C138.75 27.4764 139.274 27.4845 139.79 27.4845H144.363V27.4361L144.387 25.3796V24.3635C144.387 24.186 144.379 23.9441 144.363 23.6376C144.346 23.3312 144.346 23.0328 144.363 22.7425C143.895 22.7586 143.419 22.7747 142.935 22.7909C142.467 22.7909 141.992 22.7909 141.508 22.7909C141.137 22.7909 140.717 22.7667 140.25 22.7183C139.798 22.6538 139.435 22.4763 139.161 22.186C139.032 22.0408 138.911 21.7586 138.798 21.3392C138.685 20.9198 138.588 20.4279 138.508 19.8634C138.427 19.2989 138.346 18.694 138.266 18.0488C138.201 17.3875 138.145 16.7585 138.096 16.1617C138.048 15.5488 138.008 15.0004 137.975 14.5165C137.943 14.0165 137.919 13.6375 137.903 13.3794C137.871 13.1052 137.838 12.831 137.806 12.5568C137.79 12.2665 137.766 11.9842 137.733 11.71C137.717 11.5648 137.701 11.4277 137.685 11.2987C137.669 11.1535 137.661 11.0164 137.661 10.8874C137.661 10.5648 137.782 10.2906 138.024 10.0648C138.266 9.82287 138.548 9.7019 138.871 9.7019C139.322 9.7019 139.637 9.89546 139.814 10.2826C139.846 10.3471 139.879 10.468 139.911 10.6455C139.943 10.8229 139.967 11.0164 139.983 11.2261C140 11.4197 140.016 11.6132 140.032 11.8068C140.048 12.0003 140.056 12.1455 140.056 12.2423C140.088 12.4358 140.104 12.6374 140.104 12.8471C140.121 13.0407 140.137 13.2342 140.153 13.4278L140.25 14.5649C141.363 14.6455 142.467 14.702 143.564 14.7343C144.661 14.7504 145.766 14.7584 146.879 14.7584L149.613 14.7343H150.726V14.4439L150.677 13.0165C150.661 12.6455 150.653 12.2907 150.653 11.9519C150.653 11.5971 150.653 11.2342 150.653 10.8632C150.653 10.5406 150.774 10.2664 151.016 10.0406C151.258 9.81481 151.54 9.7019 151.863 9.7019C152.282 9.7019 152.597 9.90352 152.806 10.3068C152.839 10.3713 152.863 10.5568 152.879 10.8632C152.895 11.1535 152.911 11.5165 152.927 11.9519C152.943 12.3874 152.951 12.8633 152.951 13.3794C152.968 13.8794 152.976 14.3633 152.976 14.831C152.976 15.2988 152.976 15.7101 152.976 16.0649C152.976 16.4198 152.976 16.6698 152.976 16.8149C152.976 17.2504 152.976 17.6859 152.976 18.1214C152.976 18.5408 152.96 18.9601 152.927 19.3795C152.911 19.6537 152.887 19.9763 152.855 20.3473C152.822 20.7182 152.75 21.0731 152.637 21.4118C152.54 21.7505 152.387 22.0408 152.177 22.2828C151.968 22.5086 151.669 22.6215 151.282 22.6215C149.734 22.6215 148.185 22.6457 146.637 22.6941V23.2989L146.613 25.3796V26.3716C146.613 26.5006 146.613 26.6619 146.613 26.8554C146.629 27.049 146.637 27.2506 146.637 27.4603ZM150.75 16.8875C150.508 16.8875 150.145 16.8875 149.661 16.8875C149.193 16.8875 148.653 16.8875 148.04 16.8875C147.443 16.8875 146.798 16.8875 146.105 16.8875C145.411 16.8875 144.726 16.8875 144.048 16.8875C143.371 16.8714 142.717 16.8553 142.088 16.8391C141.459 16.823 140.911 16.7988 140.443 16.7665V16.8149L140.467 16.9601V17.0085C140.516 17.6214 140.564 18.2424 140.613 18.8714C140.661 19.5005 140.774 20.0892 140.951 20.6376C141.096 20.6537 141.242 20.6618 141.387 20.6618C141.548 20.6618 141.709 20.6618 141.871 20.6618C143.338 20.6618 144.79 20.6457 146.226 20.6134C147.677 20.5811 149.137 20.5489 150.605 20.5166C150.669 19.9521 150.709 19.3634 150.726 18.7505C150.742 18.1375 150.75 17.5166 150.75 16.8875Z" fill="#1D1D1D"/>
<path d="M116.573 16.7905C116.106 16.7905 115.638 16.7905 115.17 16.7905C114.702 16.7744 114.235 16.7583 113.767 16.7421C113.283 16.726 112.864 16.6938 112.509 16.6454C112.17 16.597 111.872 16.5002 111.614 16.355C111.372 16.1938 111.162 15.976 110.985 15.7018C110.823 15.4115 110.678 15.0082 110.549 14.4921C110.372 13.8147 110.259 13.1292 110.21 12.4356C110.162 11.7259 110.138 11.0082 110.138 10.2824C110.138 10.0565 110.202 9.85493 110.331 9.6775C110.46 9.50008 110.63 9.35492 110.839 9.24201C111.001 9.16137 111.339 9.10491 111.856 9.07265C112.372 9.02427 112.936 8.99201 113.549 8.97588C114.162 8.94362 114.743 8.92749 115.291 8.92749C115.856 8.92749 116.259 8.92749 116.501 8.92749C117.42 8.92749 118.34 8.93555 119.259 8.95168C120.178 8.95168 121.098 8.97588 122.017 9.02427C122.824 9.05652 123.396 9.22588 123.735 9.53234C124.09 9.8388 124.267 10.4114 124.267 11.2501C124.267 11.8146 124.235 12.3872 124.17 12.9679C124.106 13.5324 124.017 14.0969 123.904 14.6615C123.872 14.8711 123.84 15.0808 123.807 15.2905C123.775 15.5002 123.719 15.7018 123.638 15.8954C123.493 16.2986 123.275 16.5405 122.985 16.6212C122.694 16.6857 122.364 16.726 121.993 16.7421C121.074 16.7583 120.17 16.7744 119.283 16.7905C118.396 16.7905 117.493 16.7905 116.573 16.7905ZM112.388 11.1291C112.388 11.6292 112.428 12.2098 112.509 12.8711C112.606 13.5163 112.759 14.0647 112.969 14.5163C113.065 14.5486 113.283 14.5808 113.622 14.6131C113.977 14.6292 114.364 14.6453 114.783 14.6615C115.202 14.6776 115.606 14.6857 115.993 14.6857C116.38 14.6857 116.646 14.6857 116.791 14.6857C117.614 14.6857 118.428 14.6857 119.235 14.6857C120.041 14.6695 120.856 14.6534 121.678 14.6373C121.904 13.5566 122.017 12.4921 122.017 11.4437V11.1533C121.694 11.1211 121.38 11.1049 121.073 11.1049C120.783 11.0888 120.477 11.0808 120.154 11.0808C119.557 11.0646 118.961 11.0566 118.364 11.0566C117.783 11.0404 117.194 11.0324 116.598 11.0324C115.888 11.0324 115.186 11.0404 114.493 11.0566C113.799 11.0727 113.098 11.0969 112.388 11.1291ZM115.944 21.8229V21.4116L115.969 20.5648V20.2503C114.759 20.2503 113.549 20.2583 112.339 20.2745C111.146 20.2745 109.944 20.2745 108.735 20.2745C108.557 20.2745 108.356 20.2745 108.13 20.2745C107.904 20.2745 107.694 20.2503 107.501 20.2019C107.307 20.1535 107.146 20.0648 107.017 19.9358C106.888 19.7906 106.823 19.5809 106.823 19.3067C106.823 19.0486 106.904 18.8228 107.065 18.6293C107.226 18.4357 107.42 18.2986 107.646 18.218C107.71 18.1857 107.767 18.1696 107.815 18.1696C107.88 18.1696 107.936 18.1615 107.985 18.1454C108.501 18.1131 109.025 18.1051 109.557 18.1212C110.089 18.1373 110.614 18.1454 111.13 18.1454H113.646L118.654 18.1212H121.146C121.243 18.1212 121.444 18.1212 121.751 18.1212C122.057 18.1212 122.412 18.1212 122.815 18.1212C123.219 18.1212 123.638 18.1293 124.074 18.1454C124.525 18.1454 124.945 18.1535 125.332 18.1696C125.719 18.1696 126.049 18.1777 126.324 18.1938C126.598 18.2099 126.759 18.226 126.807 18.2422C127.227 18.4196 127.437 18.718 127.437 19.1374C127.437 19.4599 127.307 19.7341 127.049 19.9599C126.807 20.1858 126.533 20.2987 126.227 20.2987C124.872 20.2987 123.525 20.2906 122.186 20.2745C120.864 20.2583 119.533 20.2503 118.194 20.2503V20.3954V20.8067C118.194 21.0164 118.194 21.2261 118.194 21.4358C118.194 21.6293 118.162 21.8148 118.098 21.9922C118.63 21.9761 119.098 21.9681 119.501 21.9681C119.92 21.9519 120.219 21.9439 120.396 21.9439C120.67 21.9439 120.936 21.9439 121.194 21.9439C121.469 21.9439 121.743 21.9519 122.017 21.9681C122.694 22.0003 123.195 22.1293 123.517 22.3552C123.84 22.581 124.001 23.0648 124.001 23.8068C124.001 24.0165 124.001 24.2584 124.001 24.5326C124.001 24.7907 123.985 25.0568 123.953 25.331C123.92 25.5891 123.864 25.8472 123.783 26.1052C123.719 26.3472 123.614 26.5488 123.469 26.7101C123.324 26.8875 123.154 27.0246 122.961 27.1214C122.767 27.2181 122.557 27.2907 122.332 27.3391C121.896 27.4359 121.38 27.4762 120.783 27.4601C120.203 27.444 119.678 27.444 119.211 27.4601C118.13 27.4762 117.057 27.4843 115.993 27.4843C114.928 27.5004 113.856 27.5165 112.775 27.5327C112.791 27.5811 112.799 27.6536 112.799 27.7504C112.815 27.8633 112.823 27.9762 112.823 28.0891C112.839 28.202 112.856 28.3069 112.872 28.4037C112.888 28.5004 112.912 28.573 112.944 28.6214C112.96 28.6537 113.146 28.6778 113.501 28.694C113.856 28.7262 114.251 28.7504 114.686 28.7666C115.122 28.7827 115.541 28.7908 115.944 28.7908C116.348 28.7908 116.606 28.7908 116.719 28.7908C117.541 28.7908 118.348 28.7827 119.138 28.7666C119.928 28.7504 120.727 28.7182 121.533 28.6698C121.807 28.6537 122.074 28.6375 122.332 28.6214C122.59 28.6214 122.848 28.6053 123.106 28.573C123.251 28.5569 123.388 28.5408 123.517 28.5246C123.662 28.5085 123.807 28.5004 123.953 28.5004C124.227 28.5004 124.453 28.5811 124.63 28.7424C124.807 28.9198 124.896 29.1456 124.896 29.4198C124.896 29.6456 124.824 29.8553 124.678 30.0488C124.533 30.2424 124.356 30.3795 124.146 30.4601C124.033 30.5247 123.783 30.573 123.396 30.6053C123.025 30.6537 122.582 30.686 122.065 30.7021C121.565 30.7343 121.025 30.7585 120.444 30.7747C119.88 30.7908 119.323 30.8069 118.775 30.823C118.243 30.8392 117.759 30.8472 117.323 30.8472C116.904 30.8472 116.598 30.8472 116.404 30.8472C115.888 30.8472 115.38 30.8392 114.88 30.823C114.38 30.823 113.88 30.8069 113.38 30.7747C113.057 30.7585 112.751 30.7263 112.46 30.6779C112.186 30.6456 111.928 30.573 111.686 30.4601C111.46 30.3472 111.259 30.1859 111.081 29.9763C110.92 29.7666 110.799 29.4843 110.718 29.1295C110.686 28.9843 110.662 28.8391 110.646 28.694C110.646 28.5488 110.63 28.4037 110.598 28.2585L110.525 27.6536C110.509 27.5569 110.493 27.452 110.477 27.3391C110.477 27.2423 110.477 27.1375 110.477 27.0246C110.477 26.4601 110.654 26.0568 111.009 25.8149C111.364 25.573 111.799 25.452 112.315 25.452C113.896 25.452 115.469 25.4439 117.033 25.4278C118.598 25.4117 120.162 25.3875 121.727 25.3552C121.743 25.1294 121.751 24.9117 121.751 24.702C121.767 24.4923 121.775 24.2745 121.775 24.0487V24.0245C121.598 24.0084 121.42 24.0003 121.243 24.0003C121.082 24.0003 120.912 24.0003 120.735 24.0003C119.622 24.0003 118.509 24.0245 117.396 24.0729C116.299 24.1052 115.194 24.1536 114.081 24.2181C113.549 24.2504 113.017 24.2907 112.485 24.3391C111.968 24.3875 111.452 24.4116 110.936 24.4116C110.662 24.4116 110.436 24.331 110.259 24.1697C110.081 23.9923 109.993 23.7665 109.993 23.4923C109.993 23.2503 110.073 23.0326 110.235 22.839C110.396 22.6455 110.581 22.5084 110.791 22.4277C110.872 22.3955 111.073 22.3632 111.396 22.331C111.735 22.2987 112.138 22.2664 112.606 22.2342C113.089 22.2019 113.622 22.1777 114.202 22.1616C114.783 22.1293 115.372 22.0971 115.969 22.0648C115.952 22.0164 115.944 21.9358 115.944 21.8229Z" fill="#1D1D1D"/>
<path d="M100.127 9C100.401 9 100.635 9.08871 100.829 9.26613C101.038 9.44356 101.143 9.67743 101.143 9.96776C101.143 10.2258 101.062 10.4516 100.901 10.6452C100.74 10.8387 100.546 10.9758 100.32 11.0565C100.159 11.121 99.9172 11.1533 99.5947 11.1533C99.2882 11.1533 99.0463 11.1533 98.8688 11.1533H96.6672L92.2881 11.1291H90.0864C90.1187 11.8549 90.1348 12.5807 90.1348 13.3065C90.1509 14.0323 90.1913 14.7582 90.2558 15.484C90.2719 15.5162 90.4171 15.5485 90.6913 15.5808C90.9816 15.5969 91.2961 15.613 91.6348 15.6292C91.9735 15.6292 92.2881 15.6372 92.5784 15.6533C92.8849 15.6533 93.0784 15.6533 93.1591 15.6533C94.0946 15.6533 95.022 15.6453 95.9414 15.6292C96.8769 15.5969 97.8124 15.5646 98.7479 15.5324C99.1188 15.5162 99.4979 15.5001 99.885 15.484C100.272 15.4517 100.659 15.4356 101.046 15.4356C101.32 15.4356 101.554 15.5243 101.748 15.7017C101.958 15.8792 102.062 16.113 102.062 16.4034C102.062 16.6453 101.99 16.863 101.845 17.0566C101.7 17.2501 101.514 17.3872 101.288 17.4679C101.191 17.5163 100.933 17.5566 100.514 17.5889C100.095 17.605 99.6027 17.6292 99.0382 17.6614C98.4737 17.6776 97.8608 17.6937 97.1995 17.7098C96.5543 17.726 95.9414 17.734 95.3607 17.734V19.5486C96.8123 19.5163 98.2479 19.4921 99.6672 19.476C101.103 19.4437 102.554 19.4276 104.022 19.4276C104.296 19.4276 104.53 19.5163 104.724 19.6937C104.933 19.8712 105.038 20.105 105.038 20.3954C105.038 20.7986 104.893 21.0889 104.603 21.2664C104.329 21.4276 104.014 21.5244 103.659 21.5567C103.369 21.5728 103.071 21.5809 102.764 21.5809C102.474 21.5647 102.183 21.5567 101.893 21.5567C101.216 21.5728 100.53 21.5889 99.8366 21.6051C99.1592 21.6051 98.4737 21.6131 97.7801 21.6293C95.7156 21.6777 93.6591 21.726 91.6106 21.7744C89.5783 21.8228 87.5299 21.847 85.4654 21.847C85.1912 21.847 84.9492 21.7583 84.7395 21.5809C84.546 21.4035 84.4492 21.1696 84.4492 20.8792C84.4492 20.4599 84.5863 20.1696 84.8605 20.0083C85.1508 19.847 85.4734 19.7502 85.8283 19.7179C86.1186 19.7018 86.4089 19.7018 86.6993 19.7179C87.0057 19.7179 87.3041 19.7179 87.5944 19.7179C88.2719 19.7018 88.9493 19.6937 89.6267 19.6937C90.3203 19.6776 91.0139 19.6615 91.7074 19.6454C91.9494 19.6454 92.1832 19.6454 92.409 19.6454C92.651 19.6292 92.8929 19.6212 93.1349 19.6212L93.0865 17.7582H92.9655C92.7236 17.7582 92.4171 17.7582 92.0461 17.7582C91.6752 17.7582 91.2881 17.7502 90.8848 17.734C90.4977 17.7018 90.1267 17.6614 89.7719 17.6131C89.417 17.5647 89.1348 17.5002 88.9251 17.4195C88.7638 17.3389 88.6186 17.2582 88.4896 17.1776C88.3767 17.0808 88.2799 16.9518 88.1993 16.7905C88.1509 16.6937 88.1106 16.5566 88.0783 16.3792C88.0461 16.1856 88.0219 15.984 88.0057 15.7743C88.0057 15.5646 87.9977 15.363 87.9815 15.1695C87.9815 14.9598 87.9815 14.7904 87.9815 14.6614C87.9493 14.1614 87.9251 13.6694 87.909 13.1856C87.909 12.6856 87.8928 12.1775 87.8606 11.6613C87.8444 11.4194 87.8283 11.1775 87.8122 10.9355C87.7961 10.6774 87.788 10.4194 87.788 10.1613C87.788 9.83872 87.909 9.56453 88.1509 9.33872C88.409 9.1129 88.6912 9 88.9977 9H100.127ZM87.667 27.0729C87.667 26.7181 87.7315 26.3874 87.8606 26.081C87.9896 25.7584 88.159 25.46 88.3686 25.1858C88.8041 24.6051 89.3283 24.1535 89.9413 23.8309C90.5542 23.4922 91.2074 23.2422 91.901 23.0809C92.5945 22.9196 93.3042 22.8228 94.03 22.7906C94.7559 22.7583 95.4494 22.7422 96.1107 22.7422C96.6107 22.7422 97.143 22.7664 97.7075 22.8148C98.272 22.8632 98.8204 22.9599 99.3527 23.1051C99.9011 23.2503 100.417 23.4599 100.901 23.7341C101.385 23.9922 101.788 24.339 102.111 24.7745C102.272 25.0003 102.401 25.2503 102.498 25.5245C102.611 25.7826 102.667 26.0487 102.667 26.3229C102.667 26.9036 102.538 27.4761 102.28 28.0407C102.087 28.46 101.845 28.8149 101.554 29.1052C101.28 29.4117 100.966 29.6697 100.611 29.8794C100.256 30.0891 99.8769 30.2585 99.4737 30.3875C99.0866 30.5326 98.6833 30.6536 98.264 30.7504C97.6672 30.8956 97.0704 31.0085 96.4736 31.0891C95.8768 31.1698 95.272 31.2101 94.6591 31.2101C93.9978 31.2101 93.2639 31.1536 92.4574 31.0407C91.651 30.9278 90.8929 30.7181 90.1832 30.4117C89.4735 30.1052 88.8767 29.6859 88.3928 29.1536C87.909 28.6213 87.667 27.9278 87.667 27.0729ZM100.417 26.5648C100.417 26.4519 100.385 26.3471 100.32 26.2503C100.272 26.1374 100.208 26.0406 100.127 25.96C99.885 25.7019 99.5705 25.5003 99.1834 25.3551C98.8124 25.1938 98.4091 25.0809 97.9737 25.0164C97.5543 24.9358 97.1269 24.8874 96.6914 24.8713C96.272 24.8551 95.901 24.8471 95.5785 24.8471C95.1752 24.8471 94.7317 24.8551 94.2478 24.8713C93.7639 24.8874 93.28 24.9358 92.7961 25.0164C92.3123 25.0971 91.8526 25.218 91.4171 25.3793C90.9816 25.5406 90.6187 25.7745 90.3284 26.081C90.2155 26.1939 90.1106 26.3148 90.0138 26.4439C89.9332 26.5729 89.8929 26.7181 89.8929 26.8794C89.8929 27.3471 90.0864 27.7261 90.4735 28.0165C90.8606 28.3068 91.3203 28.5326 91.8526 28.6939C92.401 28.8552 92.9494 28.96 93.4978 29.0084C94.0623 29.0568 94.5139 29.081 94.8526 29.081C95.143 29.081 95.5301 29.0568 96.0139 29.0084C96.4978 28.96 96.9898 28.8875 97.4898 28.7907C98.0059 28.6939 98.4817 28.5729 98.9172 28.4278C99.3527 28.2826 99.6753 28.1133 99.885 27.9197C100.062 27.7423 100.191 27.5326 100.272 27.2907C100.369 27.0487 100.417 26.8068 100.417 26.5648Z" fill="#1D1D1D"/>
<path d="M78.5288 25.8878C78.5288 24.0813 78.5207 22.2829 78.5046 20.4925C78.5046 18.686 78.4723 16.8795 78.4078 15.0731C78.3756 14.2666 78.3433 13.4682 78.3111 12.6779C78.2788 11.8875 78.2627 11.0891 78.2627 10.2826C78.2627 9.96006 78.3836 9.68586 78.6256 9.46005C78.8836 9.23424 79.1659 9.12134 79.4724 9.12134C79.6982 9.12134 79.8917 9.17779 80.053 9.2907C80.2304 9.4036 80.3595 9.56489 80.4401 9.77458C80.4563 9.83909 80.4724 9.98426 80.4885 10.2101C80.5046 10.4359 80.5208 10.6859 80.5369 10.9601C80.553 11.2182 80.5611 11.4762 80.5611 11.7343C80.5611 11.9762 80.5611 12.1537 80.5611 12.2666C80.6256 14.315 80.674 16.3553 80.7063 18.3876C80.7546 20.4038 80.7788 22.4361 80.7788 24.4845C80.7788 25.2103 80.7627 25.9281 80.7305 26.6378C80.7143 27.3313 80.7063 28.033 80.7063 28.7427C80.7063 28.8717 80.7063 29.0007 80.7063 29.1298C80.7224 29.2588 80.7143 29.3798 80.6821 29.4927C80.6014 29.783 80.4482 30.0169 80.2224 30.1943C80.0127 30.3879 79.7627 30.4846 79.4724 30.4846C79.1982 30.4846 78.9562 30.3959 78.7465 30.2185C78.553 30.0411 78.4562 29.8072 78.4562 29.5169V28.3072L78.5288 25.8878ZM63.6011 12.4359C63.3269 12.4359 63.085 12.3472 62.8753 12.1698C62.6817 11.9924 62.585 11.7585 62.585 11.4682C62.585 11.2262 62.6575 11.0085 62.8027 10.8149C62.9479 10.6214 63.1334 10.4843 63.3592 10.4036C63.4559 10.3714 63.6011 10.3472 63.7947 10.331C64.0043 10.3149 64.214 10.3068 64.4237 10.3068C64.6495 10.2907 64.8673 10.2826 65.0769 10.2826C65.2866 10.2826 65.4479 10.2826 65.5608 10.2826H67.206C67.7705 10.2504 68.3351 10.2181 68.8996 10.1859C69.4641 10.1536 70.0286 10.1375 70.5932 10.1375C70.8512 10.1375 71.1174 10.1455 71.3916 10.1617C71.6658 10.1778 71.9238 10.2262 72.1658 10.3068C72.4077 10.3714 72.6255 10.4843 72.819 10.6456C73.0287 10.7907 73.19 11.0085 73.3029 11.2988C73.4642 11.702 73.5448 12.0811 73.5448 12.4359C73.5448 13.0004 73.4884 13.565 73.3755 14.1295C73.2626 14.6779 73.1255 15.2263 72.9642 15.7747C72.3997 17.8392 71.5851 19.799 70.5206 21.6538C69.4722 23.5087 68.1576 25.17 66.577 26.6378C66.4479 26.7507 66.3108 26.8797 66.1657 27.0249C66.0205 27.1701 65.8592 27.3072 65.6818 27.4362C65.5205 27.5652 65.3511 27.6701 65.1737 27.7507C64.9963 27.8475 64.8269 27.8959 64.6656 27.8959C64.3914 27.8959 64.1495 27.8072 63.9398 27.6297C63.7463 27.4523 63.6495 27.2184 63.6495 26.9281C63.6495 26.67 63.7463 26.4281 63.9398 26.2023C64.0527 26.0733 64.1818 25.9604 64.3269 25.8636C64.4721 25.7668 64.6092 25.662 64.7382 25.5491C65.0447 25.2749 65.335 24.9926 65.6092 24.7023C65.8995 24.4119 66.1818 24.1135 66.456 23.8071C67.5205 22.5651 68.3996 21.2345 69.0931 19.8151C69.8028 18.3957 70.3754 16.9037 70.8109 15.3392C70.94 14.9037 71.0529 14.4682 71.1496 14.0327C71.2464 13.5811 71.2948 13.1295 71.2948 12.6779C71.2948 12.5972 71.2867 12.5327 71.2706 12.4843C71.2706 12.4198 71.2625 12.3553 71.2464 12.2907C71.1658 12.2746 71.0932 12.2666 71.0287 12.2666C70.9641 12.2666 70.8916 12.2666 70.8109 12.2666H70.3754C70.0206 12.2666 69.6657 12.2746 69.3109 12.2907C68.9722 12.3069 68.6254 12.323 68.2705 12.3391C67.4963 12.3714 66.7141 12.3956 65.9237 12.4117C65.1495 12.4279 64.3753 12.4359 63.6011 12.4359Z" fill="#1D1D1D"/>
<path d="M42.8475 14.1295C42.8475 13.1134 43.0572 12.2585 43.4766 11.5649C43.912 10.8553 44.4685 10.2827 45.1459 9.84717C45.8234 9.41168 46.5895 9.09716 47.4444 8.90361C48.3154 8.71006 49.1863 8.61328 50.0573 8.61328C50.5251 8.61328 51.009 8.6536 51.509 8.73425C52.0251 8.79877 52.5251 8.91167 53.009 9.07297C53.509 9.21813 53.9767 9.41975 54.4122 9.67782C54.8639 9.91976 55.259 10.2101 55.5977 10.5488C56.0171 10.9843 56.3236 11.5085 56.5171 12.1214C56.7268 12.7182 56.8316 13.315 56.8316 13.9118C56.8316 14.2344 56.7832 14.565 56.6865 14.9037C56.6058 15.2263 56.501 15.5408 56.372 15.8473C56.0978 16.4279 55.7429 16.9199 55.3074 17.3231C54.8719 17.7102 54.388 18.0247 53.8558 18.2667C53.3235 18.4925 52.759 18.6538 52.1622 18.7506C51.5654 18.8473 50.9686 18.8957 50.3718 18.8957C49.646 18.8957 48.8476 18.8231 47.9766 18.678C47.1057 18.5167 46.2831 18.2506 45.5089 17.8796C44.7508 17.5086 44.1137 17.0167 43.5975 16.4037C43.0975 15.7908 42.8475 15.0328 42.8475 14.1295ZM49.8396 10.7182C49.2105 10.7182 48.6057 10.7746 48.025 10.8875C47.4605 11.0004 46.904 11.2182 46.3556 11.5408C46.2427 11.6053 46.1298 11.6698 46.0169 11.7343C45.904 11.7988 45.8072 11.8795 45.7266 11.9762C45.5169 12.2021 45.3556 12.5004 45.2427 12.8714C45.1298 13.2424 45.0734 13.5811 45.0734 13.8876C45.0734 14.4682 45.275 14.944 45.6782 15.315C46.0976 15.686 46.5976 15.9844 47.1782 16.2102C47.7589 16.4199 48.3637 16.5731 48.9928 16.6699C49.6218 16.7505 50.1541 16.7909 50.5896 16.7909C50.9444 16.7909 51.3154 16.7747 51.7025 16.7425C52.0896 16.6941 52.4606 16.6054 52.8154 16.4763C53.1703 16.3473 53.4848 16.1699 53.759 15.9441C54.0493 15.7021 54.2671 15.3957 54.4122 15.0247C54.5251 14.7505 54.5816 14.444 54.5816 14.1053C54.5816 13.7343 54.5251 13.3634 54.4122 12.9924C54.3155 12.6214 54.138 12.2988 53.88 12.0246C53.6703 11.7827 53.3961 11.5811 53.0574 11.4198C52.7348 11.2585 52.3799 11.1295 51.9928 11.0327C51.6219 10.9198 51.2428 10.8391 50.8557 10.7907C50.4847 10.7424 50.146 10.7182 49.8396 10.7182ZM46.8637 30.6782C46.6702 30.6782 46.4847 30.6298 46.3073 30.533C46.146 30.4524 46.025 30.3234 45.9443 30.1459C45.9121 30.0814 45.8718 29.904 45.8234 29.6137C45.7911 29.3233 45.7508 28.9604 45.7024 28.5249C45.6701 28.1056 45.6379 27.6459 45.6056 27.1459C45.5734 26.6459 45.5411 26.1459 45.5089 25.6459C45.4766 25.1297 45.4524 24.6458 45.4363 24.1942C45.4201 23.7426 45.404 23.3636 45.3879 23.0571C45.2105 23.0571 45.0411 23.0652 44.8798 23.0813C44.7185 23.0813 44.5572 23.0813 44.3959 23.0813C43.7508 23.0974 43.1136 23.1216 42.4846 23.1539C41.8556 23.1861 41.2184 23.2023 40.5733 23.2023C40.2991 23.2023 40.0571 23.1135 39.8475 22.9361C39.6539 22.7587 39.5571 22.5248 39.5571 22.2345C39.5571 21.8151 39.7023 21.5248 39.9926 21.3635C40.2991 21.2022 40.6297 21.1054 40.9846 21.0732C42.6459 20.9925 44.2911 20.9522 45.9201 20.9522C47.5653 20.9361 49.2186 20.9119 50.8799 20.8796L53.9042 20.7829C54.6945 20.7667 55.4848 20.7587 56.2752 20.7587C57.0655 20.7425 57.8558 20.7345 58.6462 20.7345C58.8236 20.7345 59.001 20.7425 59.1785 20.7587C59.372 20.7748 59.5414 20.8232 59.6865 20.9038C59.8317 20.9683 59.9527 21.0651 60.0494 21.1942C60.1462 21.3232 60.1946 21.5006 60.1946 21.7264C60.1946 22.049 60.0736 22.3232 59.8317 22.549C59.5898 22.7748 59.3075 22.8877 58.9849 22.8877H58.743L58.2349 22.8635H57.9688C57.3881 22.8635 56.8074 22.8635 56.2268 22.8635C55.6623 22.8635 55.0977 22.8716 54.5332 22.8877C54.5655 23.1297 54.5816 23.3716 54.5816 23.6136C54.5816 23.8394 54.5897 24.0652 54.6058 24.291L54.6542 25.2104C54.6703 25.4362 54.6784 25.67 54.6784 25.912C54.6945 26.1378 54.7106 26.3717 54.7268 26.6136C54.7429 26.9362 54.759 27.2507 54.7751 27.5572C54.7913 27.8636 54.8155 28.1782 54.8477 28.5007C54.8639 28.6782 54.88 28.8475 54.8961 29.0088C54.9122 29.1701 54.9203 29.3395 54.9203 29.5169C54.9203 29.8395 54.7993 30.1137 54.5574 30.3395C54.3155 30.5653 54.0332 30.6782 53.7106 30.6782C53.5171 30.6782 53.3316 30.6217 53.1542 30.5088C52.9767 30.4121 52.8477 30.275 52.767 30.0975C52.7348 30.0653 52.7187 30.025 52.7187 29.9766C52.7187 29.9443 52.7106 29.904 52.6945 29.8556C52.6783 29.7427 52.6622 29.6298 52.6461 29.5169C52.6461 29.4201 52.638 29.3072 52.6219 29.1782L52.5977 28.4765C52.5654 27.9927 52.5332 27.5088 52.5009 27.0249C52.4848 26.541 52.4606 26.0571 52.4283 25.5733L52.3074 23.3232C52.2912 23.2265 52.2751 23.17 52.259 23.1539C52.259 23.1216 52.259 23.049 52.259 22.9361C51.9848 22.9523 51.7186 22.9684 51.4606 22.9845C51.2025 22.9845 50.9364 22.9845 50.6622 22.9845C50.1622 23.0006 49.6622 23.0168 49.1621 23.0329C48.6783 23.0329 48.1783 23.0329 47.6621 23.0329C47.7105 23.6781 47.7428 24.2829 47.7589 24.8474C47.7912 25.412 47.8234 26.0168 47.8557 26.662L48.0008 28.5007C48.017 28.6782 48.0331 28.8475 48.0492 29.0088C48.0653 29.1701 48.0734 29.3395 48.0734 29.5169C48.0734 29.8395 47.9524 30.1137 47.7105 30.3395C47.4686 30.5653 47.1863 30.6782 46.8637 30.6782Z" fill="#1D1D1D"/>
<g clip-path="url(#clip0_88_24)">
<path d="M16.2886 36.291C15.1496 36.291 14.0036 36.17 12.8677 35.9219C10.3659 35.3763 8.00624 34.2064 6.04612 32.5394C3.91349 30.7271 2.24895 28.3662 1.09991 25.5242C-0.509145 21.5447 -0.350761 17.6498 1.57204 13.9476C3.04692 11.1057 5.28043 8.98477 6.89352 7.70599C8.58026 6.36871 10.2781 5.40963 10.9459 5.25331C11.4705 5.13128 13.0624 4.7773 14.4061 4.66434C14.5393 4.25187 14.73 3.70122 14.967 3.13041C15.7015 1.36351 16.452 0.389301 17.3287 0.0635542C17.5708 -0.0262025 17.8391 -0.0201515 18.0772 0.0817073C18.1559 0.114988 19.8285 0.85422 20.566 2.87223C21.8522 2.96603 24.4065 3.27564 25.9792 4.29322C26.8952 3.69416 28.4034 2.92064 29.613 3.32404C29.9519 3.437 30.2062 3.72039 30.2808 4.07034C30.3192 4.25187 31.2039 8.57734 28.8029 13.4635C27.7608 15.5844 25.9288 16.9489 23.6459 17.3049C21.2651 17.676 18.5786 16.8743 17.1138 15.3535C16.7274 14.9521 16.7395 14.3137 17.141 13.9274C17.5425 13.5412 18.1811 13.5533 18.5675 13.9547C19.4421 14.8623 21.3599 15.6197 23.3341 15.3121C24.4761 15.1336 26.0388 14.5144 26.9921 12.574C28.4952 9.51524 28.5164 6.67429 28.4095 5.31987C27.8879 5.49737 27.1505 5.89774 26.5603 6.35459C26.1467 6.67429 25.5566 6.62588 25.2014 6.24265C24.3853 5.36021 21.5334 4.89731 19.77 4.85092C19.3019 4.83882 18.9034 4.50601 18.8086 4.04815C18.6149 3.1173 18.1135 2.5475 17.7352 2.23688C17.5234 2.49909 17.2066 2.99729 16.8212 3.93015C16.4026 4.94168 16.1423 5.89371 16.1403 5.90279C16.0213 6.34148 15.6218 6.64706 15.1668 6.64706C14.2034 6.64706 12.5469 6.95365 11.416 7.21686C10.8662 7.38932 5.61435 10.1798 3.18109 15.2445C1.71831 18.2902 1.6477 21.4942 2.97227 24.7699C4.95357 29.6702 8.62162 32.9317 13.3005 33.9523C17.8311 34.9406 22.5513 33.6275 25.9288 30.4387C28.6788 27.8428 30.0629 24.5208 30.0427 20.5674C30.0276 17.554 29.162 15.2819 29.153 15.2597C28.9522 14.7403 29.2095 14.1564 29.728 13.9547C30.2465 13.753 30.8306 14.0081 31.0334 14.5265C31.0737 14.6304 32.0291 17.1113 32.0604 20.4797C32.1027 24.9827 30.4614 28.934 27.3149 31.905C24.2996 34.752 20.346 36.292 16.2916 36.292L16.2886 36.291Z" fill="#1D1D1D"/>
<path d="M18.4692 11.6522C18.3804 11.6522 18.2967 11.6472 18.22 11.6381C16.9298 11.4949 16.044 10.2827 15.9482 10.1455C15.6284 9.68968 15.7383 9.06037 16.1943 8.74068C16.6493 8.42199 17.2758 8.5299 17.5966 8.98272C17.7812 9.23787 18.1777 9.60597 18.445 9.63421C18.4813 9.63824 18.566 9.64732 18.7295 9.49907C19.1421 9.12391 19.7796 9.15517 20.1549 9.56664C20.5292 9.97912 20.4989 10.6165 20.0873 10.9917C19.5083 11.5181 18.9211 11.6532 18.4702 11.6532L18.4692 11.6522Z" fill="#1D1D1D"/>
<path d="M24.9561 13.059C24.8723 13.059 24.7876 13.0539 24.7028 13.0449C23.5417 12.9138 22.7498 11.9174 22.663 11.8044C22.3251 11.3617 22.4098 10.7283 22.8527 10.3905C23.2935 10.0537 23.923 10.1363 24.262 10.575C24.4063 10.7566 24.718 11.0188 24.9298 11.041C24.9641 11.044 25.0347 11.0521 25.173 10.9361C25.6007 10.5791 26.2373 10.6376 26.5934 11.0652C26.9505 11.4928 26.892 12.1292 26.4642 12.4852C26.0103 12.8633 25.4928 13.059 24.954 13.059H24.9561Z" fill="#1D1D1D"/>
</g>
<defs>
<clipPath id="clip0_88_24">
<rect width="32.057" height="36.291" fill="white"/>
</clipPath>
</defs>
</svg>
